<?xml version="1.0" standalone="no"?>
<!DOCTYPE svg PUBLIC "-//W3C//DTD SVG 1.1//EN" "http://www.w3.org/Graphics/SVG/1.1/DTD/svg11.dtd" >
<svg xmlns="http://www.w3.org/2000/svg" xmlns:xlink="http://www.w3.org/1999/xlink" version="1.1">
<metadata>
Created by FontForge 20150318 at Mon Mar 23 15:29:42 2015
 By uniteet7
(c) 1993, 2001, 2002 Adobe Systems Incorporated. All rights reserved.
</metadata>
<defs>
<font id="OfficinaSansStdBold" horiz-adv-x="556" >
  <font-face 
    font-family="OfficinaSansStdBold"
    font-weight="700"
    font-stretch="normal"
    units-per-em="1000"
    panose-1="2 11 8 6 5 2 3 2 2 4"
    ascent="724"
    descent="-276"
    x-height="494"
    cap-height="685"
    bbox="-55 -261 1137 964"
    underline-thickness="50"
    underline-position="-50"
    unicode-range="U+0020-FB02"
  />
<missing-glyph horiz-adv-x="500" 
d="M0 0v700h500v-700h-500zM250 395l170 255h-340zM280 350l170 -255v510zM80 50h340l-170 255zM50 605v-510l170 255z" />
    <glyph glyph-name="f_i" unicode="fi" horiz-adv-x="611" 
d="M455 559q-35 0 -59 24.5t-24 58.5t24 58t59 24q34 0 58 -24t24 -58t-24 -58.5t-58 -24.5zM234 401v-380q0 -13 -4 -17t-17 -4h-85q-13 0 -17 4t-4 17v380h-71q-13 0 -17 4t-4 17v51q0 13 4 17t17 4h71v41q0 189 150 189q31 0 66.5 -11t35.5 -25q0 -3 -2 -9l-18 -70
q-3 -10 -9 -10q-1 0 -17 8.5t-33 8.5q-31 0 -38.5 -18.5t-7.5 -62.5v-41h271q9 0 11.5 -3t2.5 -11v-466q0 -8 -2.5 -11t-11.5 -3h-99q-9 0 -11.5 3t-2.5 11v387h-158z" />
    <glyph glyph-name="f_l" unicode="fl" horiz-adv-x="630" 
d="M234 401v-380q0 -13 -4 -17t-17 -4h-85q-13 0 -17 4t-4 17v380h-71q-13 0 -17 4t-4 17v51q0 13 4 17t17 4h71v41q0 189 150 189q31 0 66.5 -11t35.5 -25q0 -3 -2 -9l-18 -70q-3 -10 -9 -10q-1 0 -17 8.5t-33 8.5q-31 0 -38.5 -18.5t-7.5 -62.5v-41h101q17 0 17 -10
q0 -2 -2 -10l-14 -59q-3 -14 -19 -14h-83zM601 101l20 -82q0 -2 1 -4t1 -4q0 -10 -32.5 -19t-68.5 -9q-30 0 -52 7t-35 23.5t-20.5 31t-11 41.5t-4 43t-0.5 47v510q0 14 16 17q2 1 3 1l84 17q2 0 7.5 1.5t6.5 1.5q10 0 10 -21v-545q0 -21 1 -31t7.5 -19.5t19.5 -9.5
q12 0 25 4.5t14 4.5q7 0 8 -6z" />
    <glyph glyph-name=".notdef" horiz-adv-x="500" 
d="M0 0v700h500v-700h-500zM250 395l170 255h-340zM280 350l170 -255v510zM80 50h340l-170 255zM50 605v-510l170 255z" />
    <glyph glyph-name=".null" horiz-adv-x="0" 
 />
    <glyph glyph-name="nonmarkingreturn" horiz-adv-x="333" 
 />
    <glyph glyph-name="space" unicode=" " horiz-adv-x="296" 
 />
    <glyph glyph-name="exclam" unicode="!" horiz-adv-x="352" 
d="M247 669l-22 -391q-1 -14 -5 -17t-16 -3h-57q-12 0 -16 3t-5 17l-22 391q-1 17 -1 20q0 13 18 13h107q20 0 20 -13q0 -3 -1 -20zM260 67q0 -34 -25 -59t-59 -25q-36 0 -60.5 25t-24.5 59q0 36 24.5 60.5t60.5 24.5q35 0 59.5 -25t24.5 -60z" />
    <glyph glyph-name="quotedbl" unicode="&#x22;" horiz-adv-x="500" 
d="M220 694l-21 -229q-1 -13 -4.5 -16.5t-16.5 -3.5h-41q-13 0 -16.5 3.5t-4.5 16.5l-21 229q-1 3 -1 10q0 13 20 13h87q20 0 20 -13q0 -7 -1 -10zM405 694l-21 -229q-1 -13 -4.5 -16.5t-16.5 -3.5h-41q-13 0 -16.5 3.5t-4.5 16.5l-21 229q-1 3 -1 10q0 13 20 13h87
q20 0 20 -13q0 -7 -1 -10z" />
    <glyph glyph-name="numbersign" unicode="#" 
d="M394 144l-18 -177q-1 -12 -6.5 -15.5t-17.5 -3.5h-47q-20 0 -20 14q0 5 1 8l18 174h-100l-17 -177q-2 -19 -25 -19h-45q-20 0 -20 14v8l17 174h-39q-13 0 -17 4t-4 17v55q0 13 4 16.5t17 3.5h49l17 167h-39q-14 0 -17.5 3.5t-3.5 17.5v54q0 14 3.5 17.5t17.5 3.5h49
l17 163q1 12 6.5 15.5t17.5 3.5h45q21 0 21 -13q0 -2 -0.5 -4.5t-0.5 -3.5l-16 -161h99l17 163q1 12 6 15.5t17 3.5h47q20 0 20 -14q0 -5 -1 -7l-16 -161h51q13 0 16.5 -4t3.5 -17v-54q0 -13 -3.5 -17t-16.5 -4h-60l-18 -167h51q13 0 16.5 -3.5t3.5 -16.5v-55
q0 -13 -3.5 -17t-16.5 -4h-60zM313 240l18 167h-100l-17 -167h99z" />
    <glyph glyph-name="dollar" unicode="$" 
d="M309 -11v-45q0 -13 -4 -16.5t-17 -3.5h-20q-13 0 -17 3.5t-4 16.5v45q-37 0 -105.5 16.5t-68.5 36.5q0 3 2 9l29 84q4 8 9 8q1 0 22 -10t53 -21.5t59 -14.5v196q-3 2 -24.5 10.5t-29.5 12.5t-28 15t-29.5 19.5t-24.5 24t-22 30.5t-12.5 36.5t-5.5 45.5q0 51 20.5 90.5
t51 60t57 30t47.5 10.5v49q0 13 4 16.5t17 3.5h20q13 0 17 -3.5t4 -16.5v-49q38 -3 97.5 -19.5t59.5 -38.5q0 -5 -3 -11l-31 -68q-3 -8 -9 -8q-1 0 -21 10t-47 20t-46 10v-185q2 -1 20 -9.5t23.5 -11.5t22.5 -12.5t24 -15t21.5 -17t21 -20.5t16.5 -22.5t14.5 -27.5t8 -31
t3.5 -36q0 -49 -17.5 -87t-46 -59.5t-55.5 -33t-56 -16.5zM302 270v-173q67 18 67 82q0 20 -6.5 36t-19.5 27.5t-20 16t-21 11.5zM254 410v163q-68 -17 -68 -78q0 -54 68 -85z" />
    <glyph glyph-name="percent" unicode="%" horiz-adv-x="833" 
d="M632 58q30 0 39.5 26t9.5 75t-10 75t-39 26t-39 -26t-10 -75t9.5 -75t39.5 -26zM781 159q0 -80 -39.5 -128t-109.5 -48t-109.5 47.5t-39.5 128.5q0 80 39.5 128t109.5 48t109.5 -48t39.5 -128zM586 659l-236 -659q-6 -17 -23 -17h-51q-21 0 -21 10q0 4 4 14l237 662
q6 16 23 16h51q19 0 19 -12q0 -5 -3 -14zM348 492q0 -80 -39.5 -128t-109.5 -48t-109.5 47.5t-39.5 128.5q0 80 39.5 128t109.5 48t109.5 -48t39.5 -128zM199 391q30 0 39.5 26t9.5 75t-10 75t-39 26t-39 -26t-10 -75t9.5 -75t39.5 -26z" />
    <glyph glyph-name="ampersand" unicode="&#x26;" horiz-adv-x="611" 
d="M595 34l-50 -45q-8 -6 -14 -6q-5 0 -15 10l-56 64q-16 -15 -28 -24t-36 -22.5t-56.5 -20.5t-72.5 -7q-105 0 -166.5 50.5t-61.5 139.5q0 20 3.5 38t11 34t14.5 29t20 26t20.5 21t22.5 18.5l20 14t19 12.5l15 8q-2 2 -16.5 17t-25 27.5t-23.5 31.5t-20 40.5t-7 42.5
q0 75 60 122t136 47q77 0 128 -43t51 -116q0 -19 -5 -37.5t-15.5 -35t-19.5 -29.5t-24.5 -27.5t-23.5 -21t-23 -18t-16 -12.5l107 -126q17 33 24 67.5t8.5 50.5t8.5 16q3 0 11 -2l73 -20q12 -4 12 -16q0 -41 -22 -99.5t-38 -83.5l71 -86q9 -11 9 -14q0 -7 -10 -15zM280 431
q2 2 12.5 11t15.5 13.5t14 15t13.5 19t8.5 21t4 24.5q0 33 -17.5 52t-47.5 19t-50 -20t-20 -51q0 -17 8.5 -34.5t18 -28t23.5 -24t17 -17.5zM385 143l-136 160q-19 -14 -30.5 -23t-28 -36t-16.5 -56q0 -44 29.5 -72t71.5 -28q61 0 110 55z" />
    <glyph glyph-name="quotesingle" unicode="'" horiz-adv-x="204" 
d="M164 694l-21 -229q-1 -13 -4.5 -16.5t-16.5 -3.5h-41q-13 0 -16.5 3.5t-4.5 16.5l-21 229q-1 3 -1 10q0 13 20 13h87q20 0 20 -13q0 -7 -1 -10z" />
    <glyph glyph-name="parenleft" unicode="(" horiz-adv-x="444" 
d="M406 -213q0 -8 -30 -28t-41 -20q-7 0 -30 25.5t-54.5 74.5t-61.5 109t-50.5 140t-20.5 157t21 157t50.5 140t61 108.5t55 74t29.5 25.5q11 0 41 -20t30 -28q0 -7 -16.5 -30.5t-39.5 -61.5t-46 -88t-39.5 -123.5t-16.5 -153.5t16.5 -154t39.5 -124t46 -88t39.5 -61.5
t16.5 -30.5z" />
    <glyph glyph-name="parenright" unicode=")" horiz-adv-x="444" 
d="M326 245q0 -77 -20.5 -157t-50.5 -140t-61.5 -109t-54.5 -74.5t-30 -25.5q-11 0 -41 20t-30 28q0 7 16.5 30.5t39.5 61.5t46 88t39.5 124t16.5 154t-16.5 153.5t-39.5 123.5t-46 88t-39.5 61.5t-16.5 30.5q0 8 30 28t41 20q6 0 29.5 -25.5t55 -74t61 -108.5t50.5 -140
t21 -157z" />
    <glyph glyph-name="asterisk" unicode="*" 
d="M415 367l-52 -37q-10 -8 -15 -8q-8 0 -14 14l-57 112l-56 -112q-6 -14 -14 -14q-5 0 -15 8l-52 37q-11 7 -11 15q0 6 9 15l90 86l-123 19q-19 2 -19 12q0 1 3 13l20 61q5 16 13 16q4 0 14 -5l111 -59l-21 123q-1 5 -1 11q0 11 20 11h65q20 0 20 -11q0 -6 -1 -11l-21 -123
l111 59q10 5 14 5q8 0 13 -16l20 -61q3 -12 3 -13q0 -10 -19 -12l-123 -19l90 -86q9 -9 9 -15q0 -8 -11 -15z" />
    <glyph glyph-name="plus" unicode="+" 
d="M328 207v-160q0 -11 -3 -14t-14 -3h-66q-11 0 -14 3t-3 14v160h-160q-10 0 -13.5 3.5t-3.5 13.5v66q0 10 3.5 13.5t13.5 3.5h160v160q0 11 3 14t14 3h66q11 0 14 -3t3 -14v-160h160q10 0 13.5 -3.5t3.5 -13.5v-66q0 -10 -3.5 -13.5t-13.5 -3.5h-160z" />
    <glyph glyph-name="comma" unicode="," horiz-adv-x="296" 
d="M231 99l-119 -223q-8 -14 -14 -14l-12 3l-38 13q-16 6 -16 13q0 4 3 13l62 204q5 17 22 17h97q20 0 20 -11q0 -8 -5 -15z" />
    <glyph glyph-name="hyphen" unicode="-" horiz-adv-x="370" 
d="M328 292v-73q0 -13 -4 -17t-17 -4h-244q-13 0 -17 4t-4 17v73q0 14 4 17.5t17 3.5h244q13 0 17 -3.5t4 -17.5z" />
    <glyph glyph-name="period" unicode="." horiz-adv-x="296" 
d="M243 78q0 -40 -28 -67.5t-67 -27.5t-67 28t-28 67t28 67t67 28t67 -27.5t28 -67.5z" />
    <glyph glyph-name="slash" unicode="/" horiz-adv-x="444" 
d="M410 696l-325 -889q-7 -19 -27 -19h-58q-20 0 -20 12q0 6 3 15l326 891q6 18 27 18h59q18 0 18 -12q0 -7 -3 -16z" />
    <glyph glyph-name="zero" unicode="0" 
d="M278 91q62 0 86 64.5t24 178.5t-24 178.5t-86 64.5q-32 0 -54.5 -18.5t-34 -53.5t-16.5 -76t-5 -95t5 -95t16.5 -76t34 -53.5t54.5 -18.5zM515 334q0 -171 -60.5 -261t-176.5 -90t-176.5 90t-60.5 261t60 261t177 90q115 0 176 -90t61 -261z" />
    <glyph glyph-name="one" unicode="1" 
d="M470 79v-65q0 -8 -2.5 -11t-11.5 -3h-307q-9 0 -11.5 3t-2.5 11v65q0 8 2.5 11t11.5 3h101v424l-106 -66q-10 -6 -14 -6q-7 0 -14 13l-26 45q-4 5 -4 13q0 7 12 16l189 136h70q13 0 16.5 -4t3.5 -16v-555h79q9 0 11.5 -3t2.5 -11z" />
    <glyph glyph-name="two" unicode="2" 
d="M476 94v-73q0 -13 -3.5 -17t-16.5 -4h-361q-8 0 -10.5 3t-2.5 14q0 104 29 164q18 41 62.5 81.5t84.5 68t72 70t32 89.5q0 43 -21.5 65t-60.5 22q-32 0 -54 -16t-30 -35.5t-16 -35.5t-16 -16q-5 0 -11 3l-64 24q-11 4 -11 15q0 17 12 43t35.5 55.5t67.5 50t99 20.5
q90 0 140 -49t50 -141q0 -36 -9 -67.5t-20.5 -53t-34 -45t-38.5 -36.5t-45 -35t-43 -33q-42 -35 -55 -56.5t-16 -53.5h235q13 0 16.5 -4t3.5 -17z" />
    <glyph glyph-name="three" unicode="3" 
d="M130 524l-55 49q-5 3 -5 10q0 8 12 24t33 34t57 31t77 13q87 0 141.5 -48.5t54.5 -128.5q0 -44 -16.5 -76.5t-33.5 -45.5t-44 -27q117 -42 117 -170q0 -94 -66 -150t-162 -56q-58 0 -124 19t-66 36q0 2 2 10l20 71q3 10 11 10q3 0 23.5 -10.5t54 -20.5t68.5 -10
q52 0 80.5 28.5t28.5 79.5q0 100 -124 100h-31q-13 0 -16.5 3.5t-3.5 16.5v67q0 13 3.5 17t16.5 4h33q109 0 109 94q0 36 -23 59t-60 23q-28 0 -50.5 -15t-35.5 -30.5t-17 -15.5t-9 5z" />
    <glyph glyph-name="four" unicode="4" 
d="M442 132v-129q0 -13 -3.5 -16.5t-16.5 -3.5h-87q-13 0 -16.5 3.5t-3.5 16.5v129h-244q-13 0 -17 3.5t-4 16.5v105l249 415q7 13 13 13q4 0 14 -4l60 -25q15 -6 15 -14q0 -4 -6 -14l-233 -396h153l16 161q1 12 5 16t16 4h70q13 0 16.5 -4t3.5 -17v-160h56q14 0 17.5 -3.5
t3.5 -20.5v-56q0 -13 -4 -16.5t-17 -3.5h-56z" />
    <glyph glyph-name="five" unicode="5" 
d="M218 563l-17 -159q47 30 102 30q88 0 139.5 -59.5t51.5 -147.5q0 -108 -69.5 -176t-189.5 -68q-55 0 -110 13.5t-55 31.5q0 2 0.5 6t0.5 5l14 73q2 9 9 9q2 0 23 -7.5t53 -15t60 -7.5q70 0 109.5 37.5t39.5 96.5q0 48 -25.5 76t-75.5 28q-36 0 -60.5 -13.5t-36.5 -27
t-16 -13.5q-2 0 -11 3l-60 19q-16 5 -16 13q0 7 1 10l31 329q1 14 4.5 16.5t16.5 2.5h293q13 0 17 -3.5t4 -16.5v-64q0 -14 -3.5 -17.5t-17.5 -3.5h-206z" />
    <glyph glyph-name="six" unicode="6" 
d="M460 644l-21 -70q-3 -10 -10 -10q-1 0 -24.5 8t-44.5 8q-122 0 -167 -170l2 -2q47 59 118 59q77 0 129.5 -58.5t52.5 -175.5q0 -116 -58 -183t-157 -67t-156.5 71.5t-57.5 221.5q0 198 83 303.5t216 105.5q27 0 50 -5.5t35 -13t12 -13.5q0 -3 -2 -9zM284 91q43 0 67 35.5
t24 101.5q0 134 -89 134q-90 0 -90 -134q0 -137 88 -137z" />
    <glyph glyph-name="seven" unicode="7" 
d="M484 609l-223 -611q-6 -15 -14 -15q-7 0 -11 1l-83 16q-20 4 -20 13q0 5 3 13l212 527h-245q-13 0 -17 3.5t-4 17.5v74q0 13 4 16.5t17 3.5h361q13 0 16.5 -3.5t3.5 -16.5v-39z" />
    <glyph glyph-name="eight" unicode="8" 
d="M512 177q0 -78 -62 -136t-174 -58q-103 0 -168 50t-65 141q0 122 142 177q-117 54 -117 159q0 72 59 123.5t151 51.5q88 0 148 -49.5t60 -124.5q0 -96 -113 -157q139 -65 139 -177zM282 399q15 7 23.5 11.5t23.5 16t22.5 29.5t7.5 41q0 35 -22.5 59t-59.5 24
q-36 0 -59 -24t-23 -58q0 -23 9 -41.5t26.5 -30.5t26 -16t25.5 -11zM277 88q47 0 77.5 26t30.5 66q0 77 -108 121l-6 3l-8 -4q-8 -4 -11.5 -6t-12.5 -7.5t-13.5 -9t-13 -10.5t-13.5 -13t-11.5 -14.5t-9.5 -17t-5.5 -19.5t-2.5 -22q0 -44 30 -68.5t77 -24.5z" />
    <glyph glyph-name="nine" unicode="9" 
d="M92 24l21 70q3 10 10 10q1 0 24.5 -8t44.5 -8q122 0 167 170l-2 2q-47 -59 -118 -59q-77 0 -129.5 58.5t-52.5 175.5q0 116 58 183t157 67t156.5 -71.5t57.5 -221.5q0 -198 -83 -303.5t-216 -105.5q-27 0 -50 5.5t-35 13t-12 13.5q0 3 2 9zM266 306q90 0 90 134
q0 137 -88 137q-43 0 -67 -35.5t-24 -101.5q0 -134 89 -134z" />
    <glyph glyph-name="colon" unicode=":" horiz-adv-x="296" 
d="M243 78q0 -40 -28 -67.5t-67 -27.5t-67 28t-28 67t28 67t67 28t67 -27.5t28 -67.5zM243 399q0 -40 -28 -67.5t-67 -27.5t-67 28t-28 67t28 67t67 28t67 -27.5t28 -67.5z" />
    <glyph glyph-name="semicolon" unicode=";" horiz-adv-x="296" 
d="M231 99l-119 -223q-8 -14 -14 -14l-12 3l-38 13q-16 6 -16 13q0 4 3 13l62 204q5 17 22 17h97q20 0 20 -11q0 -8 -5 -15zM243 399q0 -40 -28 -67.5t-67 -27.5t-67 28t-28 67t28 67t67 28t67 -27.5t28 -67.5z" />
    <glyph glyph-name="less" unicode="&#x3c;" 
d="M199 257l296 -94q8 -3 8 -12q0 -6 -1 -8l-17 -60q-3 -11 -9 -11q-2 0 -8 2l-407 136q-11 3 -11 15v63q0 9 2 12.5t9 5.5l407 135l4 1q3 1 4 1h3t2 -1t2 -3t2 -6l17 -60q1 -5 1 -8q0 -10 -8 -12l-296 -94v-2z" />
    <glyph glyph-name="equal" unicode="=" 
d="M505 210v-66q0 -10 -3.5 -13.5t-13.5 -3.5h-420q-10 0 -13.5 3.5t-3.5 13.5v66q0 10 3.5 13.5t13.5 3.5h420q10 0 13.5 -3.5t3.5 -13.5zM505 369v-66q0 -11 -3.5 -14t-13.5 -3h-420q-10 0 -13.5 3t-3.5 14v66q0 10 3.5 13.5t13.5 3.5h420q10 0 13.5 -3t3.5 -14z" />
    <glyph glyph-name="greater" unicode="&#x3e;" 
d="M355 259l-296 94q-8 2 -8 12l1 8l17 60q2 7 3.5 8.5t5.5 1.5q1 0 4 -1l4 -1l407 -135q7 -2 9 -5.5t2 -12.5v-63q0 -12 -11 -15l-407 -135q-4 -2 -8 -2q-6 0 -9 10l-17 60q0 1 -0.5 3.5t-0.5 4.5q0 9 8 12l296 94v2z" />
    <glyph glyph-name="question" unicode="?" horiz-adv-x="500" 
d="M279 332v-68q0 -14 -3.5 -17.5t-17.5 -3.5h-73q-13 0 -17 3.5t-4 17.5v125q0 7 3.5 12t11.5 9t15.5 6.5t20.5 6t20 6.5q33 12 52 31t19 56q0 71 -83 71q-27 0 -56 -8.5t-47.5 -16.5t-21.5 -8q-9 0 -11 10l-26 68q-2 4 -2 11q0 19 66.5 39t119.5 20q90 0 143 -52t53 -135
q0 -37 -12 -67t-27 -47.5t-41.5 -33t-41 -21t-40.5 -14.5zM309 67q0 -34 -25 -59t-59 -25q-36 0 -60.5 25t-24.5 59q0 36 24.5 60.5t60.5 24.5q35 0 59.5 -25t24.5 -60z" />
    <glyph glyph-name="at" unicode="@" horiz-adv-x="1000" 
d="M801 -30l16 -41q0 -1 0.5 -2.5l1 -3l1 -3t0.5 -3.5q0 -12 -43.5 -32t-124.5 -37.5t-166 -17.5q-192 0 -296 95.5t-104 269.5q0 202 139 337.5t339 135.5q164 0 257.5 -83.5t93.5 -221.5q0 -140 -84.5 -224t-193.5 -84q-26 0 -44 6.5t-27.5 18.5t-13.5 21.5t-7 22.5
q-51 -69 -117 -69q-44 0 -68.5 31t-24.5 91q0 104 54 182t128 78q44 0 78 -34l5 11q4 10 16 10h66q12 0 12 -10q0 -2 -0.5 -5.5t-0.5 -4.5l-45 -213q-3 -13 -3 -26q0 -28 35 -28q54 0 99.5 60t45.5 161q0 105 -69.5 170t-196.5 65q-168 0 -275.5 -114t-107.5 -287
q0 -137 80.5 -212t226.5 -75q85 0 157 18.5t110 36.5t41 18q6 0 10 -8zM549 228l24 112q-22 22 -48 22q-38 0 -60 -62t-22 -126q0 -37 27 -37q32 0 51.5 27t27.5 64z" />
    <glyph glyph-name="A" unicode="A" horiz-adv-x="593" 
d="M352 273l-41 172q-11 48 -22 140h-2q-7 -78 -23 -140l-44 -172h132zM205 183l-41 -162q-3 -14 -6.5 -17.5t-14.5 -3.5h-101q-19 0 -20 9q0 1 4 17l197 644q3 10 6.5 12.5t15.5 2.5h104q11 0 14.5 -3t6.5 -13l196 -645l4 -16q0 -8 -20 -8h-112q-7 0 -10 3.5t-7 17.5
l-44 162h-172z" />
    <glyph glyph-name="B" unicode="B" horiz-adv-x="574" 
d="M223 402h31q51 0 80 20t29 74q0 84 -98 84h-42v-178zM223 105h36q61 0 94 19.5t33 77.5q0 57 -32.5 76t-92.5 19h-38v-192zM109 685h156q45 0 79 -5.5t72.5 -21.5t60 -53.5t21.5 -94.5q0 -35 -9.5 -62t-28.5 -44.5t-31 -26t-33 -18.5q125 -35 125 -165q0 -48 -14 -84
t-36 -56.5t-55.5 -33t-66.5 -16.5t-76 -4h-164q-13 0 -17 4t-4 17v643q0 13 4 17t17 4z" />
    <glyph glyph-name="C" unicode="C" horiz-adv-x="500" 
d="M438 118l31 -56q5 -10 5 -15q0 -9 -20 -24t-60.5 -27.5t-85.5 -12.5q-131 0 -195 87t-64 267q0 175 65.5 270t193.5 95q52 0 108 -28.5t56 -45.5q0 -8 -5 -15l-37 -56q-7 -10 -12 -10q-4 0 -38 23.5t-65 23.5q-66 0 -95 -52t-29 -179q0 -139 25.5 -205.5t98.5 -66.5
q33 0 70 18.5t42 18.5t11 -10z" />
    <glyph glyph-name="D" unicode="D" horiz-adv-x="593" 
d="M107 685h155q76 0 127 -14.5t89.5 -51t56.5 -104t18 -169.5q0 -105 -20 -174.5t-61 -106.5t-91 -51t-122 -14h-153q-13 0 -17 4t-4 17v643q0 13 4 17t18 4zM220 108h36q87 0 121 50t34 190q0 132 -34.5 180.5t-120.5 48.5h-36v-469z" />
    <glyph glyph-name="E" unicode="E" horiz-adv-x="481" 
d="M446 87v-66q0 -13 -3.5 -17t-16.5 -4h-329q-13 0 -17 4t-4 17v643q0 13 4 17t17 4h328q25 0 25 -11q0 -4 -3 -14l-19 -67q-4 -16 -23 -16h-194v-165h170q13 0 17 -4t4 -17v-66q0 -13 -4 -17t-17 -4h-170v-196h214q13 0 17 -4t4 -17z" />
    <glyph glyph-name="F" unicode="F" horiz-adv-x="463" 
d="M220 304v-283q0 -13 -3.5 -17t-16.5 -4h-94q-13 0 -17 4t-4 17v643q0 13 4 17t17 4h328q25 0 25 -11q0 -4 -3 -14l-19 -67q-4 -16 -23 -16h-194v-165h170q14 0 17.5 -4t3.5 -17v-66q0 -13 -4 -17t-17 -4h-170z" />
    <glyph glyph-name="G" unicode="G" horiz-adv-x="574" 
d="M517 339v-278q0 -30 -67 -54t-133 -24q-268 0 -268 356q0 178 68 270.5t202 92.5q42 0 87 -12t72 -26t27 -23q0 -5 -5 -15l-33 -66q-5 -10 -11 -10q-1 0 -19.5 11t-49.5 22t-61 11q-73 0 -104 -63t-31 -185q0 -127 29 -191t105 -64q36 0 72 16v145h-75q-13 0 -17 4t-4 17
v66q0 13 4 17t17 4h174q13 0 17 -4t4 -17z" />
    <glyph glyph-name="H" unicode="H" horiz-adv-x="630" 
d="M545 664v-643q0 -13 -4 -17t-17 -4h-93q-13 0 -17 4t-4 17v279h-190v-279q0 -13 -4 -17t-17 -4h-93q-13 0 -17 4t-4 17v643q0 13 4 17t17 4h93q13 0 17 -4t4 -17v-256h190v256q0 13 4 17t17 4h93q13 0 17 -4t4 -17z" />
    <glyph glyph-name="I" unicode="I" horiz-adv-x="370" 
d="M328 75v-54q0 -13 -4 -17t-17 -4h-245q-13 0 -17 4t-4 17v54q0 13 4 17t17 4h55v493h-55q-13 0 -17 4t-4 17v54q0 13 4 17t17 4h245q13 0 17 -4t4 -17v-54q0 -13 -4 -17t-17 -4h-55v-493h55q13 0 17 -4t4 -17z" />
    <glyph glyph-name="J" unicode="J" horiz-adv-x="444" 
d="M369 664v-453q0 -50 -8 -88t-28 -71.5t-59.5 -51t-96.5 -17.5q-54 0 -92 19.5t-56 53t-25 65.5t-7 68q0 13 9 13h99q12 0 12 -14v-8.5v-11t0.5 -12t1.5 -13t3.5 -12.5t5.5 -13t7.5 -10.5t10.5 -9t14 -5.5t18 -2q16 0 27 5.5t17 13t8.5 23t3 26.5t0.5 33v397h-137
q-13 0 -17 4t-4 17v54q0 13 4 17t17 4h251q13 0 17 -4t4 -17z" />
    <glyph glyph-name="K" unicode="K" horiz-adv-x="574" 
d="M220 302v-281q0 -13 -4 -17t-17 -4h-93q-13 0 -17 4t-4 17v643q0 13 4 17t17 4h93q13 0 17 -4t4 -17v-280h2l220 305q8 13 17 13q2 0 18 -8l68 -34q13 -6 13 -12q0 -7 -7 -16l-213 -281l235 -292q7 -9 7 -16q0 -5 -13 -12l-80 -40q-16 -8 -18 -8q-9 0 -17 13l-230 306h-2
z" />
    <glyph glyph-name="L" unicode="L" horiz-adv-x="500" 
d="M478 94l-19 -76q-3 -12 -7 -15t-15 -3h-330q-13 0 -17 4t-4 17v643q0 13 4 17t17 4h93q13 0 17 -4t4 -17v-544h241q18 0 18 -13q0 -5 -2 -13z" />
    <glyph glyph-name="M" unicode="M" horiz-adv-x="704" 
d="M607 653l28 -632q0 -13 -4 -17t-17 -4h-88q-13 0 -17 4t-4 17l-8 339q-2 72 -2 160h-2q-16 -93 -35 -157l-61 -195q-3 -11 -6.5 -14t-15.5 -3h-62q-12 0 -15.5 3t-6.5 14l-58 195q-19 64 -35 157h-2q0 -88 -2 -160l-10 -339q-1 -13 -4.5 -17t-16.5 -4h-73q-13 0 -17.5 4
t-3.5 17l28 643q0 13 4 17t17 4h96q12 0 15 -2.5t7 -13.5l81 -252q22 -67 30 -120h2q7 45 32 120l85 252q4 11 7.5 13.5t16.5 2.5h96q12 0 15.5 -5.5t5.5 -26.5z" />
    <glyph glyph-name="N" unicode="N" horiz-adv-x="630" 
d="M547 664v-643q0 -13 -3.5 -17t-17.5 -4h-66q-16 0 -23 14l-183 341q-46 85 -57 136h-2q0 -2 1.5 -42.5t1.5 -67.5v-360q0 -13 -4 -17t-17 -4h-73q-13 0 -17 4t-4 17v643q0 13 4 17t17 4h82q11 0 14.5 -2t8.5 -11l165 -310q37 -70 59 -145h2q0 16 -1.5 66.5t-1.5 63.5v317
q0 13 4 17t17 4h73q13 0 17 -4t4 -17z" />
    <glyph glyph-name="O" unicode="O" horiz-adv-x="593" 
d="M545 342q0 -178 -65 -268.5t-184 -90.5t-184 90.5t-65 268.5q0 179 65.5 269.5t183.5 90.5t183.5 -91t65.5 -269zM296 88q107 0 107 254q0 255 -107 255t-107 -255q0 -254 107 -254z" />
    <glyph glyph-name="P" unicode="P" horiz-adv-x="519" 
d="M211 379h31q26 0 43.5 3.5t35.5 14t27 34t9 59.5q0 25 -6.5 42.5t-15 26.5t-24.5 14t-28 6t-31 1h-41v-201zM211 274v-253q0 -13 -4 -17t-17 -4h-93q-13 0 -17 4t-4 17v643q0 13 4 17t17 4h162q21 0 33.5 -0.5t36.5 -2.5t39.5 -7t37 -13.5t35 -22.5t26.5 -33t19 -47
t6 -62q0 -59 -20.5 -104t-54.5 -70t-72.5 -37t-80.5 -12h-53z" />
    <glyph glyph-name="Q" unicode="Q" horiz-adv-x="593" 
d="M571 -26l-77 -55q-4 -2 -9 -2q-29 0 -103 80q-20 -8 -39 -11q-23 -3 -46 -3q-119 0 -184 90.5t-65 268.5q0 179 65.5 269.5t183.5 90.5t183.5 -91t65.5 -269q0 -195 -73 -278q8 -7 35.5 -26.5t47 -35.5t19.5 -21q0 -3 -4 -7zM297 88q107 0 107 254q0 255 -107 255
t-107 -255q0 -254 107 -254z" />
    <glyph glyph-name="R" unicode="R" 
d="M214 388h26q28 0 46.5 3t37 13t27.5 31.5t9 54.5q0 31 -9 50.5t-27 27.5t-33 10t-40 2h-37v-192zM214 283v-262q0 -13 -4 -17t-17 -4h-93q-13 0 -17 4t-4 17v643q0 13 4 17t17 4h162q26 0 44.5 -1.5t49 -6.5t52.5 -18t43 -33t32.5 -54.5t11.5 -79.5q0 -37 -9 -67.5
t-19.5 -48t-30 -33.5t-28.5 -21.5t-27 -14.5l149 -267q8 -13 8 -19t-20 -12l-84 -24q-8 -2 -14 -2q-7 0 -23 31l-135 269h-48z" />
    <glyph glyph-name="S" unicode="S" horiz-adv-x="481" 
d="M437 626l-33 -66q-5 -10 -11 -10q-1 0 -21.5 11t-53.5 22t-65 11q-40 0 -67 -18.5t-27 -59.5q0 -34 29.5 -56.5t87 -49t88.5 -49.5q86 -64 86 -167q0 -95 -60.5 -153t-155.5 -58q-47 0 -98 12t-81 26t-30 22q0 1 5 16l23 66q3 10 11 10l24 -11q25 -11 64.5 -22t77.5 -11
q90 0 90 92q0 31 -19 54.5t-43 35t-68.5 32t-73.5 38.5q-43 26 -65 61t-22 94q0 102 62.5 153t157.5 51q44 0 91 -12t74.5 -26t27.5 -23q0 -5 -5 -15z" />
    <glyph glyph-name="T" unicode="T" horiz-adv-x="444" 
d="M285 565v-544q0 -13 -4 -17t-17 -4h-93q-13 0 -17 4t-4 17v544h-131q-11 0 -14 3.5t-3 13.5v86q0 10 3 13.5t14 3.5h412q25 0 25 -11q0 -4 -3 -14l-21 -79q-4 -16 -23 -16h-124z" />
    <glyph glyph-name="U" unicode="U" horiz-adv-x="630" 
d="M556 664v-432q0 -121 -53.5 -185t-187.5 -64t-187.5 64t-53.5 185v432q0 13 4 17t17 4h93q13 0 17 -4t4 -17v-432q0 -33 2.5 -53.5t12 -43t32.5 -33.5t59 -11t59 11t32.5 33.5t12 43t2.5 53.5v432q0 13 4 17t17 4h93q13 0 17 -4t4 -17z" />
    <glyph glyph-name="V" unicode="V" 
d="M535 649l-181 -641q-3 -11 -6.5 -14t-15.5 -3h-114q-12 0 -16 3t-6 14l-176 635q-5 17 -5 21q0 6 19 11l100 17q2 0 6.5 1t8.5 1q11 0 15 -20l85 -402q12 -57 25 -153h2q9 69 30 153l97 402q5 20 15 20q4 0 9 -1t6 -1l88 -11q19 -5 19 -11q0 -4 -5 -21z" />
    <glyph glyph-name="W" unicode="W" horiz-adv-x="796" 
d="M585 350l60 324q4 20 15 20q7 0 15 -2l75 -15q19 -5 19 -10t-5 -22l-146 -636q-3 -11 -7 -14.5t-15 -3.5h-86q-13 0 -16.5 3t-5.5 15l-66 336q-16 80 -23 173h-2q-7 -100 -25 -173l-81 -336q-3 -12 -6 -15t-16 -3h-86q-11 0 -15.5 3.5t-6.5 14.5l-130 637q0 2 -2 10.5
t-2 11.5q0 5 19 10l78 14q8 2 15 2q11 0 15 -20l60 -324q13 -69 22 -189h2q10 96 32 189l71 305q3 13 5 17.5t7.5 8.5t17.5 4h68q11 0 14.5 -5.5t7.5 -24.5l71 -305q15 -62 28 -189h2q9 110 23 189z" />
    <glyph glyph-name="X" unicode="X" horiz-adv-x="536" 
d="M507 17l-88 -24q-8 -2 -13 -2q-8 0 -18 20l-86 169q-23 45 -29 67h-2q-3 -14 -31 -68l-90 -171q-9 -17 -15 -17q-7 0 -15 2l-91 21q-21 5 -21 12q0 6 7 20l186 317l-169 276q-9 14 -9 19q0 8 18 12l100 22q8 2 13 2q7 0 13 -12l74 -148q24 -50 30 -76h2q6 30 28 76
l65 140q9 20 17 20q5 0 13 -2l88 -24q23 -7 23 -12q0 -2 -9 -20l-155 -273l178 -314q7 -10 7 -20q0 -6 -21 -12z" />
    <glyph glyph-name="Y" unicode="Y" horiz-adv-x="519" 
d="M328 281v-260q0 -13 -4 -17t-17 -4h-93q-13 0 -17 4t-4 17v260l-188 364q-7 12 -7 21q0 8 21 11l100 16q6 1 11 1q9 0 15 -13l81 -171q26 -56 40 -109h2q21 70 44 117l74 156q6 14 9 17t8 3t15 -2l85 -18q18 -4 18 -13q0 -2 -7 -16z" />
    <glyph glyph-name="Z" unicode="Z" horiz-adv-x="500" 
d="M482 96l-11 -78q-2 -13 -5.5 -15.5t-16.5 -2.5h-401q-10 0 -13.5 3t-3.5 14v83l269 465h-246q-14 0 -14 12q0 4 2 12l20 78q3 12 6.5 15t15.5 3h344q13 0 17 -3.5t4 -16.5v-90l-267 -455h288q14 -3 14 -12q0 -1 -0.5 -2.5t-1 -4t-0.5 -5.5z" />
    <glyph glyph-name="bracketleft" unicode="[" horiz-adv-x="426" 
d="M366 -118v-63q0 -13 -4 -17t-17 -4h-195q-14 0 -17.5 4t-3.5 17v877q0 14 3.5 17.5t17.5 3.5h195q13 0 17 -3.5t4 -17.5v-63q0 -13 -4 -17t-17 -4h-89v-709h89q13 0 17 -3.5t4 -17.5z" />
    <glyph glyph-name="backslash" unicode="\" horiz-adv-x="444" 
d="M143 706l326 -891q3 -9 3 -15q0 -12 -20 -12h-58q-20 0 -27 19l-325 889q-3 9 -3 16q0 12 18 12h59q21 0 27 -18z" />
    <glyph glyph-name="bracketright" unicode="]" horiz-adv-x="426" 
d="M297 696v-877q0 -13 -3.5 -17t-17.5 -4h-195q-13 0 -17 4t-4 17v63q0 14 4 17.5t17 3.5h89v709h-89q-13 0 -17 4t-4 17v63q0 14 4 17.5t17 3.5h195q14 0 17.5 -3.5t3.5 -17.5z" />
    <glyph glyph-name="asciicircum" unicode="^" 
d="M453 336l-60 -13q-3 -1 -8 -1q-10 0 -13 7l-94 237l-94 -237q-3 -7 -13 -7q-5 0 -8 1l-60 13q-10 2 -10 9q0 1 2.5 6t2.5 6l131 319q4 9 16 9h66q12 0 16 -9l131 -319q0 -1 2.5 -6t2.5 -6q0 -7 -10 -9z" />
    <glyph glyph-name="underscore" unicode="_" horiz-adv-x="500" 
d="M500 -75v-50h-500v50h500z" />
    <glyph glyph-name="grave" unicode="`" horiz-adv-x="335" 
d="M255 610l-16 -32q-7 -14 -13 -14q-4 0 -14 4l-176 70q-16 6 -16 13q0 4 5 14l31 61q8 14 14 14q2 0 14 -6l163 -96q13 -8 13 -14q0 -4 -5 -14z" />
    <glyph glyph-name="a" unicode="a" horiz-adv-x="481" 
d="M433 18l-76 -31q-1 0 -6 -2t-7 -2q-6 0 -15.5 20t-13.5 40q-18 -18 -27 -26t-39 -21t-64 -13q-69 0 -109.5 41.5t-40.5 112.5q0 40 13 71t38 48.5t49 28.5t59.5 15t54 5t47.5 1v31q0 38 -13.5 56t-57.5 18q-33 0 -78 -15t-46 -15q-7 0 -10 10l-20 61q-3 6 -3 12
q0 17 58.5 32t117.5 15q91 0 131.5 -40t40.5 -121v-193q0 -43 6.5 -70.5t13 -40.5t6.5 -19q0 -5 -9 -9zM296 114v110h-10h-14.5t-16.5 -0.5t-19.5 -2t-19 -4.5t-19 -7t-16.5 -10t-14 -14t-8.5 -18.5t-3.5 -23.5q0 -29 19 -48.5t47 -19.5q37 0 75 38z" />
    <glyph glyph-name="b" unicode="b" horiz-adv-x="537" 
d="M204 377v-273q25 -21 50 -21q109 0 109 171q0 157 -90 157q-7 0 -13.5 -1t-13 -4t-11 -5t-10 -6t-8 -6t-7.5 -6.5t-6 -5.5zM204 703v-236q59 44 111 44q49 0 84.5 -20.5t54.5 -56.5t27.5 -78.5t8.5 -94.5q0 -129 -54 -203.5t-153 -74.5q-10 0 -20 1.5t-16.5 3t-14.5 5.5
l-12 6t-10.5 7.5t-8 7l-7.5 7.5l-6 6q-16 -44 -29 -44q-6 0 -14 2l-80 20q-10 2 -10 8q0 3 7 18t11 34q4 20 4 62v559q0 14 16 17q2 1 3 1l84 17q2 0 7.5 1.5t6.5 1.5q10 0 10 -21z" />
    <glyph glyph-name="c" unicode="c" horiz-adv-x="426" 
d="M375 112l26 -66q3 -9 3 -10q0 -18 -47.5 -35.5t-93.5 -17.5q-106 0 -164 64.5t-58 189.5q0 128 61.5 201t171.5 73q44 0 93 -19.5t49 -41.5l-3 -9l-37 -65q-5 -5 -7 -5q-3 0 -16 10t-34.5 20t-44.5 10q-51 0 -74.5 -40.5t-23.5 -126.5q0 -85 23.5 -123t79.5 -38
q30 0 57 17t32 17q4 0 7 -5z" />
    <glyph glyph-name="d" unicode="d" horiz-adv-x="519" 
d="M327 118v273q-1 0 -6.5 3.5t-9.5 5.5t-12 5t-18 4.5t-22 1.5q-53 0 -71.5 -39t-18.5 -128q0 -87 18 -124t66 -37q21 0 37.5 7t21.5 12t15 16zM463 18l-76 -31q-1 0 -6 -2t-7 -2q-6 0 -15.5 20t-13.5 40q-64 -60 -132 -60q-84 0 -127.5 64t-43.5 180q0 141 49 212.5
t143 71.5q49 0 93 -30v205q0 14 16 17q2 1 3 1l84 17q2 0 7.5 1.5t6.5 1.5q10 0 10 -21v-546q0 -58 9 -94l9 -36q0 -5 -9 -9z" />
    <glyph glyph-name="e" unicode="e" horiz-adv-x="500" 
d="M416 113l25 -60q3 -5 3 -11q0 -20 -60 -39.5t-119 -19.5q-104 0 -164 63.5t-60 195.5q0 120 59.5 194.5t159.5 74.5q200 0 200 -273q0 -15 -4.5 -20t-18.5 -5h-269q0 -125 110 -125q32 0 60 8t45.5 16.5t21.5 8.5q7 0 11 -8zM168 306h157q0 112 -72 112q-74 0 -85 -107
v-5z" />
    <glyph glyph-name="f" unicode="f" horiz-adv-x="370" 
d="M234 401v-380q0 -13 -4 -17t-17 -4h-85q-13 0 -17 4t-4 17v380h-71q-13 0 -17 4t-4 17v51q0 13 4 17t17 4h71v41q0 189 160 189q38 0 80 -11t42 -25q0 -3 -2 -9l-18 -70q-3 -10 -9 -10q-2 0 -25 8.5t-45 8.5q-26 0 -38.5 -11.5t-15 -26t-2.5 -43.5v-41h114q17 0 17 -10
q0 -2 -2 -10l-14 -59q-3 -14 -19 -14h-96z" />
    <glyph glyph-name="g" unicode="g" horiz-adv-x="500" 
d="M442 343v-149q0 -34 2.5 -116t2.5 -109q0 -181 -193 -181q-59 0 -133 18.5t-74 34.5q0 8 4 20l19 61q3 10 11 10q3 0 25.5 -10t60 -19.5t76.5 -9.5q50 0 66 19.5t16 65.5q0 15 -0.5 30t-1.5 24.5t-1 11.5q-57 -38 -121 -38q-83 0 -127 65t-44 179q0 121 50 191t139 70
q13 0 25 -1.5t20.5 -3.5t18.5 -6t15 -6.5t13 -8t10.5 -7.5t9.5 -8l7 -6q4 12 15 29.5t20 17.5q4 0 10 -2l78 -29q9 -4 9 -9q0 -4 -7 -20t-14 -44.5t-7 -63.5zM322 140v236q-39 30 -79 30q-86 0 -86 -152q0 -148 80 -148q47 0 85 34z" />
    <glyph glyph-name="h" unicode="h" horiz-adv-x="537" 
d="M467 353v-339q0 -8 -2.5 -11t-11.5 -3h-99q-9 0 -11.5 3t-2.5 11v308q0 84 -56 84q-40 0 -85 -42v-350q0 -8 -2.5 -11t-11.5 -3h-99q-9 0 -11.5 3t-2.5 11v672q0 14 16 17q2 1 3 1l84 17q2 0 7.5 1.5t6.5 1.5q10 0 10 -21v-249q21 17 33 25.5t42 20t63 11.5q74 0 102 -42
t28 -116z" />
    <glyph glyph-name="i" unicode="i" horiz-adv-x="315" 
d="M234 480v-466q0 -8 -2.5 -11t-11.5 -3h-99q-9 0 -11.5 3t-2.5 11v387h-77q-9 0 -11.5 3t-2.5 11v65q0 8 2.5 11t11.5 3h190q9 0 11.5 -3t2.5 -11zM252 642q0 -34 -24 -58.5t-58 -24.5t-58.5 24.5t-24.5 58.5t24 58t59 24q34 0 58 -24t24 -58z" />
    <glyph glyph-name="j" unicode="j" horiz-adv-x="315" 
d="M240 480v-486q0 -118 -34.5 -173.5t-136.5 -55.5q-40 0 -75 8.5t-35 19.5q0 4 2 10l22 75q2 6 8 6q1 0 23 -7t41 -7q20 0 32.5 8.5t17.5 28.5t6.5 38t1.5 51v405h-78q-9 0 -11.5 3t-2.5 11v65q0 8 2.5 11t11.5 3h191q9 0 11.5 -3t2.5 -11zM257 642q0 -34 -24 -58.5
t-58 -24.5q-35 0 -59 24.5t-24 58.5t24 58t59 24q34 0 58 -24t24 -58z" />
    <glyph glyph-name="k" unicode="k" horiz-adv-x="519" 
d="M312 277l182 -219q9 -9 9 -15q0 -7 -5 -9l-85 -47q-8 -4 -12 -4q-5 0 -12 10l-183 239h-2v-218q0 -8 -2.5 -11t-11.5 -3h-99q-9 0 -11.5 3t-2.5 11v672q0 10 4.5 13t14.5 5l84 17q9 3 16 3q8 0 8 -21v-396l192 194q8 10 14 10q3 0 18 -11l50 -41q5 -5 5 -11q0 -4 -9 -13z
" />
    <glyph glyph-name="l" unicode="l" horiz-adv-x="296" 
d="M267 101l20 -82q0 -2 1 -4t1 -4q0 -10 -32.5 -19t-68.5 -9q-30 0 -52 7t-35 23.5t-20.5 31t-11 41.5t-4 43t-0.5 47v510q0 14 16 17q2 1 3 1l84 17q2 0 7.5 1.5t6.5 1.5q10 0 10 -21v-545q0 -21 1 -31t7.5 -19.5t19.5 -9.5q12 0 25 4.5t14 4.5q7 0 8 -6z" />
    <glyph glyph-name="m" unicode="m" horiz-adv-x="778" 
d="M713 353v-339q0 -8 -2.5 -11t-11.5 -3h-99q-9 0 -11.5 3t-2.5 11v308q0 84 -42 84q-44 0 -88 -41v-351q0 -8 -2.5 -11t-11.5 -3h-99q-9 0 -11.5 3t-2.5 11v308q0 84 -42 84q-44 0 -88 -41v-351q0 -8 -2.5 -11t-11.5 -3h-99q-9 0 -11.5 3t-2.5 11v302q0 48 -3 80
t-6.5 42.5t-6.5 19t-3 14.5q0 8 11 11l76 25q9 3 15 3q16 0 32 -69q26 22 37.5 31.5t45.5 23.5t70 14q34 0 63.5 -19.5t38.5 -49.5l9 8q9 8 11 9.5t11 8.5t13 9.5t13.5 8.5t16 8.5t17 6.5t20 5.5t21 3t23.5 1.5q65 0 90.5 -42t25.5 -116z" />
    <glyph glyph-name="n" unicode="n" horiz-adv-x="537" 
d="M467 365v-351q0 -8 -2.5 -11t-11.5 -3h-99q-9 0 -11.5 3t-2.5 11v308q0 84 -56 84q-44 0 -88 -41v-351q0 -8 -2.5 -11t-11.5 -3h-99q-9 0 -11.5 3t-2.5 11v302q0 48 -3 80t-6.5 42.5t-6.5 19t-3 14.5q0 8 11 11l76 25q9 3 15 3q16 0 32 -69q23 21 36.5 31.5t47 24
t69.5 13.5q53 0 91.5 -32.5t38.5 -113.5z" />
    <glyph glyph-name="o" unicode="o" horiz-adv-x="519" 
d="M259 83q48 0 65 41.5t17 122.5q0 79 -17 121.5t-65 42.5t-65 -42.5t-17 -121.5q0 -80 17 -122t65 -42zM476 247q0 -121 -58 -192.5t-159 -71.5t-159 71.5t-58 192.5t58 192.5t159 71.5q100 0 158.5 -71.5t58.5 -192.5z" />
    <glyph glyph-name="p" unicode="p" horiz-adv-x="537" 
d="M203 373v-271q34 -19 73 -19q51 0 69.5 38t18.5 130q0 81 -18 120.5t-63 39.5q-39 0 -80 -38zM203 9v-183q0 -10 -4.5 -13t-14.5 -5l-84 -17q-9 -3 -17 -3q-7 0 -7 21v507q0 48 -3 80t-6.5 42.5t-6.5 19t-3 14.5q0 8 11 11l76 25q9 3 15 3q14 0 31 -52q54 52 128 52
q84 0 128.5 -65t44.5 -190q0 -273 -184 -273q-54 0 -104 26z" />
    <glyph glyph-name="q" unicode="q" horiz-adv-x="519" 
d="M323 102v271q-36 33 -80 33q-42 0 -59.5 -39t-17.5 -116q0 -91 18 -129.5t66 -38.5q39 0 73 19zM450 314v-488q0 -15 -19 -18l-84 -17q-9 -3 -17 -3q-7 0 -7 21v200q-50 -26 -100 -26q-184 0 -184 273q0 125 44.5 190t128.5 65q35 0 64.5 -10.5t38.5 -18t26 -22.5
q1 9 14 30t23 21l15 -3l74 -25q12 -5 12 -12q0 -2 -7.5 -16.5t-14.5 -50.5t-7 -90z" />
    <glyph glyph-name="r" unicode="r" horiz-adv-x="352" 
d="M197 348v-334q0 -8 -2.5 -11t-11.5 -3h-99q-9 0 -11.5 3t-2.5 11v302q0 66 -13 108t-13 43q0 5 9 9l76 31q1 0 6 2t7 2q9 0 21 -26.5t16 -52.5q1 1 9 11.5t12 14.5l14 14t18 15.5t19.5 11.5t24.5 9t27 3q22 0 40 -6.5t18 -16.5q0 -6 -2 -10l-31 -84q-3 -9 -8 -9
q-1 0 -17 5.5t-30 5.5q-31 0 -76 -48z" />
    <glyph glyph-name="s" unicode="s" horiz-adv-x="426" 
d="M377 449l-23 -55q-4 -9 -8 -9q-1 0 -7 2.5t-17 6.5t-24.5 8t-31.5 6.5t-36 2.5q-66 0 -66 -48q0 -24 23.5 -37t67 -27.5t70.5 -32.5q67 -45 67 -122q0 -70 -46.5 -115.5t-124.5 -45.5q-56 0 -122 22.5t-66 42.5q0 2 2.5 6.5t2.5 6.5l22 57q4 9 8 9l24 -11
q23 -11 57.5 -22t61.5 -11q61 0 61 50q0 26 -25 41t-70 30t-69 31q-59 39 -59 113q0 70 49 116.5t128 46.5q48 0 102 -16t54 -33q0 -3 -5 -13z" />
    <glyph glyph-name="t" unicode="t" horiz-adv-x="370" 
d="M346 111l20 -82q0 -2 1 -4t1 -4q0 -14 -45 -26t-96 -12q-24 0 -42.5 4t-32 13.5t-23 19t-15.5 26t-9.5 28.5t-4.5 33.5t-1.5 33.5t-0.5 35v225h-71q-9 0 -11.5 3t-2.5 11v65q0 8 2.5 11t11.5 3h71v126q0 10 3 13.5t13 4.5l88 12q1 0 5.5 0.5t7.5 0.5q10 0 10 -17v-140
h114q17 0 17 -11q0 -4 -1 -8l-13 -59q-2 -10 -5.5 -12.5t-12.5 -2.5h-99v-242q0 -21 1 -31t9 -20t24 -10q23 0 49 9.5t30 9.5q6 0 8 -6z" />
    <glyph glyph-name="u" unicode="u" horiz-adv-x="537" 
d="M473 11l-76 -25q-9 -3 -15 -3q-16 0 -32 59q-66 -59 -153 -59q-53 0 -91.5 32.5t-38.5 113.5v344q0 5 1 8t4.5 5t5.5 2.5t8 2.5l84 17q2 0 8 1.5t8 1.5q8 0 8 -21v-318q0 -84 56 -84q43 0 88 31v354q0 5 1 8t4.5 5t5.5 2.5t8 2.5l84 17q1 0 8 1.5t9 1.5q7 0 7 -21v-312
q0 -48 3 -80t6.5 -42.5t6.5 -19t3 -14.5q0 -8 -11 -11z" />
    <glyph glyph-name="v" unicode="v" horiz-adv-x="463" 
d="M452 465l-163 -461q-3 -9 -6 -11t-13 -2h-82q-10 0 -13 2t-6 11l-159 461q-4 7 -5 17q0 8 22 11l83 9q2 0 8.5 0.5t7.5 0.5q8 0 14 -20l61 -225q21 -75 32 -145h2q13 75 34 145l68 225q5 20 14 20q1 0 7.5 -0.5t8.5 -0.5l68 -9q22 -3 22 -11q-1 -10 -5 -17z" />
    <glyph glyph-name="w" unicode="w" horiz-adv-x="667" 
d="M144 483l43 -216q12 -59 22 -169h2q2 78 19 156l46 224q2 11 5 13.5t14 2.5h89q11 0 14 -2.5t5 -13.5l44 -224q18 -94 19 -156h2q10 115 22 169l48 216q4 20 14 20q2 0 8.5 -0.5t7.5 -0.5l68 -9q22 -3 22 -10q0 -2 -1 -4.5t-2 -7t-2 -7.5l-139 -459q-3 -10 -6 -12t-13 -2
h-78q-15 0 -18 16l-49 254q-8 43 -13 112h-2q-4 -56 -18 -112l-60 -254q-3 -16 -18 -16h-78q-10 0 -13 2t-6 12l-120 459q-4 14 -5 19q0 7 22 10l75 9q1 0 8 0.5t9 0.5q9 0 13 -20z" />
    <glyph glyph-name="x" unicode="x" horiz-adv-x="463" 
d="M305 249l143 -197q8 -13 8 -14q0 -7 -13 -13l-76 -29q-13 -5 -17 -5q-2 0 -15 18l-65 92q-7 10 -21 33t-18 28q-4 -5 -18 -28t-21 -33l-65 -92q-13 -18 -15 -18q-4 0 -17 5l-76 29q-13 5 -13 13q0 1 8 14l146 198l-131 192q-8 13 -8 14q0 7 13 13l76 29q2 0 8.5 2.5
t8.5 2.5t4 -2t5.5 -7.5t5.5 -8.5l52 -87q8 -13 19 -32.5t16 -28.5q6 10 12.5 19.5t14.5 21t14 20.5l58 87q2 2 3.5 4.5t2.5 4.5l2 4t2 3t2.5 1.5t2.5 0.5q2 0 8.5 -2.5t8.5 -2.5l76 -29q13 -6 13 -13q0 -1 -8 -14z" />
    <glyph glyph-name="y" unicode="y" horiz-adv-x="481" 
d="M283 241l53 241q6 21 17 21q2 0 9.5 -0.5t8.5 -0.5l70 -9q22 -3 22 -10q0 -2 -1 -4.5t-2 -6.5t-2 -7l-98 -361q-49 -177 -67 -222q-37 -94 -147 -94q-41 0 -88.5 16t-47.5 30q0 4 4 12l30 65q3 7 9 7q1 0 30 -12.5t55 -12.5q36 0 52.5 18t27.5 56l10 33h-42q-14 0 -18 13
l-153 452q-4 7 -5 17q0 8 22 11l83 9q2 0 8.5 0.5t7.5 0.5q8 0 14 -20l65 -242q22 -83 38 -173h2q7 58 33 173z" />
    <glyph glyph-name="z" unicode="z" horiz-adv-x="426" 
d="M410 84l-29 -71q-5 -13 -14 -13h-333q-10 0 -10 10v75l230 304h-202q-7 0 -7 13v78q0 14 14 14h317q17 0 17 -10v-78l-226 -301h228q19 0 19 -10q0 -3 -4 -11z" />
    <glyph glyph-name="braceleft" unicode="{" horiz-adv-x="444" 
d="M388 -117v-64q0 -12 -3.5 -16.5t-14.5 -4.5q-98 0 -149 43t-51 141v149q0 38 -16 55t-52 17h-18q-13 0 -16.5 4t-3.5 17v66q0 13 3.5 17t16.5 4h18q36 0 52 17t16 55v150q0 98 51 141t149 43q11 0 14.5 -4.5t3.5 -16.5v-64q0 -12 -3.5 -16t-16.5 -4q-16 0 -25 -1.5
t-21.5 -7.5t-18.5 -21.5t-6 -39.5v-164q0 -52 -17 -77t-56 -43q39 -19 56 -44t17 -78v-163q0 -24 6 -39.5t18.5 -21.5t21.5 -7.5t25 -1.5q13 0 16.5 -4t3.5 -16z" />
    <glyph glyph-name="bar" unicode="|" horiz-adv-x="400" 
d="M250 733v-966q0 -11 -3 -14t-14 -3h-66q-11 0 -14 3t-3 14v966q0 11 3 14t14 3h66q11 0 14 -3t3 -14z" />
    <glyph glyph-name="braceright" unicode="}" horiz-adv-x="444" 
d="M274 131v-149q0 -98 -51 -141t-149 -43q-11 0 -14.5 4.5t-3.5 16.5v64q0 12 3.5 16t16.5 4q16 0 25 1.5t21.5 7.5t18.5 21.5t6 39.5v163q0 53 17 78t56 44q-39 18 -56 43t-17 77v164q0 24 -6 39.5t-18.5 21.5t-21.5 7.5t-25 1.5q-13 0 -16.5 4t-3.5 16v64q0 12 3.5 16.5
t14.5 4.5q98 0 149 -43t51 -141v-150q0 -38 16 -55t52 -17h18q13 0 16.5 -4t3.5 -17v-66q0 -13 -3.5 -17t-16.5 -4h-18q-36 0 -52 -17t-16 -55z" />
    <glyph glyph-name="asciitilde" unicode="~" 
d="M470 342h60q0 -28 -4.5 -55t-16.5 -59.5t-39 -52.5t-66 -20q-51 0 -120 41l-38 22q-75 46 -108 46q-45 0 -54 -88q-1 -4 -1 -6h-60q0 28 4.5 55t16.5 59.5t39 52.5t66 20q51 0 120 -41l38 -22q75 -46 108 -46q45 0 54 88q1 4 1 6z" />
    <glyph glyph-name="uni00A0" unicode="&#xa0;" horiz-adv-x="296" 
 />
    <glyph glyph-name="exclamdown" unicode="&#xa1;" horiz-adv-x="352" 
d="M225 216l22 -391q1 -17 1 -20q0 -13 -20 -13h-107q-18 0 -18 13q0 3 1 20l22 391q1 14 5 17t16 3h57q12 0 16 -3t5 -17zM260 426q0 -34 -25 -59t-59 -25q-36 0 -60.5 25t-24.5 59q0 36 24.5 60.5t60.5 24.5q35 0 59.5 -25t24.5 -60z" />
    <glyph glyph-name="cent" unicode="&#xa2;" 
d="M297 176v325q-34 -10 -54 -46t-20 -123q0 -136 74 -156zM357 71v-51q0 -13 -4 -16.5t-17 -3.5h-18q-13 0 -17 3.5t-4 16.5v51q-35 3 -67 15.5t-64 39.5t-51 79t-19 122q0 59 13 105.5t33 75t48 48.5t53.5 28.5t53.5 12.5v54q0 13 3.5 17t17.5 4h18q13 0 17 -4t4 -17v-54
q22 0 67.5 -14t45.5 -29q0 -6 -3 -9l-38 -70q-2 -4 -5 -4t-28 15t-39 15v-325q18 3 33 8.5t22.5 9.5t8.5 4q5 0 7 -5l28 -70l3 -9q0 -16 -38 -28.5t-64 -14.5z" />
    <glyph glyph-name="sterling" unicode="&#xa3;" 
d="M543 85l-17 -68q-4 -17 -23 -17h-435q-14 0 -17.5 4t-3.5 17v67q0 13 4 16.5t17 3.5h70q13 65 13 87q0 28 -14 101h-80q-13 0 -16.5 4t-3.5 17v51q0 13 3.5 17t16.5 4h61q-13 56 -13 92q0 97 62.5 150.5t163.5 53.5q66 0 122 -21t56 -40q0 -7 -2 -9l-33 -63
q-5 -10 -13 -10q-2 0 -44.5 19t-82.5 19q-49 0 -79 -27t-30 -80q0 -36 16 -84h137q13 0 16.5 -4t3.5 -17v-51q0 -13 -3.5 -17t-16.5 -4h-121q14 -58 14 -101q0 -37 -9 -87h263q20 0 20 -11q0 -4 -2 -12z" />
    <glyph glyph-name="currency" unicode="&#xa4;" 
d="M72 108l-30 30l67 67q-47 51 -47 136q0 79 48 138l-70 70l32 31l69 -68q64 46 137 46q72 0 136 -46l69 68l32 -31l-70 -70q48 -49 48 -138q0 -83 -47 -136l67 -67l-30 -30l-66 66q-63 -47 -139 -47q-80 0 -140 47zM278 517q-72 0 -123.5 -52t-51.5 -124t51.5 -122.5
t123.5 -50.5q71 0 122.5 51t51.5 122q0 72 -51 124t-123 52z" />
    <glyph glyph-name="yen" unicode="&#xa5;" horiz-adv-x="537" 
d="M331 246v-225q0 -13 -4 -17t-17 -4h-73q-13 0 -17 4t-4 17v225h-174q-13 0 -16.5 3.5t-3.5 16.5v12q0 13 3.5 16.5t16.5 3.5h163l-25 51h-137q-13 0 -17 4t-4 16v12q0 13 4 16.5t17 3.5h113l-122 243q-7 10 -7 21q0 6 21 11l85 16q1 0 6 1t9 1q7 0 15 -20l55 -140
q40 -102 58 -168h2q14 61 56 168l56 140q6 15 8 17.5t7 2.5t9 -1t6 -1l69 -15q21 -5 21 -12q0 -10 -7 -20l-115 -244h107q13 0 16.5 -3.5t3.5 -16.5v-12q0 -13 -3.5 -16.5t-16.5 -3.5h-132l-23 -51h155q13 0 16.5 -3.5t3.5 -16.5v-12q0 -13 -3.5 -16.5t-16.5 -3.5h-164z" />
    <glyph glyph-name="brokenbar" unicode="&#xa6;" horiz-adv-x="400" 
d="M250 658v-316q0 -10 -3 -13.5t-14 -3.5h-66q-10 0 -13.5 3.5t-3.5 13.5v316q0 10 3.5 13.5t13.5 3.5h66q10 0 13.5 -3.5t3.5 -13.5zM250 158v-316q0 -10 -3 -13.5t-14 -3.5h-66q-10 0 -13.5 3.5t-3.5 13.5v316q0 11 3.5 14t13.5 3h66q10 0 13.5 -3t3.5 -14z" />
    <glyph glyph-name="section" unicode="&#xa7;" 
d="M444 632l-29 -56q-4 -8 -11 -8q-2 0 -42 20.5t-74 20.5q-29 0 -48 -11.5t-19 -33.5q0 -19 24.5 -35t75 -39t82.5 -45q75 -51 75 -128q0 -94 -99 -145q22 -13 36 -24t29 -38.5t15 -62.5q0 -70 -55 -119t-133 -49q-63 0 -127.5 26t-64.5 45q0 6 3 11l32 61q4 8 9 8
q4 0 25 -14t55.5 -27.5t70.5 -13.5q27 0 42.5 14.5t15.5 38.5q0 19 -15 35t-34 26t-50 23q-3 1 -5.5 2t-4.5 2q-31 14 -52.5 26t-45.5 32t-36 47.5t-12 61.5t9.5 60.5t28 43t32 25t34.5 17.5q-15 9 -23.5 15.5t-22.5 20.5t-21.5 34.5t-7.5 46.5q0 72 54 114t129 42
q58 0 108.5 -21.5t50.5 -37.5q0 -5 -4 -11zM289 219q15 8 22.5 13.5t20.5 16.5t19.5 24.5t6.5 28.5q0 10 -4.5 19.5t-10 16t-17 14.5t-17.5 11.5t-19.5 10.5t-16.5 9q-53 -31 -67 -54q-9 -15 -9 -30q0 -9 3 -17t10.5 -15.5t13 -12.5t17 -11.5t16.5 -9t18 -8t14 -6.5z" />
    <glyph glyph-name="dieresis" unicode="&#xa8;" horiz-adv-x="335" 
d="M149 652q0 -28 -20.5 -48.5t-48.5 -20.5t-48.5 20.5t-20.5 48.5q0 29 20 49t49 20q28 0 48.5 -20.5t20.5 -48.5zM326 652q0 -28 -20 -48.5t-49 -20.5t-49 20.5t-20 48.5q0 29 20 49t49 20t49 -20.5t20 -48.5z" />
    <glyph glyph-name="copyright" unicode="&#xa9;" 
d="M278 232q-98 0 -166.5 69t-68.5 166t69 166t166 69t166 -69t69 -166t-69 -166t-166 -69zM78 467q0 -83 59 -141.5t141 -58.5t141 58.5t59 141.5t-59 141.5t-141 58.5t-141 -58.5t-59 -141.5zM358 408l26 -32q-43 -39 -95 -39q-55 0 -95.5 38.5t-40.5 95.5q0 56 41 95
t95 39q52 0 95 -39l-26 -33q-34 31 -69 31t-64 -25.5t-29 -67.5q0 -43 28.5 -68t61.5 -25q39 0 72 30z" />
    <glyph glyph-name="ordfeminine" unicode="&#xaa;" horiz-adv-x="444" 
d="M346 356l-54 -18q-15 -5 -16 -5q-4 0 -10 13.5t-8 25.5q-1 -1 -4 -4.5t-5 -5t-5.5 -4.5t-6 -5t-7 -5t-8.5 -5t-9.5 -4t-11 -3t-12.5 -2t-14 -1q-47 0 -77 27.5t-30 74.5q0 24 8.5 43t19 31t31 21t32.5 12.5t36 6t30 3t24 0.5v17q0 26 -9 36t-38 10q-25 0 -55 -7.5
t-33 -7.5q-4 0 -6 6l-14 41q-2 6 -2 7q0 11 39 21t82 10q73 0 99.5 -28.5t26.5 -78.5v-117q0 -30 2.5 -49t6 -25.5t6 -11.5t2.5 -10q0 -7 -10 -9zM249 417v80q-91 0 -91 -56q0 -20 12 -31.5t31 -11.5q26 0 48 19z" />
    <glyph glyph-name="guillemotleft" unicode="&#xab;" horiz-adv-x="593" 
d="M289 37l-50 -31q-12 -6 -14 -6q-5 0 -14 12l-169 224q-6 8 -6 14t6 14l169 219q9 11 14 11q2 0 14 -6l50 -31q13 -8 13 -15q0 -5 -7 -14l-124 -184l124 -178q6 -10 6 -14q0 -8 -12 -15zM524 37l-50 -31q-12 -6 -14 -6q-5 0 -14 12l-169 224q-6 8 -6 14t6 14l169 219
q9 11 14 11q2 0 14 -6l50 -31q13 -8 13 -15q0 -5 -7 -14l-124 -184l124 -178q6 -10 6 -14q0 -8 -12 -15z" />
    <glyph glyph-name="logicalnot" unicode="&#xac;" 
d="M505 369v-225q0 -10 -3.5 -13.5t-13.5 -3.5h-66q-10 0 -13.5 3.5t-3.5 13.5v142h-338q-11 0 -14 3t-3 14v66q0 10 3.5 13.5t13.5 3.5h421q10 0 13.5 -3t3.5 -14z" />
    <glyph glyph-name="uni00AD" unicode="&#xad;" horiz-adv-x="370" 
d="M328 292v-73q0 -13 -4 -17t-17 -4h-244q-13 0 -17 4t-4 17v73q0 14 4 17.5t17 3.5h244q13 0 17 -3.5t4 -17.5z" />
    <glyph glyph-name="registered" unicode="&#xae;" 
d="M513 467q0 -97 -69 -166t-166 -69t-166 69t-69 166t69 166t166 69t166 -69t69 -166zM278 267q82 0 141 58.5t59 141.5t-59 141.5t-141 58.5t-141 -58.5t-59 -141.5t59 -141.5t141 -58.5zM330 456l46 -107h-50l-39 100h-53v-100h-45v248h83q29 0 48.5 -4.5t36 -23
t16.5 -52.5q0 -20 -9 -34t-14 -16.5t-20 -10.5zM234 489h54q38 0 38 32q0 33 -42 33h-50v-65z" />
    <glyph glyph-name="macron" unicode="&#xaf;" horiz-adv-x="335" 
d="M290 673v-42q0 -13 -3.5 -16.5t-16.5 -3.5h-205q-12 0 -16 3.5t-4 16.5v42q0 13 3.5 16.5t16.5 3.5h205q13 0 16.5 -3.5t3.5 -16.5z" />
    <glyph glyph-name="degree" unicode="&#xb0;" 
d="M435 544q0 -65 -46.5 -111t-111.5 -46t-111 46t-46 111q0 66 46.5 112t110.5 46q66 0 112 -46t46 -112zM277 469q32 0 54 22t22 53q0 32 -22.5 54t-53.5 22t-53 -22t-22 -54t22 -53.5t53 -21.5z" />
    <glyph glyph-name="plusminus" unicode="&#xb1;" 
d="M505 23v-66q0 -11 -3.5 -14t-13.5 -3h-420q-10 0 -13.5 3t-3.5 14v66q0 10 3.5 13.5t13.5 3.5h420q10 0 13.5 -3t3.5 -14zM328 207v-114q0 -11 -3 -14t-14 -3h-66q-11 0 -14 3t-3 14v114h-160q-10 0 -13.5 3.5t-3.5 13.5v66q0 10 3.5 13.5t13.5 3.5h160v160q0 11 3 14
t14 3h66q11 0 14 -3t3 -14v-160h160q10 0 13.5 -3.5t3.5 -13.5v-66q0 -10 -3.5 -13.5t-13.5 -3.5h-160z" />
    <glyph glyph-name="twosuperior" unicode="&#xb2;" horiz-adv-x="370" 
d="M309 324v-39q0 -11 -3.5 -14.5t-14.5 -3.5h-231q-14 0 -14 16q0 62 20 100q16 30 44.5 54.5t52.5 38t42.5 35t18.5 47.5q0 45 -46 45q-20 0 -33 -9t-17.5 -20.5t-10.5 -20.5t-13 -9q-6 0 -12 3l-38 13q-11 2 -11 13q0 30 37.5 67.5t104.5 37.5q59 0 94 -30t35 -87
q0 -26 -6.5 -47t-22.5 -38.5t-27 -27t-36 -26.5t-33 -23q-41 -31 -43 -57h145q11 0 14.5 -3.5t3.5 -14.5z" />
    <glyph glyph-name="threesuperior" unicode="&#xb3;" horiz-adv-x="370" 
d="M89 574l-34 29q-6 4 -6 10q0 9 14 23.5t43.5 28t63.5 13.5q57 0 94 -29.5t37 -79.5q0 -11 -1 -20t-4.5 -16.5t-5.5 -12.5t-8.5 -11.5t-9 -8.5t-11 -8.5t-10.5 -8.5q15 -9 21 -13t18.5 -16t18 -29.5t5.5 -41.5q0 -58 -44 -92t-107 -34q-39 0 -83 12t-44 26q0 1 0.5 3
t1.5 4.5t1 3.5l12 40q3 10 11 10q2 0 33 -12t61 -12q68 0 68 55q0 53 -77 53h-19q-11 0 -15 3.5t-4 13.5v40q0 11 4 14.5t15 3.5h20q63 0 63 48q0 18 -12.5 29t-32.5 11q-19 0 -32.5 -8.5t-21.5 -17t-13 -8.5t-10 5z" />
    <glyph glyph-name="acute" unicode="&#xb4;" horiz-adv-x="335" 
d="M299 638l-176 -70q-10 -4 -14 -4q-6 0 -13 14l-16 32q-5 10 -5 14q0 6 13 14l163 96q12 6 14 6q6 0 14 -14l31 -61q5 -10 5 -14q0 -7 -16 -13z" />
    <glyph glyph-name="mu" unicode="&#xb5;" horiz-adv-x="537" 
d="M194 -7v-167q0 -10 -4.5 -13t-14.5 -5l-84 -17q-9 -3 -16 -3q-8 0 -8 21v664q0 5 1 8t4.5 5t5.5 2.5t8 2.5l84 17q2 0 8 1.5t8 1.5q8 0 8 -21v-318q0 -84 56 -84q43 0 88 31v354q0 5 1 8t4.5 5t5.5 2.5t8 2.5l84 17q1 0 8 1.5t8 1.5q8 0 8 -21v-312q0 -48 3 -80
t6.5 -42.5t6.5 -19t3 -14.5q0 -8 -11 -11l-76 -25q-9 -3 -15 -3q-16 0 -32 59q-65 -59 -114 -59q-20 0 -42 10z" />
    <glyph glyph-name="paragraph" unicode="&#xb6;" horiz-adv-x="667" 
d="M574 595v-761q0 -13 -3.5 -16.5t-16.5 -3.5h-60q-13 0 -16.5 3.5t-3.5 16.5v761h-68v-761q0 -13 -3.5 -16.5t-16.5 -3.5h-60q-13 0 -16.5 3.5t-3.5 16.5v327q-32 -8 -61 -8q-105 0 -161.5 70t-56.5 194q0 72 16.5 124t40.5 79t63.5 42.5t72 19t79.5 3.5h332q13 0 17 -3.5
t4 -16.5v-50q0 -13 -4 -16.5t-17 -3.5h-57zM306 251v344q-24 0 -39.5 -1.5t-35 -6.5t-32 -16t-23.5 -28.5t-16.5 -46.5t-5.5 -67q0 -96 25.5 -139.5t88.5 -43.5q16 0 38 5z" />
    <glyph glyph-name="periodcentered" unicode="&#xb7;" 
d="M354 256q0 -31 -22.5 -53.5t-53.5 -22.5q-32 0 -54.5 22.5t-22.5 53.5q0 32 22.5 54.5t54.5 22.5q31 0 53.5 -22.5t22.5 -54.5z" />
    <glyph glyph-name="cedilla" unicode="&#xb8;" horiz-adv-x="335" 
d="M192 0l-4 -52q25 0 48 -17.5t23 -54.5q0 -40 -29 -64t-80 -24q-73 0 -73 18q0 4 2 12l7 34q2 8 6 8l14 -4q14 -3 28 -3t23 6.5t9 16.5q0 23 -43 23q-19 0 -19 11q0 7 2 21l5 69h81z" />
    <glyph glyph-name="onesuperior" unicode="&#xb9;" horiz-adv-x="370" 
d="M306 315v-30q0 -11 -4 -14.5t-15 -3.5h-188q-11 0 -15 3.5t-4 14.5v30q0 10 4 13.5t15 3.5h56v231l-52 -26q-8 -4 -12 -4q-6 0 -13 11l-17 26q-5 8 -5 11q0 4 11 13l115 74h45q11 0 14.5 -3.5t3.5 -13.5v-319h42q11 0 15 -3.5t4 -13.5z" />
    <glyph glyph-name="ordmasculine" unicode="&#xba;" horiz-adv-x="444" 
d="M371 509q0 -80 -39.5 -128t-109.5 -48t-109.5 47.5t-39.5 128.5q0 80 39.5 128t109.5 48t109.5 -48t39.5 -128zM222 408q30 0 39.5 26t9.5 75t-10 75t-39 26t-39 -26t-10 -75t9.5 -75t39.5 -26z" />
    <glyph glyph-name="guillemotright" unicode="&#xbb;" horiz-adv-x="593" 
d="M551 236l-169 -224q-9 -12 -14 -12q-2 0 -14 6l-50 31q-12 7 -12 15q0 4 6 14l124 178l-124 184q-7 9 -7 14q0 7 13 15l50 31q12 6 14 6q5 0 14 -11l169 -219q6 -8 6 -14t-6 -14zM316 236l-169 -224q-9 -12 -14 -12q-2 0 -14 6l-50 31q-12 7 -12 15q0 4 6 14l124 178
l-124 184q-7 9 -7 14q0 7 13 15l50 31q12 6 14 6q5 0 14 -11l169 -219q6 -8 6 -14t-6 -14z" />
    <glyph glyph-name="onequarter" unicode="&#xbc;" horiz-adv-x="870" 
d="M778 77v-69q0 -11 -3.5 -14.5t-14.5 -3.5h-53q-11 0 -15 3.5t-4 14.5v69h-151q-12 0 -15.5 3t-3.5 14v63l160 244q8 10 13 10q2 0 6 -1.5t5 -1.5l38 -14q14 -7 14 -13q0 -2 -5 -12l-144 -222h83l10 89q1 10 5 13t14 3h43q10 0 14 -4t4 -14v-89h32q12 0 15.5 -3t3.5 -15
v-33q0 -10 -4 -13.5t-15 -3.5h-32zM616 659l-236 -659q-6 -17 -23 -17h-51q-21 0 -21 10q0 4 4 14l237 662q6 16 23 16h51q19 0 19 -12q0 -5 -3 -14zM299 315v-30q0 -11 -4 -14.5t-15 -3.5h-188q-11 0 -15 3.5t-4 14.5v30q0 10 4 13.5t15 3.5h56v231l-52 -26q-8 -4 -12 -4
q-6 0 -13 11l-17 26q-5 8 -5 11q0 4 11 13l115 74h45q11 0 14.5 -3.5t3.5 -13.5v-319h42q11 0 15 -3.5t4 -13.5z" />
    <glyph glyph-name="onehalf" unicode="&#xbd;" horiz-adv-x="870" 
d="M576 659l-236 -659q-6 -17 -23 -17h-51q-21 0 -21 10q0 4 4 14l237 662q6 16 23 16h51q19 0 19 -12q0 -5 -3 -14zM291 315v-30q0 -11 -4 -14.5t-15 -3.5h-188q-11 0 -15 3.5t-4 14.5v30q0 10 4 13.5t15 3.5h56v231l-52 -26q-8 -4 -12 -4q-6 0 -13 11l-17 26q-5 8 -5 11
q0 4 11 13l115 74h45q11 0 14.5 -3.5t3.5 -13.5v-319h42q11 0 15 -3.5t4 -13.5zM802 57v-39q0 -11 -3.5 -14.5t-14.5 -3.5h-231q-14 0 -14 16q0 62 20 100q16 30 44.5 54.5t52.5 38t42.5 35t18.5 47.5q0 45 -46 45q-20 0 -33 -9t-17.5 -20.5t-10.5 -20.5t-13 -9q-6 0 -12 3
l-38 13q-11 2 -11 13q0 30 37.5 67.5t104.5 37.5q59 0 94 -30t35 -87q0 -26 -6.5 -47t-22.5 -38.5t-27 -27t-36 -26.5t-33 -23q-41 -31 -43 -57h145q11 0 14.5 -3.5t3.5 -14.5z" />
    <glyph glyph-name="threequarters" unicode="&#xbe;" horiz-adv-x="870" 
d="M616 659l-236 -659q-6 -17 -23 -17h-51q-21 0 -21 10q0 4 4 14l237 662q6 16 23 16h51q19 0 19 -12q0 -5 -3 -14zM96 574l-34 29q-6 4 -6 10q0 9 14 23.5t43.5 28t63.5 13.5q57 0 94 -29.5t37 -79.5q0 -11 -1 -20t-4.5 -16.5t-5.5 -12.5t-8.5 -11.5t-9 -8.5t-11 -8.5
t-10.5 -8.5q15 -9 21 -13t18.5 -16t18 -29.5t5.5 -41.5q0 -58 -44 -92t-107 -34q-39 0 -83 12t-44 26q0 1 0.5 3t1.5 4.5t1 3.5l12 40q3 10 11 10q2 0 33 -12t61 -12q68 0 68 55q0 53 -77 53h-19q-11 0 -15 3.5t-4 13.5v40q0 11 4 14.5t15 3.5h20q63 0 63 48q0 18 -12.5 29
t-32.5 11q-19 0 -32.5 -8.5t-21.5 -17t-13 -8.5t-10 5zM784 77v-69q0 -11 -3.5 -14.5t-14.5 -3.5h-53q-11 0 -15 3.5t-4 14.5v69h-151q-12 0 -15.5 3t-3.5 14v63l160 244q8 10 13 10q2 0 6 -1.5t5 -1.5l38 -14q14 -7 14 -13q0 -2 -5 -12l-144 -222h83l10 89q1 10 5 13t14 3
h43q10 0 14 -4t4 -14v-87h32q12 0 15.5 -3t3.5 -15v-35q0 -10 -4 -13.5t-15 -3.5h-32z" />
    <glyph glyph-name="questiondown" unicode="&#xbf;" horiz-adv-x="500" 
d="M413 -70l26 -68q2 -4 2 -11q0 -19 -66.5 -39t-119.5 -20q-90 0 -143 52t-53 135q0 37 12 67t27 47.5t41.5 33t41 21t40.5 14.5v68q0 14 3.5 17.5t17.5 3.5h73q13 0 17 -3.5t4 -17.5v-125q0 -7 -3.5 -12t-11.5 -9t-14.5 -6.5t-20.5 -6.5l-21 -6q-71 -24 -71 -87
q0 -71 83 -71q27 0 56 8.5t47.5 16.5t21.5 8q9 0 11 -10zM360 427q0 -36 -24.5 -60.5t-60.5 -24.5q-35 0 -59.5 25t-24.5 60q0 34 25 59t59 25q36 0 60.5 -25t24.5 -59z" />
    <glyph glyph-name="Agrave" unicode="&#xc0;" horiz-adv-x="593" 
d="M352 273l-41 172q-11 48 -22 140h-2q-7 -78 -23 -140l-44 -172h132zM205 183l-41 -162q-3 -14 -6.5 -17.5t-14.5 -3.5h-101q-19 0 -20 9q0 1 4 17l197 644q3 10 6.5 12.5t15.5 2.5h104q11 0 14.5 -3t6.5 -13l196 -645l4 -16q0 -8 -20 -8h-112q-7 0 -10 3.5t-7 17.5
l-44 162h-172zM384 801l-16 -32q-7 -14 -13 -14q-4 0 -14 4l-176 70q-16 6 -16 13q0 4 5 14l31 61q8 14 14 14q2 0 14 -6l163 -96q13 -8 13 -14q0 -4 -5 -14z" />
    <glyph glyph-name="Aacute" unicode="&#xc1;" horiz-adv-x="593" 
d="M352 273l-41 172q-11 48 -22 140h-2q-7 -78 -23 -140l-44 -172h132zM205 183l-41 -162q-3 -14 -6.5 -17.5t-14.5 -3.5h-101q-19 0 -20 9q0 1 4 17l197 644q3 10 6.5 12.5t15.5 2.5h104q11 0 14.5 -3t6.5 -13l196 -645l4 -16q0 -8 -20 -8h-112q-7 0 -10 3.5t-7 17.5
l-44 162h-172zM428 829l-176 -70q-10 -4 -14 -4q-6 0 -13 14l-16 32q-5 10 -5 14q0 6 13 14l163 96q12 6 14 6q6 0 14 -14l31 -61q5 -10 5 -14q0 -7 -16 -13z" />
    <glyph glyph-name="Acircumflex" unicode="&#xc2;" horiz-adv-x="593" 
d="M352 273l-41 172q-11 48 -22 140h-2q-7 -78 -23 -140l-44 -172h132zM205 183l-41 -162q-3 -14 -6.5 -17.5t-14.5 -3.5h-101q-19 0 -20 9q0 1 4 17l197 644q3 10 6.5 12.5t15.5 2.5h104q11 0 14.5 -3t6.5 -13l196 -645l4 -16q0 -8 -20 -8h-112q-7 0 -10 3.5t-7 17.5
l-44 162h-172zM430 800l-19 -32q-8 -13 -14 -13q-4 0 -14 6l-86 49l-86 -49q-10 -6 -14 -6q-6 0 -14 13l-19 32q-6 9 -6 14q0 4 12 14l113 89q11 8 14 8t14 -8l113 -89q12 -10 12 -14q0 -5 -6 -14z" />
    <glyph glyph-name="Atilde" unicode="&#xc3;" horiz-adv-x="593" 
d="M352 273l-41 172q-11 48 -22 140h-2q-7 -78 -23 -140l-44 -172h132zM205 183l-41 -162q-3 -14 -6.5 -17.5t-14.5 -3.5h-101q-19 0 -20 9q0 1 4 17l197 644q3 10 6.5 12.5t15.5 2.5h104q11 0 14.5 -3t6.5 -13l196 -645l4 -16q0 -8 -20 -8h-112q-7 0 -10 3.5t-7 17.5
l-44 162h-172zM397 906l47 -24q7 -5 7 -9q0 -2 -4 -11.5t-12.5 -23.5t-20 -27t-30 -22.5t-38.5 -9.5q-26 0 -55 17.5t-41 17.5q-17 0 -29.5 -18t-15.5 -18q-5 0 -9 3l-47 24q-7 3 -7 8q0 2 3.5 11t11.5 23.5t19.5 27.5t29.5 22.5t39 9.5q28 0 59.5 -17.5t42.5 -17.5
q15 0 27 18t16 18q3 0 7 -2z" />
    <glyph glyph-name="Adieresis" unicode="&#xc4;" horiz-adv-x="593" 
d="M352 273l-41 172q-11 48 -22 140h-2q-7 -78 -23 -140l-44 -172h132zM205 183l-41 -162q-3 -14 -6.5 -17.5t-14.5 -3.5h-101q-19 0 -20 9q0 1 4 17l197 644q3 10 6.5 12.5t15.5 2.5h104q11 0 14.5 -3t6.5 -13l196 -645l4 -16q0 -8 -20 -8h-112q-7 0 -10 3.5t-7 17.5
l-44 162h-172zM278 843q0 -29 -20 -49t-49 -20t-49 20t-20 49t20 49t49 20t49 -20t20 -49zM455 843q0 -29 -20.5 -49t-48.5 -20t-48.5 20t-20.5 49t20 49t49 20t49 -20.5t20 -48.5z" />
    <glyph glyph-name="Aring" unicode="&#xc5;" horiz-adv-x="593" 
d="M352 273l-41 172q-11 48 -22 140h-2q-7 -78 -23 -140l-44 -172h132zM205 183l-41 -162q-3 -14 -6.5 -17.5t-14.5 -3.5h-101q-19 0 -20 9q0 1 4 17l197 644q3 10 6.5 12.5t15.5 2.5h104q11 0 14.5 -3t6.5 -13l196 -645l4 -16q0 -8 -20 -8h-112q-7 0 -10 3.5t-7 17.5
l-44 162h-172zM402 859q0 -43 -31 -73.5t-74 -30.5t-73.5 30.5t-30.5 73.5q0 44 30.5 74.5t73.5 30.5t74 -30.5t31 -74.5zM297 817q18 0 30.5 12t12.5 30t-12.5 30.5t-30.5 12.5q-17 0 -29.5 -12t-12.5 -31q0 -18 12.5 -30t29.5 -12z" />
    <glyph glyph-name="AE" unicode="&#xc6;" horiz-adv-x="778" 
d="M748 87v-66q0 -13 -3.5 -17t-16.5 -4h-324q-13 0 -17 4t-4 17v162h-162l-63 -162q-3 -14 -6.5 -17.5t-14.5 -3.5h-101q-19 0 -20 12q0 1 1 3.5t2 5.5t1 5l276 644q3 10 6.5 12.5t15.5 2.5h409q25 0 25 -11q0 -4 -3 -14l-19 -67q-4 -16 -23 -16h-194v-165h170q13 0 17 -4
t4 -17v-66q0 -13 -4 -17t-17 -4h-170v-196h214q13 0 17 -4t4 -17zM383 273v337h-2q-25 -79 -52 -136l-81 -201h135z" />
    <glyph glyph-name="Ccedilla" unicode="&#xc7;" horiz-adv-x="500" 
d="M319 -17l-4 -39q75 -9 75 -75q0 -40 -30.5 -65t-83.5 -25q-75 0 -75 19q0 5 1 9l9 40q3 4 5 4q1 0 7 -1.5t16 -3.5t21 -2q30 0 30 25q0 24 -40 24q-22 0 -22 11v0l1 7l9 80q-81 16 -135 103.5t-54 242.5q0 175 65.5 270t193.5 95q52 0 108 -28.5t56 -45.5q0 -8 -5 -15
l-37 -56q-7 -10 -12 -10q-4 0 -38 23.5t-65 23.5q-66 0 -95 -52t-29 -179q0 -139 25.5 -205.5t98.5 -66.5q33 0 70 18.5t42 18.5t11 -10l31 -56q5 -10 5 -15q0 -9 -21.5 -23.5t-59 -27.5t-74.5 -13z" />
    <glyph glyph-name="Egrave" unicode="&#xc8;" horiz-adv-x="481" 
d="M446 87v-66q0 -13 -3.5 -17t-16.5 -4h-329q-13 0 -17 4t-4 17v643q0 13 4 17t17 4h328q25 0 25 -11q0 -4 -3 -14l-19 -67q-4 -16 -23 -16h-194v-165h170q13 0 17 -4t4 -17v-66q0 -13 -4 -17t-17 -4h-170v-196h214q13 0 17 -4t4 -17zM338 801l-16 -32q-7 -14 -13 -14
q-4 0 -14 4l-176 70q-16 6 -16 13q0 4 5 14l31 61q8 14 14 14q2 0 14 -6l163 -96q13 -8 13 -14q0 -4 -5 -14z" />
    <glyph glyph-name="Eacute" unicode="&#xc9;" horiz-adv-x="481" 
d="M446 87v-66q0 -13 -3.5 -17t-16.5 -4h-329q-13 0 -17 4t-4 17v643q0 13 4 17t17 4h328q25 0 25 -11q0 -4 -3 -14l-19 -67q-4 -16 -23 -16h-194v-165h170q13 0 17 -4t4 -17v-66q0 -13 -4 -17t-17 -4h-170v-196h214q13 0 17 -4t4 -17zM382 829l-176 -70q-10 -4 -14 -4
q-6 0 -13 14l-16 32q-5 10 -5 14q0 6 13 14l163 96q12 6 14 6q6 0 14 -14l31 -61q5 -10 5 -14q0 -7 -16 -13z" />
    <glyph glyph-name="Ecircumflex" unicode="&#xca;" horiz-adv-x="481" 
d="M446 87v-66q0 -13 -3.5 -17t-16.5 -4h-329q-13 0 -17 4t-4 17v643q0 13 4 17t17 4h328q25 0 25 -11q0 -4 -3 -14l-19 -67q-4 -16 -23 -16h-194v-165h170q13 0 17 -4t4 -17v-66q0 -13 -4 -17t-17 -4h-170v-196h214q13 0 17 -4t4 -17zM384 800l-19 -32q-8 -13 -14 -13
q-4 0 -14 6l-86 49l-86 -49q-10 -6 -14 -6q-6 0 -14 13l-19 32q-6 9 -6 14q0 4 12 14l113 89q11 8 14 8t14 -8l113 -89q12 -10 12 -14q0 -5 -6 -14z" />
    <glyph glyph-name="Edieresis" unicode="&#xcb;" horiz-adv-x="481" 
d="M446 87v-66q0 -13 -3.5 -17t-16.5 -4h-329q-13 0 -17 4t-4 17v643q0 13 4 17t17 4h328q25 0 25 -11q0 -4 -3 -14l-19 -67q-4 -16 -23 -16h-194v-165h170q13 0 17 -4t4 -17v-66q0 -13 -4 -17t-17 -4h-170v-196h214q13 0 17 -4t4 -17zM232 843q0 -29 -20 -49t-49 -20
t-49 20t-20 49t20 49t49 20t49 -20t20 -49zM409 843q0 -29 -20.5 -49t-48.5 -20t-48.5 20t-20.5 49t20 49t49 20t49 -20.5t20 -48.5z" />
    <glyph glyph-name="Igrave" unicode="&#xcc;" horiz-adv-x="370" 
d="M328 75v-54q0 -13 -4 -17t-17 -4h-245q-13 0 -17 4t-4 17v54q0 13 4 17t17 4h55v493h-55q-13 0 -17 4t-4 17v54q0 13 4 17t17 4h245q13 0 17 -4t4 -17v-54q0 -13 -4 -17t-17 -4h-55v-493h55q13 0 17 -4t4 -17zM273 801l-16 -32q-7 -14 -13 -14q-4 0 -14 4l-176 70
q-16 6 -16 13q0 4 5 14l31 61q8 14 14 14q2 0 14 -6l163 -96q13 -8 13 -14q0 -4 -5 -14z" />
    <glyph glyph-name="Iacute" unicode="&#xcd;" horiz-adv-x="370" 
d="M328 75v-54q0 -13 -4 -17t-17 -4h-245q-13 0 -17 4t-4 17v54q0 13 4 17t17 4h55v493h-55q-13 0 -17 4t-4 17v54q0 13 4 17t17 4h245q13 0 17 -4t4 -17v-54q0 -13 -4 -17t-17 -4h-55v-493h55q13 0 17 -4t4 -17zM317 829l-176 -70q-10 -4 -14 -4q-6 0 -13 14l-16 32
q-5 10 -5 14q0 6 13 14l163 96q12 6 14 6q6 0 14 -14l31 -61q5 -10 5 -14q0 -7 -16 -13z" />
    <glyph glyph-name="Icircumflex" unicode="&#xce;" horiz-adv-x="370" 
d="M328 75v-54q0 -13 -4 -17t-17 -4h-245q-13 0 -17 4t-4 17v54q0 13 4 17t17 4h55v493h-55q-13 0 -17 4t-4 17v54q0 13 4 17t17 4h245q13 0 17 -4t4 -17v-54q0 -13 -4 -17t-17 -4h-55v-493h55q13 0 17 -4t4 -17zM319 800l-19 -32q-8 -13 -14 -13q-4 0 -14 6l-86 49l-86 -49
q-10 -6 -14 -6q-6 0 -14 13l-19 32q-6 9 -6 14q0 4 12 14l113 89q11 8 14 8t14 -8l113 -89q12 -10 12 -14q0 -5 -6 -14z" />
    <glyph glyph-name="Idieresis" unicode="&#xcf;" horiz-adv-x="370" 
d="M328 75v-54q0 -13 -4 -17t-17 -4h-245q-13 0 -17 4t-4 17v54q0 13 4 17t17 4h55v493h-55q-13 0 -17 4t-4 17v54q0 13 4 17t17 4h245q13 0 17 -4t4 -17v-54q0 -13 -4 -17t-17 -4h-55v-493h55q13 0 17 -4t4 -17zM167 843q0 -29 -20.5 -49t-48.5 -20t-48.5 20t-20.5 49
t20 49t49 20q28 0 48.5 -20t20.5 -49zM344 843q0 -29 -20 -49t-49 -20t-49 20t-20 49t20 49t49 20t49 -20.5t20 -48.5z" />
    <glyph glyph-name="Eth" unicode="&#xd0;" horiz-adv-x="593" 
d="M107 685h155q76 0 127 -14.5t89.5 -51t56.5 -104t18 -169.5q0 -105 -20 -174.5t-61 -106.5t-91 -51t-122 -14h-153q-13 0 -17 4t-4 17v290h-51q-14 0 -17.5 3.5t-3.5 17.5v48q0 13 4 17t17 4h51v263q0 13 4 17t18 4zM220 108h36q87 0 121 50t34 190q0 132 -34.5 180.5
t-120.5 48.5h-36v-176h100q14 0 17.5 -3.5t3.5 -17.5v-48q0 -14 -3.5 -17.5t-17.5 -3.5h-100v-203z" />
    <glyph glyph-name="Ntilde" unicode="&#xd1;" horiz-adv-x="630" 
d="M547 664v-643q0 -13 -3.5 -17t-17.5 -4h-66q-16 0 -23 14l-183 341q-46 85 -57 136h-2q0 -2 1.5 -42.5t1.5 -67.5v-360q0 -13 -4 -17t-17 -4h-73q-13 0 -17 4t-4 17v643q0 13 4 17t17 4h82q11 0 14.5 -2t8.5 -11l165 -310q37 -70 59 -145h2q0 16 -1.5 66.5t-1.5 63.5v317
q0 13 4 17t17 4h73q13 0 17 -4t4 -17zM416 906l47 -24q7 -5 7 -9q0 -2 -4 -11.5t-12.5 -23.5t-20 -27t-30 -22.5t-38.5 -9.5q-27 0 -56 17.5t-40 17.5q-13 0 -22 -9t-14 -18t-9 -9q-5 0 -9 3l-47 24q-7 3 -7 8q0 2 3.5 11t11.5 23.5t19.5 27.5t29.5 22.5t39 9.5
q28 0 59.5 -17.5t42.5 -17.5q15 0 27 18t16 18q3 0 7 -2z" />
    <glyph glyph-name="Ograve" unicode="&#xd2;" horiz-adv-x="593" 
d="M545 342q0 -178 -65 -268.5t-184 -90.5t-184 90.5t-65 268.5q0 179 65.5 269.5t183.5 90.5t183.5 -91t65.5 -269zM296 88q107 0 107 254q0 255 -107 255t-107 -255q0 -254 107 -254zM384 801l-16 -32q-7 -14 -13 -14q-4 0 -14 4l-176 70q-16 6 -16 13q0 4 5 14l31 61
q8 14 14 14q2 0 14 -6l163 -96q13 -8 13 -14q0 -4 -5 -14z" />
    <glyph glyph-name="Oacute" unicode="&#xd3;" horiz-adv-x="593" 
d="M545 342q0 -178 -65 -268.5t-184 -90.5t-184 90.5t-65 268.5q0 179 65.5 269.5t183.5 90.5t183.5 -91t65.5 -269zM296 88q107 0 107 254q0 255 -107 255t-107 -255q0 -254 107 -254zM428 829l-176 -70q-10 -4 -14 -4q-6 0 -13 14l-16 32q-5 10 -5 14q0 6 13 14l163 96
q12 6 14 6q6 0 14 -14l31 -61q5 -10 5 -14q0 -7 -16 -13z" />
    <glyph glyph-name="Ocircumflex" unicode="&#xd4;" horiz-adv-x="593" 
d="M545 342q0 -178 -65 -268.5t-184 -90.5t-184 90.5t-65 268.5q0 179 65.5 269.5t183.5 90.5t183.5 -91t65.5 -269zM296 88q107 0 107 254q0 255 -107 255t-107 -255q0 -254 107 -254zM430 800l-19 -32q-8 -13 -14 -13q-4 0 -14 6l-86 49l-86 -49q-10 -6 -14 -6
q-6 0 -14 13l-19 32q-6 9 -6 14q0 4 12 14l113 89q11 8 14 8t14 -8l113 -89q12 -10 12 -14q0 -5 -6 -14z" />
    <glyph glyph-name="Otilde" unicode="&#xd5;" horiz-adv-x="593" 
d="M545 342q0 -178 -65 -268.5t-184 -90.5t-184 90.5t-65 268.5q0 179 65.5 269.5t183.5 90.5t183.5 -91t65.5 -269zM296 88q107 0 107 254q0 255 -107 255t-107 -255q0 -254 107 -254zM397 906l47 -24q7 -5 7 -9q0 -2 -4 -11.5t-12.5 -23.5t-20 -27t-30 -22.5t-38.5 -9.5
q-26 0 -55 17.5t-41 17.5q-17 0 -29.5 -18t-15.5 -18q-5 0 -9 3l-47 24q-7 3 -7 8q0 2 3.5 11t11.5 23.5t19.5 27.5t29.5 22.5t39 9.5q28 0 59.5 -17.5t42.5 -17.5q15 0 27 18t16 18q3 0 7 -2z" />
    <glyph glyph-name="Odieresis" unicode="&#xd6;" horiz-adv-x="593" 
d="M545 342q0 -178 -65 -268.5t-184 -90.5t-184 90.5t-65 268.5q0 179 65.5 269.5t183.5 90.5t183.5 -91t65.5 -269zM296 88q107 0 107 254q0 255 -107 255t-107 -255q0 -254 107 -254zM278 843q0 -29 -20 -49t-49 -20t-49 20t-20 49t20 49t49 20t49 -20t20 -49zM455 843
q0 -29 -20.5 -49t-48.5 -20t-48.5 20t-20.5 49t20 49t49 20t49 -20.5t20 -48.5z" />
    <glyph glyph-name="multiply" unicode="&#xd7;" 
d="M462 119l-47 -47q-8 -8 -12 -8q-6 0 -12 8l-113 115l-113 -115q-6 -8 -12 -8q-4 0 -12 8l-48 47q-7 5 -7 12q0 5 7 12l115 113l-115 113q-7 5 -7 12q0 5 7 12l48 48q7 7 11 7q6 0 13 -7l113 -115l113 115q7 7 12 7t12 -7l47 -47q8 -8 8 -12q0 -7 -8 -13l-114 -113
l114 -113q8 -8 8 -11q0 -5 -8 -13z" />
    <glyph glyph-name="Oslash" unicode="&#xd8;" horiz-adv-x="593" 
d="M518 697l-42 -83q69 -87 69 -272q0 -178 -65 -268.5t-184 -90.5q-83 0 -133 38l-42 -78q-7 -13 -14 -13q-4 0 -14 4l-31 16q-14 9 -14 14q0 6 5 14l54 102q-60 90 -60 262q0 179 65.5 269.5t183.5 90.5q67 0 122 -31l32 60q8 14 13 14q4 0 14 -5l32 -16q14 -7 14 -13
q0 -7 -5 -14zM195 211l165 349q-26 37 -64 37q-107 0 -107 -255q0 -108 4 -131h2zM390 473l-163 -346q26 -39 69 -39q107 0 107 254q0 74 -11 131h-2z" />
    <glyph glyph-name="Ugrave" unicode="&#xd9;" horiz-adv-x="630" 
d="M556 664v-432q0 -121 -53.5 -185t-187.5 -64t-187.5 64t-53.5 185v432q0 13 4 17t17 4h93q13 0 17 -4t4 -17v-432q0 -33 2.5 -53.5t12 -43t32.5 -33.5t59 -11t59 11t32.5 33.5t12 43t2.5 53.5v432q0 13 4 17t17 4h93q13 0 17 -4t4 -17zM403 801l-16 -32q-7 -14 -13 -14
q-4 0 -14 4l-176 70q-16 6 -16 13q0 4 5 14l31 61q8 14 14 14q2 0 14 -6l163 -96q13 -8 13 -14q0 -4 -5 -14z" />
    <glyph glyph-name="Uacute" unicode="&#xda;" horiz-adv-x="630" 
d="M556 664v-432q0 -121 -53.5 -185t-187.5 -64t-187.5 64t-53.5 185v432q0 13 4 17t17 4h93q13 0 17 -4t4 -17v-432q0 -33 2.5 -53.5t12 -43t32.5 -33.5t59 -11t59 11t32.5 33.5t12 43t2.5 53.5v432q0 13 4 17t17 4h93q13 0 17 -4t4 -17zM447 829l-176 -70q-10 -4 -14 -4
q-6 0 -13 14l-16 32q-5 10 -5 14q0 6 13 14l163 96q12 6 14 6q6 0 14 -14l31 -61q5 -10 5 -14q0 -7 -16 -13z" />
    <glyph glyph-name="Ucircumflex" unicode="&#xdb;" horiz-adv-x="630" 
d="M556 664v-432q0 -121 -53.5 -185t-187.5 -64t-187.5 64t-53.5 185v432q0 13 4 17t17 4h93q13 0 17 -4t4 -17v-432q0 -33 2.5 -53.5t12 -43t32.5 -33.5t59 -11t59 11t32.5 33.5t12 43t2.5 53.5v432q0 13 4 17t17 4h93q13 0 17 -4t4 -17zM449 800l-19 -32q-8 -13 -14 -13
q-4 0 -14 6l-86 49l-86 -49q-10 -6 -14 -6q-6 0 -14 13l-19 32q-6 9 -6 14q0 4 12 14l113 89q11 8 14 8t14 -8l113 -89q12 -10 12 -14q0 -5 -6 -14z" />
    <glyph glyph-name="Udieresis" unicode="&#xdc;" horiz-adv-x="630" 
d="M556 664v-432q0 -121 -53.5 -185t-187.5 -64t-187.5 64t-53.5 185v432q0 13 4 17t17 4h93q13 0 17 -4t4 -17v-432q0 -33 2.5 -53.5t12 -43t32.5 -33.5t59 -11t59 11t32.5 33.5t12 43t2.5 53.5v432q0 13 4 17t17 4h93q13 0 17 -4t4 -17zM297 843q0 -29 -20.5 -49
t-48.5 -20t-48.5 20t-20.5 49t20 49t49 20q28 0 48.5 -20t20.5 -49zM474 843q0 -29 -20 -49t-49 -20t-49 20t-20 49t20 49t49 20t49 -20.5t20 -48.5z" />
    <glyph glyph-name="Yacute" unicode="&#xdd;" horiz-adv-x="519" 
d="M328 281v-260q0 -13 -4 -17t-17 -4h-93q-13 0 -17 4t-4 17v260l-188 364q-7 12 -7 21q0 8 21 11l100 16q6 1 11 1q9 0 15 -13l81 -171q26 -56 40 -109h2q21 70 44 117l74 156q6 14 9 17t8 3t15 -2l85 -18q18 -4 18 -13q0 -2 -7 -16zM391 829l-176 -70q-10 -4 -14 -4
q-6 0 -13 14l-16 32q-5 10 -5 14q0 6 13 14l163 96q12 6 14 6q6 0 14 -14l31 -61q5 -10 5 -14q0 -7 -16 -13z" />
    <glyph glyph-name="Thorn" unicode="&#xde;" horiz-adv-x="519" 
d="M211 274h31q26 0 43.5 3.5t35.5 14t27 34t9 59.5q0 25 -6.5 42.5t-15 26.5t-24.5 14t-28 6t-31 1h-41v-201zM211 169v-148q0 -13 -4 -17t-17 -4h-93q-13 0 -17 4t-4 17v643q0 14 4 17.5t17 3.5h93q13 0 17 -4t4 -17v-84h48q21 0 33.5 -0.5t36.5 -2.5t39.5 -7t37 -13.5
t35 -22.5t26.5 -33t19 -47t6 -62q0 -59 -20.5 -104t-54.5 -70t-72.5 -37t-80.5 -12h-53z" />
    <glyph glyph-name="germandbls" unicode="&#xdf;" horiz-adv-x="593" 
d="M67 14v480q0 230 224 230q84 0 141 -36.5t57 -109.5q0 -34 -16 -62.5t-34.5 -44.5t-34.5 -34.5t-16 -34.5q0 -19 17 -36.5t52 -44t55 -46.5q54 -54 54 -128q0 -82 -48.5 -123t-126.5 -41q-42 0 -87.5 11t-45.5 26l2 10l16 65q2 7 9 7q1 0 37.5 -13t68.5 -13q28 0 44 15
t16 42q0 20 -12.5 39.5t-26 31t-39.5 30.5q-34 25 -49.5 38.5t-33 42.5t-17.5 61q0 50 48 102q2 2 9 9.5t9 9.5t7.5 9t7.5 10.5t6 9.5t5 11t2.5 11.5t1.5 12.5q0 63 -79 63q-32 0 -52.5 -9t-29.5 -27.5t-11.5 -36.5t-2.5 -46v-491q0 -8 -2.5 -11t-11.5 -3h-99q-9 0 -11.5 3
t-2.5 11z" />
    <glyph glyph-name="agrave" unicode="&#xe0;" horiz-adv-x="481" 
d="M433 18l-76 -31q-1 0 -6 -2t-7 -2q-6 0 -15.5 20t-13.5 40q-18 -18 -27 -26t-39 -21t-64 -13q-69 0 -109.5 41.5t-40.5 112.5q0 40 13 71t38 48.5t49 28.5t59.5 15t54 5t47.5 1v31q0 38 -13.5 56t-57.5 18q-33 0 -78 -15t-46 -15q-7 0 -10 10l-20 61q-3 6 -3 12
q0 17 58.5 32t117.5 15q91 0 131.5 -40t40.5 -121v-193q0 -43 6.5 -70.5t13 -40.5t6.5 -19q0 -5 -9 -9zM296 114v110h-10h-14.5t-16.5 -0.5t-19.5 -2t-19 -4.5t-19 -7t-16.5 -10t-14 -14t-8.5 -18.5t-3.5 -23.5q0 -29 19 -48.5t47 -19.5q37 0 75 38zM328 610l-16 -32
q-7 -14 -13 -14q-4 0 -14 4l-176 70q-16 6 -16 13q0 4 5 14l31 61q8 14 14 14q2 0 14 -6l163 -96q13 -8 13 -14q0 -4 -5 -14z" />
    <glyph glyph-name="aacute" unicode="&#xe1;" horiz-adv-x="481" 
d="M433 18l-76 -31q-1 0 -6 -2t-7 -2q-6 0 -15.5 20t-13.5 40q-18 -18 -27 -26t-39 -21t-64 -13q-69 0 -109.5 41.5t-40.5 112.5q0 40 13 71t38 48.5t49 28.5t59.5 15t54 5t47.5 1v31q0 38 -13.5 56t-57.5 18q-33 0 -78 -15t-46 -15q-7 0 -10 10l-20 61q-3 6 -3 12
q0 17 58.5 32t117.5 15q91 0 131.5 -40t40.5 -121v-193q0 -43 6.5 -70.5t13 -40.5t6.5 -19q0 -5 -9 -9zM296 114v110h-10h-14.5t-16.5 -0.5t-19.5 -2t-19 -4.5t-19 -7t-16.5 -10t-14 -14t-8.5 -18.5t-3.5 -23.5q0 -29 19 -48.5t47 -19.5q37 0 75 38zM372 638l-176 -70
q-10 -4 -14 -4q-6 0 -13 14l-16 32q-5 10 -5 14q0 6 13 14l163 96q12 6 14 6q6 0 14 -14l31 -61q5 -10 5 -14q0 -7 -16 -13z" />
    <glyph glyph-name="acircumflex" unicode="&#xe2;" horiz-adv-x="481" 
d="M433 18l-76 -31q-1 0 -6 -2t-7 -2q-6 0 -15.5 20t-13.5 40q-18 -18 -27 -26t-39 -21t-64 -13q-69 0 -109.5 41.5t-40.5 112.5q0 40 13 71t38 48.5t49 28.5t59.5 15t54 5t47.5 1v31q0 38 -13.5 56t-57.5 18q-33 0 -78 -15t-46 -15q-7 0 -10 10l-20 61q-3 6 -3 12
q0 17 58.5 32t117.5 15q91 0 131.5 -40t40.5 -121v-193q0 -43 6.5 -70.5t13 -40.5t6.5 -19q0 -5 -9 -9zM296 114v110h-10h-14.5t-16.5 -0.5t-19.5 -2t-19 -4.5t-19 -7t-16.5 -10t-14 -14t-8.5 -18.5t-3.5 -23.5q0 -29 19 -48.5t47 -19.5q37 0 75 38zM374 609l-19 -32
q-8 -13 -14 -13q-4 0 -14 6l-86 49l-86 -49q-10 -6 -14 -6q-6 0 -14 13l-19 32q-6 9 -6 14q0 4 12 14l113 89q11 8 14 8t14 -8l113 -89q12 -10 12 -14q0 -5 -6 -14z" />
    <glyph glyph-name="atilde" unicode="&#xe3;" horiz-adv-x="481" 
d="M433 18l-76 -31q-1 0 -6 -2t-7 -2q-6 0 -15.5 20t-13.5 40q-18 -18 -27 -26t-39 -21t-64 -13q-69 0 -109.5 41.5t-40.5 112.5q0 40 13 71t38 48.5t49 28.5t59.5 15t54 5t47.5 1v31q0 38 -13.5 56t-57.5 18q-33 0 -78 -15t-46 -15q-7 0 -10 10l-20 61q-3 6 -3 12
q0 17 58.5 32t117.5 15q91 0 131.5 -40t40.5 -121v-193q0 -43 6.5 -70.5t13 -40.5t6.5 -19q0 -5 -9 -9zM296 114v110h-10h-14.5t-16.5 -0.5t-19.5 -2t-19 -4.5t-19 -7t-16.5 -10t-14 -14t-8.5 -18.5t-3.5 -23.5q0 -29 19 -48.5t47 -19.5q37 0 75 38zM341 715l47 -24
q7 -5 7 -9q0 -2 -4 -11.5t-12.5 -23.5t-20 -27t-30 -22.5t-38.5 -9.5q-26 0 -55 17.5t-41 17.5q-18 0 -30 -18t-15 -18q-5 0 -9 3l-47 24q-7 4 -7 8q0 2 3.5 11t11.5 23.5t19.5 27.5t29.5 22.5t39 9.5q28 0 59.5 -17.5t42.5 -17.5q15 0 27 18t16 18q3 0 7 -2z" />
    <glyph glyph-name="adieresis" unicode="&#xe4;" horiz-adv-x="481" 
d="M433 18l-76 -31q-1 0 -6 -2t-7 -2q-6 0 -15.5 20t-13.5 40q-18 -18 -27 -26t-39 -21t-64 -13q-69 0 -109.5 41.5t-40.5 112.5q0 40 13 71t38 48.5t49 28.5t59.5 15t54 5t47.5 1v31q0 38 -13.5 56t-57.5 18q-33 0 -78 -15t-46 -15q-7 0 -10 10l-20 61q-3 6 -3 12
q0 17 58.5 32t117.5 15q91 0 131.5 -40t40.5 -121v-193q0 -43 6.5 -70.5t13 -40.5t6.5 -19q0 -5 -9 -9zM296 114v110h-10h-14.5t-16.5 -0.5t-19.5 -2t-19 -4.5t-19 -7t-16.5 -10t-14 -14t-8.5 -18.5t-3.5 -23.5q0 -29 19 -48.5t47 -19.5q37 0 75 38zM222 652
q0 -28 -20 -48.5t-49 -20.5t-49 20.5t-20 48.5q0 29 20 49t49 20t49 -20.5t20 -48.5zM399 652q0 -28 -20.5 -48.5t-48.5 -20.5t-48.5 20.5t-20.5 48.5q0 29 20 49t49 20t49 -20.5t20 -48.5z" />
    <glyph glyph-name="aring" unicode="&#xe5;" horiz-adv-x="481" 
d="M433 18l-76 -31q-1 0 -6 -2t-7 -2q-6 0 -15.5 20t-13.5 40q-18 -18 -27 -26t-39 -21t-64 -13q-69 0 -109.5 41.5t-40.5 112.5q0 40 13 71t38 48.5t49 28.5t59.5 15t54 5t47.5 1v31q0 38 -13.5 56t-57.5 18q-33 0 -78 -15t-46 -15q-7 0 -10 10l-20 61q-3 6 -3 12
q0 17 58.5 32t117.5 15q91 0 131.5 -40t40.5 -121v-193q0 -43 6.5 -70.5t13 -40.5t6.5 -19q0 -5 -9 -9zM296 114v110h-10h-14.5t-16.5 -0.5t-19.5 -2t-19 -4.5t-19 -7t-16.5 -10t-14 -14t-8.5 -18.5t-3.5 -23.5q0 -29 19 -48.5t47 -19.5q37 0 75 38zM346 668
q0 -43 -31 -73.5t-74 -30.5t-73.5 30.5t-30.5 73.5q0 44 30.5 74.5t73.5 30.5t74 -30.5t31 -74.5zM241 626q18 0 30.5 12t12.5 30t-12.5 30.5t-30.5 12.5q-17 0 -29.5 -12.5t-12.5 -30.5t12.5 -30t29.5 -12z" />
    <glyph glyph-name="ae" unicode="&#xe6;" horiz-adv-x="741" 
d="M656 113l25 -60q3 -4 3 -11q0 -20 -60 -39.5t-119 -19.5q-104 0 -157 68q-83 -68 -163 -68q-69 0 -109.5 41.5t-40.5 112.5q0 35 10.5 62.5t26 45t40.5 30t45 18.5t50 9t45 3.5t40 0.5v31q0 38 -13 56t-54 18q-33 0 -78 -15t-46 -15q-7 0 -10 10l-20 61q-3 6 -3 12
q0 17 58.5 32t117.5 15q48 0 82 -23t42 -42q51 65 132 65q200 0 200 -273q0 -15 -4.5 -20t-18.5 -5h-265q0 -125 106 -125q32 0 60 8t45.5 16.5t21.5 8.5q7 0 11 -8zM412 306h153q0 112 -72 112q-70 0 -80 -107q-1 -3 -1 -5zM292 114v110h-10h-14t-16.5 -0.5t-18.5 -2
t-18.5 -4.5t-18.5 -7t-15.5 -10t-13.5 -14t-8.5 -18.5t-3.5 -23.5q0 -29 19 -48.5t47 -19.5q33 0 71 38z" />
    <glyph glyph-name="ccedilla" unicode="&#xe7;" horiz-adv-x="426" 
d="M279 -17l-2 -35q25 0 48 -17.5t23 -54.5q0 -40 -29 -64t-80 -24q-73 0 -73 18q0 4 2 12l7 34q2 8 6 8l14 -4q14 -3 28 -3t23 6.5t9 16.5q0 23 -43 23q-19 0 -19 11q0 7 2 21l5 59q-63 7 -111 72.5t-48 174.5q0 128 61.5 201t171.5 73q44 0 93 -19.5t49 -41.5l-3 -9
l-37 -65q-5 -5 -7 -5q-3 0 -16 10t-34.5 20t-44.5 10q-51 0 -74.5 -40.5t-23.5 -126.5q0 -85 23.5 -123t79.5 -38q30 0 57 17t32 17q4 0 7 -5l26 -66q3 -9 3 -10q0 -17 -44.5 -35t-80.5 -18z" />
    <glyph glyph-name="egrave" unicode="&#xe8;" horiz-adv-x="500" 
d="M416 113l25 -60q3 -5 3 -11q0 -20 -60 -39.5t-119 -19.5q-104 0 -164 63.5t-60 195.5q0 120 59.5 194.5t159.5 74.5q200 0 200 -273q0 -15 -4.5 -20t-18.5 -5h-269q0 -125 110 -125q32 0 60 8t45.5 16.5t21.5 8.5q7 0 11 -8zM168 306h157q0 112 -72 112q-74 0 -85 -107
v-5zM338 610l-16 -32q-7 -14 -13 -14q-4 0 -14 4l-176 70q-16 6 -16 13q0 4 5 14l31 61q8 14 14 14q2 0 14 -6l163 -96q13 -8 13 -14q0 -4 -5 -14z" />
    <glyph glyph-name="eacute" unicode="&#xe9;" horiz-adv-x="500" 
d="M416 113l25 -60q3 -5 3 -11q0 -20 -60 -39.5t-119 -19.5q-104 0 -164 63.5t-60 195.5q0 120 59.5 194.5t159.5 74.5q200 0 200 -273q0 -15 -4.5 -20t-18.5 -5h-269q0 -125 110 -125q32 0 60 8t45.5 16.5t21.5 8.5q7 0 11 -8zM168 306h157q0 112 -72 112q-74 0 -85 -107
v-5zM382 638l-176 -70q-10 -4 -14 -4q-6 0 -13 14l-16 32q-5 10 -5 14q0 6 13 14l163 96q12 6 14 6q6 0 14 -14l31 -61q5 -10 5 -14q0 -7 -16 -13z" />
    <glyph glyph-name="ecircumflex" unicode="&#xea;" horiz-adv-x="500" 
d="M416 113l25 -60q3 -5 3 -11q0 -20 -60 -39.5t-119 -19.5q-104 0 -164 63.5t-60 195.5q0 120 59.5 194.5t159.5 74.5q200 0 200 -273q0 -15 -4.5 -20t-18.5 -5h-269q0 -125 110 -125q32 0 60 8t45.5 16.5t21.5 8.5q7 0 11 -8zM168 306h157q0 112 -72 112q-74 0 -85 -107
v-5zM384 609l-19 -32q-8 -13 -14 -13q-4 0 -14 6l-86 49l-86 -49q-10 -6 -14 -6q-6 0 -14 13l-19 32q-6 9 -6 14q0 4 12 14l113 89q11 8 14 8t14 -8l113 -89q12 -10 12 -14q0 -5 -6 -14z" />
    <glyph glyph-name="edieresis" unicode="&#xeb;" horiz-adv-x="500" 
d="M416 113l25 -60q3 -5 3 -11q0 -20 -60 -39.5t-119 -19.5q-104 0 -164 63.5t-60 195.5q0 120 59.5 194.5t159.5 74.5q200 0 200 -273q0 -15 -4.5 -20t-18.5 -5h-269q0 -125 110 -125q32 0 60 8t45.5 16.5t21.5 8.5q7 0 11 -8zM168 306h157q0 112 -72 112q-74 0 -85 -107
v-5zM232 652q0 -28 -20 -48.5t-49 -20.5t-49 20.5t-20 48.5q0 29 20 49t49 20t49 -20.5t20 -48.5zM409 652q0 -28 -20.5 -48.5t-48.5 -20.5t-48.5 20.5t-20.5 48.5q0 29 20 49t49 20t49 -20.5t20 -48.5z" />
    <glyph glyph-name="igrave" unicode="&#xec;" horiz-adv-x="315" 
d="M234 480v-466q0 -8 -2.5 -11t-11.5 -3h-99q-9 0 -11.5 3t-2.5 11v387h-77q-9 0 -11.5 3t-2.5 11v65q0 8 2.5 11t11.5 3h190q9 0 11.5 -3t2.5 -11zM245 610l-16 -32q-7 -14 -13 -14q-4 0 -14 4l-176 70q-16 6 -16 13q0 4 5 14l31 61q8 14 14 14q2 0 14 -6l163 -96
q13 -8 13 -14q0 -4 -5 -14z" />
    <glyph glyph-name="iacute" unicode="&#xed;" horiz-adv-x="315" 
d="M234 480v-466q0 -8 -2.5 -11t-11.5 -3h-99q-9 0 -11.5 3t-2.5 11v387h-77q-9 0 -11.5 3t-2.5 11v65q0 8 2.5 11t11.5 3h190q9 0 11.5 -3t2.5 -11zM274 638l-176 -70q-10 -4 -14 -4q-6 0 -13 14l-16 32q-5 10 -5 14q0 6 13 14l163 96q12 6 14 6q6 0 14 -14l31 -61
q5 -10 5 -14q0 -7 -16 -13z" />
    <glyph glyph-name="icircumflex" unicode="&#xee;" horiz-adv-x="315" 
d="M234 480v-466q0 -8 -2.5 -11t-11.5 -3h-99q-9 0 -11.5 3t-2.5 11v387h-77q-9 0 -11.5 3t-2.5 11v65q0 8 2.5 11t11.5 3h190q9 0 11.5 -3t2.5 -11zM271 609l-19 -32q-8 -13 -14 -13q-4 0 -14 6l-86 49l-86 -49q-10 -6 -14 -6q-6 0 -14 13l-19 32q-6 9 -6 14q0 4 12 14
l113 89q11 8 14 8t14 -8l113 -89q12 -10 12 -14q0 -5 -6 -14z" />
    <glyph glyph-name="idieresis" unicode="&#xef;" horiz-adv-x="315" 
d="M234 480v-466q0 -8 -2.5 -11t-11.5 -3h-99q-9 0 -11.5 3t-2.5 11v387h-77q-9 0 -11.5 3t-2.5 11v65q0 8 2.5 11t11.5 3h190q9 0 11.5 -3t2.5 -11zM119 652q0 -28 -20.5 -48.5t-48.5 -20.5t-48.5 20.5t-20.5 48.5q0 29 20 49t49 20q28 0 48.5 -20.5t20.5 -48.5zM296 652
q0 -28 -20 -48.5t-49 -20.5t-49 20.5t-20 48.5q0 29 20 49t49 20t49 -20.5t20 -48.5z" />
    <glyph glyph-name="eth" unicode="&#xf0;" horiz-adv-x="500" 
d="M425 672l-85 -39q127 -215 127 -390q0 -108 -54.5 -184t-161.5 -76t-162.5 71.5t-55.5 193.5q0 119 58.5 191t142.5 72q33 0 60 -18l2 2q-24 57 -47 95l-92 -43q-4 -2 -8 -2q-5 0 -8 8l-17 37q-3 6 -3 9t8 8l88 41q-5 9 -17.5 26.5t-21.5 30.5t-9 16q0 10 13 12l61 7
q3 1 9 1q5 0 10.5 -3t10.5 -7t11 -11t9.5 -11.5t8.5 -11.5t6 -8l92 43q1 0 3.5 1.5t4.5 1.5q4 0 9 -9l15 -33q4 -10 4 -11q0 -6 -11 -10zM251 83q52 0 70.5 42t18.5 122q0 79 -19 121.5t-70 42.5q-49 0 -66 -42t-17 -123q0 -80 17 -121.5t66 -41.5z" />
    <glyph glyph-name="ntilde" unicode="&#xf1;" horiz-adv-x="537" 
d="M467 365v-351q0 -8 -2.5 -11t-11.5 -3h-99q-9 0 -11.5 3t-2.5 11v308q0 84 -56 84q-44 0 -88 -41v-351q0 -8 -2.5 -11t-11.5 -3h-99q-9 0 -11.5 3t-2.5 11v302q0 48 -3 80t-6.5 42.5t-6.5 19t-3 14.5q0 8 11 11l76 25q9 3 15 3q16 0 32 -69q23 21 36.5 31.5t47 24
t69.5 13.5q53 0 91.5 -32.5t38.5 -113.5zM369 715l47 -24q7 -5 7 -9q0 -2 -4 -11.5t-12.5 -23.5t-20 -27t-30 -22.5t-38.5 -9.5q-26 0 -55 17.5t-41 17.5q-17 0 -29.5 -18t-15.5 -18q-5 0 -9 3l-47 24q-7 4 -7 8q0 2 3.5 11t11.5 23.5t19.5 27.5t29.5 22.5t39 9.5
q28 0 59.5 -17.5t42.5 -17.5q15 0 27 18t16 18q3 0 7 -2z" />
    <glyph glyph-name="ograve" unicode="&#xf2;" horiz-adv-x="519" 
d="M259 83q48 0 65 41.5t17 122.5q0 79 -17 121.5t-65 42.5t-65 -42.5t-17 -121.5q0 -80 17 -122t65 -42zM476 247q0 -121 -58 -192.5t-159 -71.5t-159 71.5t-58 192.5t58 192.5t159 71.5q100 0 158.5 -71.5t58.5 -192.5zM347 610l-16 -32q-7 -14 -13 -14q-4 0 -14 4
l-176 70q-16 6 -16 13q0 4 5 14l31 61q8 14 14 14q2 0 14 -6l163 -96q13 -8 13 -14q0 -4 -5 -14z" />
    <glyph glyph-name="oacute" unicode="&#xf3;" horiz-adv-x="519" 
d="M259 83q48 0 65 41.5t17 122.5q0 79 -17 121.5t-65 42.5t-65 -42.5t-17 -121.5q0 -80 17 -122t65 -42zM476 247q0 -121 -58 -192.5t-159 -71.5t-159 71.5t-58 192.5t58 192.5t159 71.5q100 0 158.5 -71.5t58.5 -192.5zM391 638l-176 -70q-10 -4 -14 -4q-6 0 -13 14
l-16 32q-5 10 -5 14q0 6 13 14l163 96q12 6 14 6q6 0 14 -14l31 -61q5 -10 5 -14q0 -7 -16 -13z" />
    <glyph glyph-name="ocircumflex" unicode="&#xf4;" horiz-adv-x="519" 
d="M259 83q48 0 65 41.5t17 122.5q0 79 -17 121.5t-65 42.5t-65 -42.5t-17 -121.5q0 -80 17 -122t65 -42zM476 247q0 -121 -58 -192.5t-159 -71.5t-159 71.5t-58 192.5t58 192.5t159 71.5q100 0 158.5 -71.5t58.5 -192.5zM393 609l-19 -32q-8 -13 -14 -13q-4 0 -14 6l-86 49
l-86 -49q-10 -6 -14 -6q-6 0 -14 13l-19 32q-6 9 -6 14q0 4 12 14l113 89q11 8 14 8t14 -8l113 -89q12 -10 12 -14q0 -5 -6 -14z" />
    <glyph glyph-name="otilde" unicode="&#xf5;" horiz-adv-x="519" 
d="M259 83q48 0 65 41.5t17 122.5q0 79 -17 121.5t-65 42.5t-65 -42.5t-17 -121.5q0 -80 17 -122t65 -42zM476 247q0 -121 -58 -192.5t-159 -71.5t-159 71.5t-58 192.5t58 192.5t159 71.5q100 0 158.5 -71.5t58.5 -192.5zM360 715l47 -24q7 -5 7 -9q0 -2 -4 -11.5
t-12.5 -23.5t-20 -27t-30 -22.5t-38.5 -9.5q-27 0 -56 17.5t-40 17.5q-13 0 -22 -9t-14 -18t-9 -9t-9 3l-47 24q-7 4 -7 8q0 2 3.5 11t11.5 23.5t19.5 27.5t29.5 22.5t39 9.5q28 0 59.5 -17.5t42.5 -17.5q15 0 27 18t16 18q3 0 7 -2z" />
    <glyph glyph-name="odieresis" unicode="&#xf6;" horiz-adv-x="519" 
d="M259 83q48 0 65 41.5t17 122.5q0 79 -17 121.5t-65 42.5t-65 -42.5t-17 -121.5q0 -80 17 -122t65 -42zM476 247q0 -121 -58 -192.5t-159 -71.5t-159 71.5t-58 192.5t58 192.5t159 71.5q100 0 158.5 -71.5t58.5 -192.5zM241 652q0 -28 -20.5 -48.5t-48.5 -20.5t-48.5 20.5
t-20.5 48.5q0 29 20 49t49 20q28 0 48.5 -20.5t20.5 -48.5zM418 652q0 -28 -20 -48.5t-49 -20.5t-49 20.5t-20 48.5q0 29 20 49t49 20t49 -20.5t20 -48.5z" />
    <glyph glyph-name="divide" unicode="&#xf7;" 
d="M349 85q0 -30 -21 -50.5t-50 -20.5t-50 20.5t-21 50.5t20.5 50.5t50.5 20.5q29 0 50 -20.5t21 -50.5zM505 290v-66q0 -10 -3.5 -13.5t-13.5 -3.5h-420q-10 0 -13.5 3.5t-3.5 13.5v66q0 10 3.5 13.5t13.5 3.5h420q10 0 13.5 -3.5t3.5 -13.5zM349 429q0 -30 -20.5 -50.5
t-50.5 -20.5q-29 0 -50 20.5t-21 50.5t20.5 50.5t50.5 20.5q29 0 50 -21t21 -50z" />
    <glyph glyph-name="oslash" unicode="&#xf8;" horiz-adv-x="500" 
d="M431 503l-30 -55q66 -66 66 -201q0 -121 -58 -192.5t-159 -71.5q-56 0 -100 23l-28 -49q-7 -11 -11 -11t-12 4l-25 14q-11 6 -11 12t4 12l31 56q-65 68 -65 203q0 121 58 192.5t159 71.5q68 0 100 -23l26 45q7 11 11 11t12 -4l25 -14q12 -7 12 -12q0 -4 -5 -11zM335 351
l-132 -253q18 -15 47 -15q58 0 77.5 41.5t19.5 122.5q0 68 -12 104zM164 139l133 255q-20 17 -47 17q-57 0 -77 -42t-20 -122q0 -67 11 -108z" />
    <glyph glyph-name="ugrave" unicode="&#xf9;" horiz-adv-x="537" 
d="M473 11l-76 -25q-9 -3 -15 -3q-16 0 -32 59q-66 -59 -153 -59q-53 0 -91.5 32.5t-38.5 113.5v344q0 5 1 8t4.5 5t5.5 2.5t8 2.5l84 17q2 0 8 1.5t8 1.5q8 0 8 -21v-318q0 -84 56 -84q43 0 88 31v354q0 5 1 8t4.5 5t5.5 2.5t8 2.5l84 17q1 0 8 1.5t9 1.5q7 0 7 -21v-312
q0 -48 3 -80t6.5 -42.5t6.5 -19t3 -14.5q0 -8 -11 -11zM356 610l-16 -32q-7 -14 -13 -14q-4 0 -14 4l-176 70q-16 6 -16 13q0 4 5 14l31 61q8 14 14 14q2 0 14 -6l163 -96q13 -8 13 -14q0 -4 -5 -14z" />
    <glyph glyph-name="uacute" unicode="&#xfa;" horiz-adv-x="537" 
d="M473 11l-76 -25q-9 -3 -15 -3q-16 0 -32 59q-66 -59 -153 -59q-53 0 -91.5 32.5t-38.5 113.5v344q0 5 1 8t4.5 5t5.5 2.5t8 2.5l84 17q2 0 8 1.5t8 1.5q8 0 8 -21v-318q0 -84 56 -84q43 0 88 31v354q0 5 1 8t4.5 5t5.5 2.5t8 2.5l84 17q1 0 8 1.5t9 1.5q7 0 7 -21v-312
q0 -48 3 -80t6.5 -42.5t6.5 -19t3 -14.5q0 -8 -11 -11zM400 638l-176 -70q-10 -4 -14 -4q-6 0 -13 14l-16 32q-5 10 -5 14q0 6 13 14l163 96q12 6 14 6q6 0 14 -14l31 -61q5 -10 5 -14q0 -7 -16 -13z" />
    <glyph glyph-name="ucircumflex" unicode="&#xfb;" horiz-adv-x="537" 
d="M473 11l-76 -25q-9 -3 -15 -3q-16 0 -32 59q-66 -59 -153 -59q-53 0 -91.5 32.5t-38.5 113.5v344q0 5 1 8t4.5 5t5.5 2.5t8 2.5l84 17q2 0 8 1.5t8 1.5q8 0 8 -21v-318q0 -84 56 -84q43 0 88 31v354q0 5 1 8t4.5 5t5.5 2.5t8 2.5l84 17q1 0 8 1.5t9 1.5q7 0 7 -21v-312
q0 -48 3 -80t6.5 -42.5t6.5 -19t3 -14.5q0 -8 -11 -11zM402 609l-19 -32q-8 -13 -14 -13q-4 0 -14 6l-86 49l-86 -49q-10 -6 -14 -6q-6 0 -14 13l-19 32q-6 9 -6 14q0 4 12 14l113 89q11 8 14 8t14 -8l113 -89q12 -10 12 -14q0 -5 -6 -14z" />
    <glyph glyph-name="udieresis" unicode="&#xfc;" horiz-adv-x="537" 
d="M473 11l-76 -25q-9 -3 -15 -3q-16 0 -32 59q-66 -59 -153 -59q-53 0 -91.5 32.5t-38.5 113.5v344q0 5 1 8t4.5 5t5.5 2.5t8 2.5l84 17q2 0 8 1.5t8 1.5q8 0 8 -21v-318q0 -84 56 -84q43 0 88 31v354q0 5 1 8t4.5 5t5.5 2.5t8 2.5l84 17q1 0 8 1.5t9 1.5q7 0 7 -21v-312
q0 -48 3 -80t6.5 -42.5t6.5 -19t3 -14.5q0 -8 -11 -11zM250 652q0 -28 -20 -48.5t-49 -20.5t-49 20.5t-20 48.5q0 29 20 49t49 20t49 -20.5t20 -48.5zM427 652q0 -28 -20.5 -48.5t-48.5 -20.5t-48.5 20.5t-20.5 48.5q0 29 20 49t49 20t49 -20.5t20 -48.5z" />
    <glyph glyph-name="yacute" unicode="&#xfd;" horiz-adv-x="481" 
d="M283 241l53 241q6 21 17 21q2 0 9.5 -0.5t8.5 -0.5l70 -9q22 -3 22 -10q0 -2 -1 -4.5t-2 -6.5t-2 -7l-98 -361q-49 -177 -67 -222q-37 -94 -147 -94q-41 0 -88.5 16t-47.5 30q0 4 4 12l30 65q3 7 9 7q1 0 30 -12.5t55 -12.5q36 0 52.5 18t27.5 56l10 33h-42q-14 0 -18 13
l-153 452q-4 7 -5 17q0 8 22 11l83 9q2 0 8.5 0.5t7.5 0.5q8 0 14 -20l65 -242q22 -83 38 -173h2q7 58 33 173zM372 638l-176 -70q-10 -4 -14 -4q-6 0 -13 14l-16 32q-5 10 -5 14q0 6 13 14l163 96q12 6 14 6q6 0 14 -14l31 -61q5 -10 5 -14q0 -7 -16 -13z" />
    <glyph glyph-name="thorn" unicode="&#xfe;" horiz-adv-x="519" 
d="M188 373v-271q34 -19 73 -19q51 0 69.5 38t18.5 130q0 81 -18 120.5t-63 39.5q-39 0 -80 -38zM188 9v-183q0 -13 -12 -16q-1 -1 -4 -1l-3 -1l-84 -17q-2 0 -7.5 -1.5t-6.5 -1.5q-10 0 -10 21v877q0 3 0.5 5.5t1.5 4t1.5 2.5t3 2t3 1.5t4 1.5t4.5 1l84 17q2 0 7.5 1.5
t6.5 1.5q7 0 9 -4t2 -17v-233q48 41 115 41q84 0 128.5 -65t44.5 -190q0 -273 -184 -273q-54 0 -104 26z" />
    <glyph glyph-name="ydieresis" unicode="&#xff;" horiz-adv-x="481" 
d="M283 241l53 241q6 21 17 21q2 0 9.5 -0.5t8.5 -0.5l70 -9q22 -3 22 -10q0 -2 -1 -4.5t-2 -6.5t-2 -7l-98 -361q-49 -177 -67 -222q-37 -94 -147 -94q-41 0 -88.5 16t-47.5 30q0 4 4 12l30 65q3 7 9 7q1 0 30 -12.5t55 -12.5q36 0 52.5 18t27.5 56l10 33h-42q-14 0 -18 13
l-153 452q-4 7 -5 17q0 8 22 11l83 9q2 0 8.5 0.5t7.5 0.5q8 0 14 -20l65 -242q22 -83 38 -173h2q7 58 33 173zM222 652q0 -28 -20 -48.5t-49 -20.5t-49 20.5t-20 48.5q0 29 20 49t49 20t49 -20.5t20 -48.5zM399 652q0 -28 -20.5 -48.5t-48.5 -20.5t-48.5 20.5t-20.5 48.5
q0 29 20 49t49 20t49 -20.5t20 -48.5z" />
    <glyph glyph-name="dotlessi" unicode="&#x131;" horiz-adv-x="315" 
d="M234 480v-466q0 -8 -2.5 -11t-11.5 -3h-99q-9 0 -11.5 3t-2.5 11v387h-77q-9 0 -11.5 3t-2.5 11v65q0 8 2.5 11t11.5 3h190q9 0 11.5 -3t2.5 -11z" />
    <glyph glyph-name="Lslash" unicode="&#x141;" horiz-adv-x="500" 
d="M489 94l-19 -76q-3 -12 -7 -15t-15 -3h-330q-13 0 -17 4t-4 17v239l-60 -35q-5 -3 -9 -3q-6 0 -6 11v63q0 10 9 16l66 38v314q0 13 4 17t17 4h93q13 0 17 -4t4 -17v-229l138 86q7 5 11 5q6 0 6 -11v-71q0 -7 -9 -14l-146 -88v-222h241q18 0 18 -13q0 -5 -2 -13z" />
    <glyph glyph-name="lslash" unicode="&#x142;" horiz-adv-x="370" 
d="M315 101l20 -82q0 -2 1 -4t1 -4q0 -10 -32.5 -19t-68.5 -9q-30 0 -52 7t-35 23.5t-20.5 31t-11 41.5t-4 43t-0.5 47v57l-82 -60q-8 -5 -14 -5q-7 0 -7 11v69q0 6 8 11l95 67v360q0 13 12 16q1 1 4 1l3 1l84 17q2 0 7.5 1.5t6.5 1.5q10 0 10 -21v-287l100 71q4 4 8 4
q7 0 7 -11v-69q0 -6 -8 -12l-107 -76v-165q0 -21 1 -31t7.5 -19.5t19.5 -9.5q12 0 25 4.5t14 4.5q7 0 8 -6z" />
    <glyph glyph-name="OE" unicode="&#x152;" horiz-adv-x="778" 
d="M744 87v-66q0 -13 -3.5 -17t-16.5 -4h-324q-20 -7 -34 -11q-32 -6 -69 -6q-119 0 -184 90.5t-65 268.5q0 179 65.5 269.5t183.5 90.5q31 0 48.5 -2.5t32.5 -8t22 -6.5h323q25 0 25 -11q0 -4 -3 -14l-19 -67q-4 -16 -23 -16h-194v-165h170q13 0 17 -4t4 -17v-66
q0 -13 -4 -17t-17 -4h-170v-196h214q13 0 17 -4t4 -17zM379 114v456q-27 27 -82 27q-107 0 -107 -255q0 -254 107 -254q40 0 82 26z" />
    <glyph glyph-name="oe" unicode="&#x153;" horiz-adv-x="778" 
d="M453 306h151q0 112 -72 112q-68 0 -78 -107q-1 -3 -1 -5zM258 83q44 0 59.5 42t15.5 122q0 79 -16 121.5t-59 42.5q-48 0 -65 -42.5t-17 -121.5q0 -80 17 -122t65 -42zM695 113l25 -60q3 -4 3 -11q0 -20 -60 -39.5t-119 -19.5q-107 0 -147 65q-24 -32 -53 -48.5
t-86 -16.5q-101 0 -159 71.5t-58 192.5t58 192.5t159 71.5q42 0 73 -11t43.5 -22t26.5 -29q56 62 138 62q200 0 200 -273q0 -15 -4.5 -20t-18.5 -5h-263q0 -125 104 -125q32 0 60 8t45.5 16.5t21.5 8.5q7 0 11 -8z" />
    <glyph glyph-name="Scaron" unicode="&#x160;" horiz-adv-x="481" 
d="M437 626l-33 -66q-5 -10 -11 -10q-1 0 -21.5 11t-53.5 22t-65 11q-40 0 -67 -18.5t-27 -59.5q0 -34 29.5 -56.5t87 -49t88.5 -49.5q86 -64 86 -167q0 -95 -60.5 -153t-155.5 -58q-47 0 -98 12t-81 26t-30 22q0 1 5 16l23 66q3 10 11 10l24 -11q25 -11 64.5 -22t77.5 -11
q90 0 90 92q0 31 -19 54.5t-43 35t-68.5 32t-73.5 38.5q-43 26 -65 61t-22 94q0 102 62.5 153t157.5 51q44 0 91 -12t74.5 -26t27.5 -23q0 -5 -5 -15zM368 852l-113 -89q-11 -8 -14 -8t-14 8l-113 89q-12 10 -12 14q0 5 6 14l19 32q8 13 14 13q4 0 14 -6l86 -49l86 49
q10 6 14 6q6 0 14 -13l19 -32q6 -9 6 -14q0 -4 -12 -14z" />
    <glyph glyph-name="scaron" unicode="&#x161;" horiz-adv-x="426" 
d="M377 449l-23 -55q-4 -9 -8 -9q-1 0 -7 2.5t-17 6.5t-24.5 8t-31.5 6.5t-36 2.5q-66 0 -66 -48q0 -24 23.5 -37t67 -27.5t70.5 -32.5q67 -45 67 -122q0 -70 -46.5 -115.5t-124.5 -45.5q-56 0 -122 22.5t-66 42.5q0 2 2.5 6.5t2.5 6.5l22 57q4 9 8 9l24 -11
q23 -11 57.5 -22t61.5 -11q61 0 61 50q0 26 -25 41t-70 30t-69 31q-59 39 -59 113q0 70 49 116.5t128 46.5q48 0 102 -16t54 -33q0 -3 -5 -13zM341 661l-113 -89q-11 -8 -14 -8t-14 8l-113 89q-12 10 -12 14q0 5 6 14l19 32q8 13 14 13q4 0 14 -6l86 -49l86 49q10 6 14 6
q6 0 14 -13l19 -32q6 -9 6 -14q0 -4 -12 -14z" />
    <glyph glyph-name="Ydieresis" unicode="&#x178;" horiz-adv-x="519" 
d="M328 281v-260q0 -13 -4 -17t-17 -4h-93q-13 0 -17 4t-4 17v260l-188 364q-7 12 -7 21q0 8 21 11l100 16q6 1 11 1q9 0 15 -13l81 -171q26 -56 40 -109h2q21 70 44 117l74 156q6 14 9 17t8 3t15 -2l85 -18q18 -4 18 -13q0 -2 -7 -16zM241 843q0 -29 -20.5 -49t-48.5 -20
t-48.5 20t-20.5 49t20 49t49 20q28 0 48.5 -20t20.5 -49zM418 843q0 -29 -20 -49t-49 -20t-49 20t-20 49t20 49t49 20t49 -20.5t20 -48.5z" />
    <glyph glyph-name="Zcaron" unicode="&#x17d;" horiz-adv-x="500" 
d="M482 96l-11 -78q-2 -13 -5.5 -15.5t-16.5 -2.5h-401q-10 0 -13.5 3t-3.5 14v83l269 465h-246q-14 0 -14 12q0 4 2 12l20 78q3 12 6.5 15t15.5 3h344q13 0 17 -3.5t4 -16.5v-90l-267 -455h288q14 -3 14 -12q0 -1 -0.5 -2.5t-1 -4t-0.5 -5.5zM378 852l-113 -89
q-11 -8 -14 -8t-14 8l-113 89q-12 10 -12 14q0 5 6 14l19 32q8 13 14 13q4 0 14 -6l86 -49l86 49q10 6 14 6q6 0 14 -13l19 -32q6 -9 6 -14q0 -4 -12 -14z" />
    <glyph glyph-name="zcaron" unicode="&#x17e;" horiz-adv-x="426" 
d="M410 84l-29 -71q-5 -13 -14 -13h-333q-10 0 -10 10v75l230 304h-202q-7 0 -7 13v78q0 14 14 14h317q17 0 17 -10v-78l-226 -301h228q19 0 19 -10q0 -3 -4 -11zM341 661l-113 -89q-11 -8 -14 -8t-14 8l-113 89q-12 10 -12 14q0 5 6 14l19 32q8 13 14 13q4 0 14 -6l86 -49
l86 49q10 6 14 6q6 0 14 -13l19 -32q6 -9 6 -14q0 -4 -12 -14z" />
    <glyph glyph-name="florin" unicode="&#x192;" 
d="M327 401l-80 -406q-4 -21 -5.5 -28t-9 -33t-15.5 -39t-23.5 -35t-34 -33t-47 -20t-62.5 -9q-84 0 -84 17q0 2 3 11l20 70q1 6 8 6q1 0 7 -1t15 -2t18 -1q21 0 36.5 7.5t24 15t15.5 28t9 27.5t7 34l78 391h-61q-20 0 -20 12q0 7 1 11l9 51q3 19 22 19h69l14 63
q15 71 35 100q43 60 140 60q38 0 69 -8.5t31 -18.5q0 -2 -1 -5.5t-1 -4.5l-22 -65q-5 -10 -9 -10q-1 0 -10.5 4t-23 8t-26.5 4q-12 0 -21.5 -3t-16.5 -9.5t-11.5 -12t-7.5 -15.5l-4.5 -15t-4 -16t-2.5 -13l-8 -43h103q20 0 20 -12q0 -4 -2 -12l-16 -52q-5 -17 -22 -17h-103z
" />
    <glyph glyph-name="circumflex" unicode="&#x2c6;" horiz-adv-x="335" 
d="M301 609l-19 -32q-8 -13 -14 -13q-4 0 -14 6l-86 49l-86 -49q-10 -6 -14 -6q-6 0 -14 13l-19 32q-6 9 -6 14q0 4 12 14l113 89q11 8 14 8t14 -8l113 -89q12 -10 12 -14q0 -5 -6 -14z" />
    <glyph glyph-name="caron" unicode="&#x2c7;" horiz-adv-x="335" 
d="M295 661l-113 -89q-11 -8 -14 -8t-14 8l-113 89q-12 10 -12 14q0 5 6 14l19 32q8 13 14 13q4 0 14 -6l86 -49l86 49q10 6 14 6q6 0 14 -13l19 -32q6 -9 6 -14q0 -4 -12 -14z" />
    <glyph glyph-name="uni02C9" unicode="&#x2c9;" horiz-adv-x="335" 
d="M290 673v-42q0 -13 -3.5 -16.5t-16.5 -3.5h-205q-12 0 -16 3.5t-4 16.5v42q0 13 3.5 16.5t16.5 3.5h205q13 0 16.5 -3.5t3.5 -16.5z" />
    <glyph glyph-name="breve" unicode="&#x2d8;" horiz-adv-x="335" 
d="M238 722l59 -8q11 -2 11 -13q0 -40 -34 -80.5t-106 -40.5q-39 0 -68 13t-44 33.5t-22 39.5t-7 35q0 11 11 13l59 8q2 0 7 0.5t6 0.5q3 0 5 -4t4 -12.5t4 -14.5q12 -30 45 -30q34 0 44 30l3.5 14t4.5 13.5t5 3.5q1 0 6 -0.5t7 -0.5z" />
    <glyph glyph-name="dotaccent" unicode="&#x2d9;" horiz-adv-x="335" 
d="M246 651q0 -32 -23 -54.5t-55 -22.5t-54.5 22.5t-22.5 54.5q0 33 22.5 55.5t54.5 22.5t55 -23t23 -55z" />
    <glyph glyph-name="ring" unicode="&#x2da;" horiz-adv-x="335" 
d="M273 668q0 -43 -31 -73.5t-74 -30.5t-73.5 30.5t-30.5 73.5q0 44 30.5 74.5t73.5 30.5t74 -30.5t31 -74.5zM168 626q18 0 30.5 12t12.5 30t-12.5 30.5t-30.5 12.5t-30 -12.5t-12 -30.5t12.5 -30t29.5 -12z" />
    <glyph glyph-name="ogonek" unicode="&#x2db;" horiz-adv-x="335" 
d="M245 -108l14 -45q0 -1 1.5 -5t1.5 -6q0 -9 -30 -20.5t-60 -11.5q-43 0 -71 22t-28 61q0 76 89 129h78q-83 -75 -83 -110q0 -27 28 -27q18 0 35 9.5t18 9.5q5 0 7 -6z" />
    <glyph glyph-name="tilde" unicode="&#x2dc;" horiz-adv-x="335" 
d="M268 715l47 -24q7 -5 7 -9q0 -2 -4 -11.5t-12.5 -23.5t-20 -27t-30 -22.5t-38.5 -9.5q-27 0 -56 17.5t-40 17.5q-13 0 -22 -9t-14 -18t-9 -9t-9 3l-47 24q-7 4 -7 8q0 2 3.5 11t11.5 23.5t19.5 27.5t29.5 22.5t39 9.5q28 0 59.5 -17.5t42.5 -17.5q15 0 27 18t16 18
q3 0 7 -2z" />
    <glyph glyph-name="hungarumlaut" unicode="&#x2dd;" horiz-adv-x="335" 
d="M220 677l-115 -104q-9 -9 -14 -9q-6 0 -15 9l-15 13q-10 8 -10 15q0 2 8 14l94 122q9 11 15 11q3 0 14 -8l38 -34q10 -10 10 -14q0 -8 -10 -15zM376 677l-115 -104q-9 -9 -14 -9q-6 0 -15 9l-15 13q-10 8 -10 15q0 2 8 14l94 122q9 11 15 11q3 0 14 -8l38 -34
q10 -10 10 -14q0 -8 -10 -15z" />
    <glyph glyph-name="uni03A9" unicode="&#x3a9;" horiz-adv-x="709" 
d="M179 91v3q-53 47 -89 118.5t-36 159.5q0 133 85.5 224t217.5 91q134 0 215.5 -94t81.5 -216q0 -90 -36.5 -164t-90.5 -119v-3h140v-91h-258v67q56 35 93 107.5t37 179.5q0 98 -49 169t-134 71q-84 0 -135.5 -69t-51.5 -175q0 -100 37.5 -175.5t92.5 -107.5v-67h-259v91
h139z" />
    <glyph glyph-name="uni03BC" unicode="&#x3bc;" horiz-adv-x="537" 
d="M194 -7v-167q0 -10 -4.5 -13t-14.5 -5l-84 -17q-9 -3 -16 -3q-8 0 -8 21v664q0 5 1 8t4.5 5t5.5 2.5t8 2.5l84 17q2 0 8 1.5t8 1.5q8 0 8 -21v-318q0 -84 56 -84q43 0 88 31v354q0 5 1 8t4.5 5t5.5 2.5t8 2.5l84 17q1 0 8 1.5t8 1.5q8 0 8 -21v-312q0 -48 3 -80
t6.5 -42.5t6.5 -19t3 -14.5q0 -8 -11 -11l-76 -25q-9 -3 -15 -3q-16 0 -32 59q-65 -59 -114 -59q-20 0 -42 10z" />
    <glyph glyph-name="pi" unicode="&#x3c0;" horiz-adv-x="590" 
d="M566 412h-73v-266q0 -92 13 -146h-109q-17 27 -17 139v273h-148q-4 -94 -23 -219.5t-43 -192.5h-110q25 80 43.5 202t20.5 210q-68 0 -101 -11l-14 75q43 31 158 31h412z" />
    <glyph glyph-name="uni2010" unicode="&#x2010;" horiz-adv-x="370" 
d="M328 292v-73q0 -13 -4 -17t-17 -4h-244q-13 0 -17 4t-4 17v73q0 14 4 17.5t17 3.5h244q13 0 17 -3.5t4 -17.5z" />
    <glyph glyph-name="endash" unicode="&#x2013;" 
d="M515 292v-73q0 -13 -3.5 -17t-17.5 -4h-431q-13 0 -17 4t-4 17v73q0 14 4 17.5t17 3.5h431q14 0 17.5 -3.5t3.5 -17.5z" />
    <glyph glyph-name="emdash" unicode="&#x2014;" horiz-adv-x="1000" 
d="M958 292v-73q0 -13 -4 -17t-17 -4h-874q-13 0 -17 4t-4 17v73q0 14 4 17.5t17 3.5h874q13 0 17 -3.5t4 -17.5z" />
    <glyph glyph-name="quoteleft" unicode="&#x2018;" horiz-adv-x="222" 
d="M208 675l-62 -204q-5 -17 -22 -17h-97q-20 0 -20 11q0 7 5 15l119 223q8 14 14 14l12 -3l38 -13q16 -6 16 -13q0 -4 -3 -13z" />
    <glyph glyph-name="quoteright" unicode="&#x2019;" horiz-adv-x="222" 
d="M210 691l-119 -223q-8 -14 -14 -14l-12 3l-38 13q-16 6 -16 13q0 4 3 13l62 204q5 17 22 17h97q20 0 20 -11q0 -8 -5 -15z" />
    <glyph glyph-name="quotesinglbase" unicode="&#x201a;" horiz-adv-x="222" 
d="M197 99l-119 -223q-8 -14 -14 -14l-12 3l-38 13q-16 6 -16 13q0 4 3 13l62 204q5 17 22 17h97q20 0 20 -11q0 -8 -5 -15z" />
    <glyph glyph-name="quotedblleft" unicode="&#x201c;" horiz-adv-x="500" 
d="M450 675l-62 -204q-5 -17 -22 -17h-97q-20 0 -20 11q0 7 5 15l119 223q8 14 14 14l12 -3l38 -13q16 -6 16 -13q0 -4 -3 -13zM248 675l-62 -204q-5 -17 -22 -17h-97q-20 0 -20 11q0 7 5 15l119 223q8 14 14 14l12 -3l38 -13q16 -6 16 -13q0 -4 -3 -13z" />
    <glyph glyph-name="quotedblright" unicode="&#x201d;" horiz-adv-x="500" 
d="M246 691l-119 -223q-8 -14 -14 -14l-12 3l-38 13q-16 6 -16 13q0 4 3 13l62 204q5 17 22 17h97q20 0 20 -11q0 -8 -5 -15zM448 691l-119 -223q-8 -14 -14 -14l-12 3l-38 13q-16 6 -16 13q0 4 3 13l62 204q5 17 22 17h97q20 0 20 -11q0 -8 -5 -15z" />
    <glyph glyph-name="quotedblbase" unicode="&#x201e;" horiz-adv-x="500" 
d="M250 99l-119 -223q-8 -14 -14 -14l-12 3l-38 13q-16 6 -16 13q0 4 3 13l62 204q5 17 22 17h97q20 0 20 -11q0 -8 -5 -15zM452 99l-119 -223q-8 -14 -14 -14l-12 3l-38 13q-16 6 -16 13q0 4 3 13l62 204q5 17 22 17h97q20 0 20 -11q0 -8 -5 -15z" />
    <glyph glyph-name="dagger" unicode="&#x2020;" 
d="M333 380v-571q0 -13 -4 -17t-17 -4h-68q-14 0 -17.5 3.5t-3.5 17.5v571h-117q-14 0 -17.5 4t-3.5 17v55q0 13 4 16.5t18 3.5h116v189q0 13 3.5 16.5t16.5 3.5h70q13 0 16.5 -3.5t3.5 -16.5v-189h117q13 0 17 -3.5t4 -16.5v-55q0 -13 -4 -17t-17 -4h-117z" />
    <glyph glyph-name="daggerdbl" unicode="&#x2021;" 
d="M333 0v-191q0 -13 -4 -17t-17 -4h-68q-14 0 -17.5 3.5t-3.5 17.5v191h-117q-14 0 -17.5 4t-3.5 17v55q0 13 4 16.5t18 3.5h116v284h-117q-14 0 -17.5 4t-3.5 17v55q0 13 4 16.5t18 3.5h116v189q0 13 3.5 16.5t16.5 3.5h70q13 0 16.5 -3.5t3.5 -16.5v-189h117
q13 0 17 -3.5t4 -16.5v-55q0 -13 -4 -17t-17 -4h-117v-284h117q13 0 17 -3.5t4 -16.5v-55q0 -13 -4 -17t-17 -4h-117z" />
    <glyph glyph-name="bullet" unicode="&#x2022;" horiz-adv-x="500" 
d="M250 180q-75 0 -128 53t-53 127q0 75 53 128.5t128 53.5q74 0 127.5 -53.5t53.5 -128.5q0 -74 -53.5 -127t-127.5 -53z" />
    <glyph glyph-name="ellipsis" unicode="&#x2026;" horiz-adv-x="1000" 
d="M257 90q0 -37 -26.5 -63.5t-63.5 -26.5t-63.5 26t-26.5 64q0 37 26.5 63.5t63.5 26.5t63.5 -26.5t26.5 -63.5zM923 90q0 -37 -26.5 -63.5t-63.5 -26.5t-63.5 26t-26.5 64q0 37 26.5 63.5t63.5 26.5t63.5 -26.5t26.5 -63.5zM590 90q0 -37 -26.5 -63.5t-63.5 -26.5
q-38 0 -64 26t-26 64q0 37 26.5 63.5t63.5 26.5t63.5 -26.5t26.5 -63.5z" />
    <glyph glyph-name="perthousand" unicode="&#x2030;" horiz-adv-x="1185" 
d="M632 58q30 0 39.5 26t9.5 75t-10 75t-39 26t-39 -26t-10 -75t9.5 -75t39.5 -26zM781 159q0 -80 -39.5 -128t-109.5 -48t-109.5 47.5t-39.5 128.5q0 80 39.5 128t109.5 48t109.5 -48t39.5 -128zM586 659l-236 -659q-6 -17 -23 -17h-51q-21 0 -21 10q0 4 4 14l237 662
q6 16 23 16h51q19 0 19 -12q0 -5 -3 -14zM348 492q0 -80 -39.5 -128t-109.5 -48t-109.5 47.5t-39.5 128.5q0 80 39.5 128t109.5 48t109.5 -48t39.5 -128zM199 391q30 0 39.5 26t9.5 75t-10 75t-39 26t-39 -26t-10 -75t9.5 -75t39.5 -26zM1137 159q0 -80 -39.5 -128
t-109.5 -48t-109.5 47.5t-39.5 128.5q0 80 39.5 128t109.5 48t109.5 -48t39.5 -128zM988 58q30 0 39.5 26t9.5 75t-10 75t-39 26t-39 -26t-10 -75t9.5 -75t39.5 -26z" />
    <glyph glyph-name="guilsinglleft" unicode="&#x2039;" horiz-adv-x="370" 
d="M289 37l-50 -31q-12 -6 -14 -6q-5 0 -14 12l-169 224q-6 8 -6 14t6 14l169 219q9 11 14 11q2 0 14 -6l50 -31q13 -8 13 -15q0 -5 -7 -14l-124 -184l124 -178q6 -10 6 -14q0 -8 -12 -15z" />
    <glyph glyph-name="guilsinglright" unicode="&#x203a;" horiz-adv-x="370" 
d="M328 236l-169 -224q-9 -12 -14 -12q-2 0 -14 6l-50 31q-12 7 -12 15q0 4 6 14l124 178l-124 184q-7 9 -7 14q0 7 13 15l50 31q12 6 14 6q5 0 14 -11l169 -219q6 -8 6 -14t-6 -14z" />
    <glyph glyph-name="fraction" unicode="&#x2044;" horiz-adv-x="230" 
d="M276 659l-236 -659q-6 -17 -23 -17h-51q-21 0 -21 10q0 4 4 14l237 662q6 16 23 16h51q19 0 19 -12q0 -5 -3 -14z" />
    <glyph glyph-name="Euro" unicode="&#x20ac;" horiz-adv-x="560" 
d="M419 275q0 -13 -3.5 -16.5t-16.5 -3.5h-149q8 -83 35.5 -123.5t86.5 -40.5q32 0 66 17t40 17q5 0 11 -10l29 -54q5 -10 5 -15q0 -9 -19 -23.5t-57.5 -26.5t-81.5 -12q-111 0 -171 66.5t-72 204.5h-60q-13 0 -16.5 3.5t-3.5 16.5v17q0 13 3.5 16.5t16.5 3.5h57v17
q0 30 1 44h-57q-13 0 -17 4t-4 16v17q0 13 4 16.5t17 3.5h62q17 123 77.5 189t162.5 66q53 0 104.5 -27t51.5 -45q0 -5 -5 -14l-35 -55q-7 -10 -11 -10q-8 0 -40.5 21.5t-62.5 21.5q-52 0 -80.5 -34.5t-36.5 -112.5h149q13 0 16.5 -3.5t3.5 -16.5v-17q0 -13 -3.5 -16.5
t-16.5 -3.5h-153v-18q0 -8 0.5 -22t0.5 -21h152q13 0 16.5 -3.5t3.5 -16.5v-17z" />
    <glyph glyph-name="afii61289" unicode="&#x2113;" horiz-adv-x="504" 
d="M437 167l47 -47q-69 -133 -202 -133q-82 0 -124.5 45t-50.5 118v11q-4 -3 -23.5 -18t-29.5 -23l-29 60q9 7 37.5 30.5t42.5 36.5v247q0 124 48.5 184.5t123.5 60.5q67 0 101.5 -47.5t34.5 -121.5q0 -154 -199 -341v-37q1 -56 27.5 -85.5t66.5 -29.5q74 0 129 90zM214 500
v-168q125 139 125 241q0 86 -58 86q-27 0 -47 -37.5t-20 -121.5z" />
    <glyph glyph-name="trademark" unicode="&#x2122;" horiz-adv-x="704" 
d="M191 643v-248h-43v248h-73v42h190v-42h-74zM577 685v-290h-43v262h-2l-68 -262h-53l-68 262h-2v-262h-43v290h78l60 -228h2l59 228h80z" />
    <glyph glyph-name="Omega" unicode="&#x2126;" horiz-adv-x="709" 
d="M179 91v3q-53 47 -89 118.5t-36 159.5q0 133 85.5 224t217.5 91q134 0 215.5 -94t81.5 -216q0 -90 -36.5 -164t-90.5 -119v-3h140v-91h-258v67q56 35 93 107.5t37 179.5q0 98 -49 169t-134 71q-84 0 -135.5 -69t-51.5 -175q0 -100 37.5 -175.5t92.5 -107.5v-67h-259v91
h139z" />
    <glyph glyph-name="estimated" unicode="&#x212e;" horiz-adv-x="846" 
d="M813 324h-632q-5 0 -5 -4v-191q0 -12 8 -22q102 -104 239 -104q150 0 252 117h56q-54 -63 -135 -99.5t-174 -36.5q-161 0 -275 102.5t-114 247.5t114 248t275 103q162 0 276.5 -103t114.5 -248v-10zM669 349v192q0 14 -9 23q-102 100 -237 100t-238 -103q-9 -9 -9 -24
v-188q0 -6 5 -6h484q4 0 4 6z" />
    <glyph glyph-name="partialdiff" unicode="&#x2202;" horiz-adv-x="563" 
d="M101 619l-33 82q72 56 179 56q113 0 190.5 -97t77.5 -272q0 -180 -73 -290.5t-201 -110.5q-96 0 -149.5 70.5t-53.5 158.5q0 112 61.5 181.5t151.5 69.5q56 0 96 -27.5t56 -55.5h1q1 9 1 35q0 103 -48.5 174.5t-123.5 71.5q-70 0 -132 -46zM251 80h2q55 0 93 63t47 146
q-10 31 -42.5 60t-77.5 29q-52 0 -88 -49t-36 -116q0 -57 28.5 -95t73.5 -38z" />
    <glyph glyph-name="uni2206" unicode="&#x2206;" horiz-adv-x="650" 
d="M27 0v67l234 625h134l227 -624v-68h-595zM144 90h356l-117 307q-7 21 -29.5 86.5t-28.5 88.5h-4q-4 -18 -25 -77.5t-28 -82.5z" />
    <glyph glyph-name="product" unicode="&#x220f;" horiz-adv-x="709" 
d="M685 575h-104v-668h-111v668h-231v-668h-112v668h-103v101h661v-101z" />
    <glyph glyph-name="summation" unicode="&#x2211;" horiz-adv-x="554" 
d="M534 -93h-512v71l247 313l-237 307v78h485v-95h-332v-4l211 -269l-232 -295v-3h370v-103z" />
    <glyph glyph-name="minus" unicode="&#x2212;" 
d="M505 290v-66q0 -10 -3.5 -13.5t-13.5 -3.5h-420q-10 0 -13.5 3.5t-3.5 13.5v66q0 10 3.5 13.5t13.5 3.5h420q10 0 13.5 -3.5t3.5 -13.5z" />
    <glyph glyph-name="uni2215" unicode="&#x2215;" horiz-adv-x="230" 
d="M276 659l-236 -659q-6 -17 -23 -17h-51q-21 0 -21 10q0 4 4 14l237 662q6 16 23 16h51q19 0 19 -12q0 -5 -3 -14z" />
    <glyph glyph-name="uni2219" unicode="&#x2219;" 
d="M354 256q0 -31 -22.5 -53.5t-53.5 -22.5q-32 0 -54.5 22.5t-22.5 53.5q0 32 22.5 54.5t54.5 22.5q31 0 53.5 -22.5t22.5 -54.5z" />
    <glyph glyph-name="radical" unicode="&#x221a;" horiz-adv-x="582" 
d="M589 809l-223 -947h-91l-151 430l-73 -29l-20 63l160 64l110 -324q4 -15 10.5 -42t8.5 -36l2 -1q7 49 15 84l173 738h79z" />
    <glyph glyph-name="infinity" unicode="&#x221e;" horiz-adv-x="764" 
d="M716 280v-1q0 -75 -46.5 -120.5t-109.5 -45.5q-45 0 -87 26t-90 87q-45 -55 -86.5 -84t-96.5 -29q-62 0 -107.5 46t-45.5 116q0 72 46 118.5t115 46.5q51 0 93 -28.5t86 -82.5q33 37 48.5 53.5t53 37t77.5 20.5q65 -1 107.5 -45t42.5 -115zM208 175h2q20 0 38.5 7.5
t39 26t29.5 28t31 35.5q-23 30 -32 41t-29 31t-39.5 27.5t-43.5 7.5q-42 0 -67 -30t-25 -75q0 -41 27.5 -70t68.5 -29zM559 379h-1q-17 0 -33.5 -5.5t-34 -21t-25 -22t-27.5 -29.5l-19 -23q47 -58 77.5 -80.5t66.5 -22.5q39 0 63.5 31t24.5 69q0 46 -26 75t-66 29z" />
    <glyph glyph-name="integral" unicode="&#x222b;" horiz-adv-x="379" 
d="M360 822l-13 -77q-16 9 -36 9q-32 0 -50 -24q-28 -34 -28 -165q0 -76 7 -229.5t7 -240.5q0 -129 -37 -194q-37 -66 -120 -66q-43 0 -73 17l15 79q25 -11 43 -11q30 0 44 20q30 38 30 154q0 88 -7.5 245t-7.5 237q0 84 13.5 133.5t44.5 81.5q39 43 109 43q30 0 59 -12z
" />
    <glyph glyph-name="approxequal" unicode="&#x2248;" horiz-adv-x="548" 
d="M466 435l41 -38q-54 -99 -133 -99q-43 0 -112 40q-53 33 -87 33q-21 0 -39.5 -11.5t-29 -24t-26.5 -35.5l-41 37q23 44 60.5 71t81.5 27q10 0 19 -1t18.5 -4t15.5 -4.5t16 -6.5l13 -6.5t13 -8t11 -6.5q5 -3 19 -11t19 -10.5t15 -6.5t18 -5.5t17 -1.5q27 0 48 18t43 54z
M466 255l41 -38q-54 -98 -133 -98q-42 0 -112 40q-55 33 -87 33q-21 0 -39.5 -11.5t-29 -24t-26.5 -35.5l-41 37q23 44 60.5 71t81.5 27q12 0 23.5 -2t19.5 -4t18.5 -7t15.5 -7.5t15.5 -8.5t13.5 -7q3 -2 17 -10t18.5 -10.5t15 -7.5t19 -6.5t18.5 -1.5q27 0 47.5 17t43.5 54
z" />
    <glyph glyph-name="notequal" unicode="&#x2260;" horiz-adv-x="548" 
d="M399 497l-40 -89h140v-66h-165l-61 -135h226v-66h-252l-50 -113l-52 22l41 91h-138v66h164l60 135h-224v66h249l50 111z" />
    <glyph glyph-name="lessequal" unicode="&#x2264;" horiz-adv-x="548" 
d="M497 95l-444 219v71l444 218v-77l-377 -175v-2l377 -177v-77zM500 -9h-451v67h451v-67z" />
    <glyph glyph-name="greaterequal" unicode="&#x2265;" horiz-adv-x="548" 
d="M55 603l443 -218v-71l-443 -219v77l376 177v2l-376 175v77zM499 -9h-449v67h449v-67z" />
    <glyph glyph-name="lozenge" unicode="&#x25ca;" horiz-adv-x="582" 
d="M531 337l-198 -384h-89l-194 384l198 386h89zM432 335l-121 242q-12 30 -19 55h-3q-6 -24 -19 -55l-121 -237l122 -246q14 -33 17 -52h4q13 41 18 51z" />
    <glyph glyph-name="fi" unicode="&#xfb01;" horiz-adv-x="611" 
d="M455 559q-35 0 -59 24.5t-24 58.5t24 58t59 24q34 0 58 -24t24 -58t-24 -58.5t-58 -24.5zM234 401v-380q0 -13 -4 -17t-17 -4h-85q-13 0 -17 4t-4 17v380h-71q-13 0 -17 4t-4 17v51q0 13 4 17t17 4h71v41q0 189 150 189q31 0 66.5 -11t35.5 -25q0 -3 -2 -9l-18 -70
q-3 -10 -9 -10q-1 0 -17 8.5t-33 8.5q-31 0 -38.5 -18.5t-7.5 -62.5v-41h271q9 0 11.5 -3t2.5 -11v-466q0 -8 -2.5 -11t-11.5 -3h-99q-9 0 -11.5 3t-2.5 11v387h-158z" />
    <glyph glyph-name="fl" unicode="&#xfb02;" horiz-adv-x="630" 
d="M234 401v-380q0 -13 -4 -17t-17 -4h-85q-13 0 -17 4t-4 17v380h-71q-13 0 -17 4t-4 17v51q0 13 4 17t17 4h71v41q0 189 150 189q31 0 66.5 -11t35.5 -25q0 -3 -2 -9l-18 -70q-3 -10 -9 -10q-1 0 -17 8.5t-33 8.5q-31 0 -38.5 -18.5t-7.5 -62.5v-41h101q17 0 17 -10
q0 -2 -2 -10l-14 -59q-3 -14 -19 -14h-83zM601 101l20 -82q0 -2 1 -4t1 -4q0 -10 -32.5 -19t-68.5 -9q-30 0 -52 7t-35 23.5t-20.5 31t-11 41.5t-4 43t-0.5 47v510q0 14 16 17q2 1 3 1l84 17q2 0 7.5 1.5t6.5 1.5q10 0 10 -21v-545q0 -21 1 -31t7.5 -19.5t19.5 -9.5
q12 0 25 4.5t14 4.5q7 0 8 -6z" />
    <glyph glyph-name="a.superior" horiz-adv-x="444" 
d="M346 356l-54 -18q-15 -5 -16 -5q-4 0 -10 13.5t-8 25.5q-1 -1 -4 -4.5t-5 -5t-5.5 -4.5t-6 -5t-7 -5t-8.5 -5t-9.5 -4t-11 -3t-12.5 -2t-14 -1q-47 0 -77 27.5t-30 74.5q0 24 8.5 43t19 31t31 21t32.5 12.5t36 6t30 3t24 0.5v17q0 26 -9 36t-38 10q-25 0 -55 -7.5
t-33 -7.5q-4 0 -6 6l-14 41q-2 6 -2 7q0 11 39 21t82 10q73 0 99.5 -28.5t26.5 -78.5v-117q0 -30 2.5 -49t6 -25.5t6 -11.5t2.5 -10q0 -7 -10 -9zM249 417v80q-91 0 -91 -56q0 -20 12 -31.5t31 -11.5q26 0 48 19z" />
    <glyph glyph-name="o.superior" horiz-adv-x="444" 
d="M371 509q0 -80 -39.5 -128t-109.5 -48t-109.5 47.5t-39.5 128.5q0 80 39.5 128t109.5 48t109.5 -48t39.5 -128zM222 408q30 0 39.5 26t9.5 75t-10 75t-39 26t-39 -26t-10 -75t9.5 -75t39.5 -26z" />
    <glyph glyph-name="one.superior" horiz-adv-x="370" 
d="M306 315v-30q0 -11 -4 -14.5t-15 -3.5h-188q-11 0 -15 3.5t-4 14.5v30q0 10 4 13.5t15 3.5h56v231l-52 -26q-8 -4 -12 -4q-6 0 -13 11l-17 26q-5 8 -5 11q0 4 11 13l115 74h45q11 0 14.5 -3.5t3.5 -13.5v-319h42q11 0 15 -3.5t4 -13.5z" />
    <glyph glyph-name="two.superior" horiz-adv-x="370" 
d="M309 324v-39q0 -11 -3.5 -14.5t-14.5 -3.5h-231q-14 0 -14 16q0 62 20 100q16 30 44.5 54.5t52.5 38t42.5 35t18.5 47.5q0 45 -46 45q-20 0 -33 -9t-17.5 -20.5t-10.5 -20.5t-13 -9q-6 0 -12 3l-38 13q-11 2 -11 13q0 30 37.5 67.5t104.5 37.5q59 0 94 -30t35 -87
q0 -26 -6.5 -47t-22.5 -38.5t-27 -27t-36 -26.5t-33 -23q-41 -31 -43 -57h145q11 0 14.5 -3.5t3.5 -14.5z" />
    <glyph glyph-name="three.superior" horiz-adv-x="370" 
d="M89 574l-34 29q-6 4 -6 10q0 9 14 23.5t43.5 28t63.5 13.5q57 0 94 -29.5t37 -79.5q0 -11 -1 -20t-4.5 -16.5t-5.5 -12.5t-8.5 -11.5t-9 -8.5t-11 -8.5t-10.5 -8.5q15 -9 21 -13t18.5 -16t18 -29.5t5.5 -41.5q0 -58 -44 -92t-107 -34q-39 0 -83 12t-44 26q0 1 0.5 3
t1.5 4.5t1 3.5l12 40q3 10 11 10q2 0 33 -12t61 -12q68 0 68 55q0 53 -77 53h-19q-11 0 -15 3.5t-4 13.5v40q0 11 4 14.5t15 3.5h20q63 0 63 48q0 18 -12.5 29t-32.5 11q-19 0 -32.5 -8.5t-21.5 -17t-13 -8.5t-10 5z" />
    </font>
</defs>
</svg>
