<?xml version="1.0" standalone="no"?>
<!DOCTYPE svg PUBLIC "-//W3C//DTD SVG 1.1//EN" "http://www.w3.org/Graphics/SVG/1.1/DTD/svg11.dtd" >
<svg xmlns="http://www.w3.org/2000/svg" xmlns:xlink="http://www.w3.org/1999/xlink" version="1.1">
<metadata></metadata>
<defs>
<font id="arial_rounded_mt_stdbold" horiz-adv-x="594" >
<font-face units-per-em="1000" ascent="738" descent="-262" />
<missing-glyph horiz-adv-x="297" />
<glyph unicode="fi" d="M89 518v39q0 85 27 120q41 51 124 51q68 0 106 -19q22 -12 22 -38q0 -14 -9 -27.5t-30 -13.5q-4 0 -25 2t-24 2q-41 0 -53 -21.5t-12 -62.5v-32h32q76 0 76 -48q0 -23 -22 -38q-16 -10 -54 -10h-32v-329q0 -27 -0.5 -39t-4.5 -25.5t-12 -21.5q-22 -19 -46 -19 q-26 0 -45 19q-9 8 -13 21.5t-4.5 26t-0.5 38.5v329h-37q-62 0 -62 49q0 17 15 34q12 13 48 13h36zM396 94v331q0 60 10 78q17 27 54 27q46 0 58 -42q4 -13 4 -63v-331q0 -27 -0.5 -39.5t-4.5 -26t-12 -21.5q-21 -19 -46 -19q-26 0 -45 19q-12 11 -15 29.5t-3 57.5zM524 657 q0 -27 -19 -46t-46 -19t-46 19t-19 46q0 26 19 45.5t46 19.5t46 -19.5t19 -45.5z" />
<glyph unicode="fl" d="M396 94v529v30t1.5 21.5t5 21.5t10.5 13q19 19 46 19q9 0 19.5 -2.5t23.5 -14t17 -30.5q3 -16 3 -58v-545q0 -55 -18 -71q-19 -19 -45 -19q-27 0 -46 19q-9 8 -12.5 22t-4 24.5t-0.5 40.5zM89 518v39q0 85 27 120q39 51 124 51q68 0 106 -19q22 -12 22 -38 q0 -14 -9 -27.5t-30 -13.5q-4 0 -25 2t-24 2q-41 0 -53 -21.5t-12 -62.5v-32h32q76 0 76 -48q0 -23 -22 -38q-16 -10 -54 -10h-32v-338v-9v-12t-0.5 -13t-2.5 -15t-5 -14t-8.5 -13t-12 -10t-16.5 -7.5t-22 -2.5q-23 0 -44 23q-15 17 -15 82v329h-37q-62 0 -62 49q0 17 15 34 q12 13 48 13h36z" />
<glyph unicode=" "  horiz-adv-x="297" />
<glyph unicode="&#x09;" horiz-adv-x="297" />
<glyph unicode="&#xa0;" horiz-adv-x="297" />
<glyph unicode="!" horiz-adv-x="333" d="M237 550l-21 -241q-2 -18 -3.5 -28t-6.5 -27t-16 -25.5t-26 -8.5q-44 0 -50 89l-17 235q-3 30 -3 86q0 98 75 98q25 0 40.5 -10.5t21 -30t7 -32.5t1.5 -33q0 -45 -2 -72zM240 62q0 -31 -21.5 -52.5t-51.5 -21.5q-31 0 -52.5 21.5t-21.5 52.5q0 30 21.5 51.5t52.5 21.5 q30 0 51.5 -21.5t21.5 -51.5z" />
<glyph unicode="&#x22;" horiz-adv-x="479" d="M300 461l-26 134v121h150v-121l-23 -134h-101zM81 461l-26 134v121h150v-121l-23 -134h-101z" />
<glyph unicode="#" horiz-adv-x="552" d="M97 285l29 145h-28q-34 0 -48 2t-24 12q-18 16 -18 39t17 40q14 14 73 14h49l23 113q9 45 20 61t40 16q23 0 36.5 -12.5t15 -20.5t1.5 -14q0 -11 -8 -51l-18 -92h108l22 113q5 29 9.5 42.5t16.5 24.5t33 11q30 0 41.5 -15.5t11.5 -33.5q0 -21 -6 -50l-19 -92q70 0 70 -53 q0 -15 -8 -29t-19 -18q-19 -7 -64 -7l-29 -145h54q66 0 66 -53q0 -23 -17 -40q-14 -14 -73 -14h-51l-23 -112q-4 -20 -5.5 -27t-6.5 -20t-10 -17.5t-14 -9t-22 -4.5q-30 0 -42 15.5t-12 33.5q0 15 7 50l18 91h-108l-23 -112q-5 -24 -7.5 -33.5t-9 -22.5t-16.5 -17.5 t-26 -4.5q-30 0 -41.5 15.5t-11.5 33.5q0 15 7 50l18 91q-25 0 -40 7q-27 15 -27 47q0 14 8 28t19 19q14 6 62 6zM343 430h-108l-29 -145h109z" />
<glyph unicode="$" d="M327 628v-203q144 -41 183 -94q41 -57 41 -122q0 -33 -11 -66.5t-35 -67.5t-70 -57.5t-108 -28.5v-122q0 -17 -1.5 -27t-8.5 -19t-21 -9q-15 0 -22 9t-8 19.5t-1 33.5v114q-57 6 -101 26.5t-67 45.5t-37.5 54.5t-18 48t-3.5 31.5q0 23 18 42t48 19q15 0 26 -4.5t18 -15.5 t10.5 -18.5t8.5 -22.5q16 -49 38 -71.5t60 -33.5v227q-35 10 -54.5 16.5t-53.5 23.5t-52.5 37t-33.5 54.5t-15 77.5q0 105 78 158q50 34 131 42v52q0 41 31 41t31 -40v-53q104 -12 155 -70q46 -53 46 -102q0 -20 -17 -39t-45 -19q-18 0 -31 8.5t-18.5 18t-11.5 25.5 q-28 74 -78 81zM265 443v187q-16 -2 -34 -10t-35.5 -30t-17.5 -53q0 -22 7.5 -38.5t23.5 -27.5t26.5 -16t29.5 -12zM327 298v-214q33 6 55.5 21t32 33.5t12.5 31t3 23.5q0 25 -9.5 44t-28.5 31t-31.5 17.5t-33.5 12.5z" />
<glyph unicode="%" horiz-adv-x="854" d="M331 532q0 -79 -29 -122q-43 -63 -124 -63q-45 0 -82 22t-55 62q-18 37 -18 100q0 189 153 189q37 0 65 -10.5t44 -30.5t26.5 -38.5t14 -44t4.5 -37t1 -27.5zM239 537q0 65 -14 93t-48 28q-36 0 -49 -30t-13 -92q0 -65 13 -96t49 -31q37 0 49.5 31.5t12.5 96.5zM831 179 q0 -81 -29 -122q-44 -63 -125 -63q-45 0 -81.5 21.5t-54.5 61.5q-18 38 -18 101q0 188 153 188q44 0 75.5 -17t46.5 -37.5t23 -51.5t9 -46.5t1 -34.5zM739 182q0 65 -14 93.5t-48 28.5q-35 0 -48.5 -30t-13.5 -92q0 -64 13 -95t49 -31q37 0 49.5 31t12.5 95zM190 29l410 661 q9 15 13 20.5t12 10.5t18 5q17 0 24 -10t7 -19q0 -13 -17 -41l-407 -656q-17 -27 -35 -27q-13 0 -24 9t-11 20t10 27z" />
<glyph unicode="&#x26;" horiz-adv-x="760" d="M619 169q41 -36 84 -69q30 -23 30 -52q0 -26 -18.5 -43t-39.5 -17t-48 17.5t-88 68.5q-26 -24 -49 -39.5t-71.5 -31t-106.5 -15.5q-69 0 -121.5 22t-79 56t-39 67t-12.5 63q0 43 16.5 79t46.5 62t52 40t54 30q-74 92 -74 159q0 63 50 112.5t150 49.5q53 0 93.5 -16.5 t62 -42t31.5 -51.5t10 -50q0 -32 -13 -60.5t-39 -51.5t-44 -35.5t-48 -30.5q5 -5 42 -49t44 -52q8 -9 37 -38q3 6 19.5 45t20.5 46q18 31 49 31q25 0 41.5 -17t16.5 -37q0 -52 -59 -150zM293 330q-30 -18 -46 -29.5t-35 -38.5t-19 -58q0 -46 36 -81.5t89 -35.5q73 0 136 66 q-59 52 -161 177zM343 463q26 17 37.5 25t27.5 22.5t22.5 28.5t6.5 31q0 28 -21.5 49.5t-56.5 21.5q-37 0 -58.5 -22.5t-21.5 -45.5q0 -20 16 -47q7 -12 48 -63z" />
<glyph unicode="'" horiz-adv-x="240" d="M71 461l-26 134v121h150v-121l-23 -134h-101z" />
<glyph unicode="(" horiz-adv-x="354" d="M62 259q0 216 127 408q27 41 43.5 51t50.5 10q22 0 22 -12q0 -5 -22 -52q-40 -85 -67.5 -195t-27.5 -210q0 -101 27.5 -211.5t67.5 -192.5q22 -44 22 -53q0 -12 -22 -12q-34 0 -50 10.5t-44 51.5q-127 192 -127 407z" />
<glyph unicode=")" horiz-adv-x="354" d="M292 259q0 -216 -127 -408q-27 -41 -43.5 -51t-50.5 -10q-22 0 -22 12q0 5 22 52q40 85 67.5 195t27.5 210q0 101 -27.5 211.5t-67.5 192.5q-22 44 -22 53q0 12 22 12q34 0 50 -10.5t44 -51.5q127 -192 127 -407z" />
<glyph unicode="*" horiz-adv-x="438" d="M246 596q5 2 19 9t30.5 15.5t18.5 9.5q54 24 69 24q13 0 26 -11t13 -29q0 -30 -36 -42q-53 -18 -122 -28q99 -93 99 -126q0 -17 -12 -28.5t-30 -11.5q-13 0 -26 11t-19.5 21t-17.5 30q-35 63 -39 71q-6 -9 -25 -47q-34 -67 -55 -79q-8 -6 -21 -6q-19 0 -30.5 12t-11.5 26 q0 27 55 84q23 24 44 43q-25 3 -81 16q-40 8 -59 20t-19 34q0 18 13 29t27 11q13 0 67 -24q12 -5 70 -34q-15 65 -15 123q0 21 11.5 33.5t29.5 12.5t29.5 -13t11.5 -34q0 -19 -14 -122z" />
<glyph unicode="+" horiz-adv-x="583" d="M227 103v186h-186v128h186v186h128v-186h187v-128h-187v-186h-128z" />
<glyph unicode="," horiz-adv-x="313" d="M159 -13q-32 -2 -55.5 20t-23.5 54t23.5 53t53.5 21q35 0 59.5 -27.5t24.5 -81.5q0 -76 -43.5 -130t-82.5 -54q-15 0 -24 10t-9 23q0 19 20 32q15 9 23.5 15t20.5 24t13 41z" />
<glyph unicode="-" horiz-adv-x="333" d="M116 312h101q37 0 53 -2.5t27 -13.5q19 -19 19 -43q0 -25 -19 -44q-10 -10 -26.5 -12.5t-53.5 -2.5h-101q-26 0 -37.5 0.5t-23 4t-19.5 10.5q-19 19 -19 43q0 25 19 44q11 11 27 13.5t53 2.5z" />
<glyph unicode="." horiz-adv-x="313" d="M230 62q0 -31 -21.5 -52.5t-51.5 -21.5q-31 0 -52.5 21.5t-21.5 52.5q0 30 21.5 51.5t52.5 21.5q30 0 51.5 -21.5t21.5 -51.5z" />
<glyph unicode="/" horiz-adv-x="281" d="M23 87l137 563q10 47 19.5 62.5t37.5 15.5q51 0 51 -42q0 -14 -10 -57l-137 -563q-10 -46 -20.5 -62t-36.5 -16q-51 0 -51 42q0 14 10 57z" />
<glyph unicode="0" d="M547 351q0 -162 -46 -242q-32 -57 -85.5 -89t-117.5 -32q-26 0 -52 6t-59 22t-62.5 50.5t-49.5 83.5q-29 72 -29 198q0 32 1 56t6 65.5t14 72t28 66t44.5 58.5t65.5 38.5t91 15.5q116 0 181 -85q33 -43 51.5 -105t18.5 -179zM412 360q0 131 -25.5 196t-90.5 65 q-36 0 -60 -20.5t-35.5 -60.5t-15.5 -82t-4 -102q0 -61 4 -103.5t15.5 -83.5t35.5 -61.5t60 -20.5t60 19.5t35.5 59.5t16 84.5t4.5 109.5z" />
<glyph unicode="1" d="M415 633v-547q0 -98 -66 -98q-41 0 -57 31q-10 20 -10 61v431q-125 -95 -166 -95q-22 0 -37.5 15t-15.5 40q0 19 13 31.5t46 28.5q122 60 172 137q15 23 21 31t16.5 14.5t25.5 6.5q58 0 58 -87z" />
<glyph unicode="2" d="M481 0h-339q-34 0 -53 9q-14 8 -24 24.5t-10 32.5q0 28 17.5 59.5t54.5 68.5t61 58.5t70 60.5q87 73 119.5 112.5t32.5 86.5q0 51 -34 78.5t-78 27.5q-46 0 -74 -24t-36 -47q-10 -29 -14.5 -40t-13 -25.5t-19.5 -19.5t-27 -5q-23 0 -40.5 15t-17.5 44q0 21 7 46 t24.5 53.5t44 51.5t70.5 38t98 15q90 0 143 -30q46 -26 73 -73t27 -101q0 -62 -37 -120t-127 -131q-78 -63 -102 -85.5t-54 -64.5h239q18 0 28.5 -1t28.5 -5.5t27.5 -17.5t9.5 -33q0 -16 -8.5 -30.5t-19.5 -20.5q-14 -7 -47 -7z" />
<glyph unicode="3" d="M432 391q115 -63 115 -175q0 -88 -68.5 -158t-187.5 -70q-53 0 -96.5 17t-69.5 41t-44 53t-25 51t-7 36q0 24 17.5 41t44.5 17q18 0 30 -9t16.5 -18.5t10.5 -26.5q36 -106 123 -106q43 0 83 32t40 96q0 55 -30.5 88t-83.5 33q-5 0 -31.5 -2t-30.5 -2q-25 0 -39.5 13.5 t-14.5 36.5q0 53 66 53q35 0 50.5 2.5t36.5 13.5q47 25 47 83q0 39 -26 66t-71 27q-28 0 -48.5 -8t-32 -23t-16.5 -24t-10 -24q-5 -14 -8.5 -21.5t-16 -16.5t-30.5 -9q-26 0 -40.5 16.5t-14.5 39.5q0 54 61 110t167 56q102 0 159 -51.5t57 -125.5q0 -85 -82 -152z" />
<glyph unicode="4" d="M350 152h-212q-50 0 -68 3t-33 17q-25 25 -25 57q0 12 5 24t11.5 21t29.5 40l259 346q20 26 29 36.5t24 19.5t32 9q34 0 56 -27q14 -18 14 -89v-348h21q53 0 67 -15q16 -17 16 -40q0 -22 -17 -39q-15 -15 -57 -15h-30v-63q0 -26 -0.5 -38t-4.5 -25t-12 -20 q-20 -18 -44 -18t-44 17q-12 11 -14.5 28.5t-2.5 55.5v63zM140 261h210v285z" />
<glyph unicode="5" d="M230 594l-27 -157q65 37 128 37q89 0 156.5 -64.5t67.5 -167.5q0 -102 -69 -178t-187 -76q-122 0 -187 67q-26 27 -42.5 59.5t-16.5 53.5q0 16 15 34t41 18q35 0 61 -47q25 -45 52.5 -69t73.5 -24q64 0 94 48t30 106q0 72 -37 108t-88 36q-27 0 -51 -9.5t-36 -18.5 t-33 -28q-19 -16 -44 -16q-23 0 -42 17t-19 39q0 7 5 34l41 234q9 51 31 65t69 14h233q38 0 49 -4q17 -6 27 -21t10 -32q0 -58 -82 -58h-223z" />
<glyph unicode="6" d="M181 387q65 77 161 77q97 0 156 -69t59 -163q0 -100 -66.5 -172t-181.5 -72q-124 0 -193.5 90.5t-69.5 254.5q0 195 74 291q35 46 87.5 71t111.5 25q47 0 85 -12.5t60.5 -30.5t37.5 -40.5t20.5 -40.5t5.5 -31q0 -19 -15 -35.5t-38 -16.5q-19 0 -33 9t-19.5 17t-12.5 23 q-31 62 -92 62q-79 0 -112 -86q-19 -50 -25 -151zM313 84q55 0 83 43.5t28 102.5q0 67 -32 104.5t-80 37.5q-41 0 -80.5 -33t-39.5 -102q0 -59 32.5 -106t88.5 -47z" />
<glyph unicode="7" d="M417 594h-262q-81 0 -81 60q0 19 7 31.5t21.5 17t24.5 5.5t28 1h295q27 0 39.5 -0.5t31.5 -3.5t27.5 -9t15 -18t6.5 -30q0 -20 -10 -35.5t-59 -78.5q-72 -92 -112.5 -197t-75.5 -280q-13 -69 -67 -69q-12 0 -24.5 3.5t-27 23t-14.5 52.5q0 69 58 220t179 307z" />
<glyph unicode="8" d="M427 386q123 -50 123 -179q0 -88 -63 -153.5t-189 -65.5q-71 0 -123.5 21t-79.5 56t-39 70t-12 71q0 46 13.5 80.5t38 55t38 28t33.5 16.5q-100 46 -100 147q0 73 58.5 130t166.5 57q59 0 104 -15.5t68.5 -37.5t38 -50t18.5 -48t4 -37q0 -58 -38 -102q-22 -26 -60 -44z M296 337q-47 0 -83 -32t-36 -95q0 -61 36.5 -95.5t83.5 -34.5q50 0 85 35.5t35 94.5t-34.5 93t-86.5 34zM296 628q-48 0 -75.5 -29.5t-27.5 -71.5q0 -45 29.5 -71.5t73.5 -26.5t73.5 27t29.5 71q0 41 -28 71t-75 30z" />
<glyph unicode="9" d="M407 321q-65 -77 -161 -77q-97 0 -156 69t-59 163q0 100 66.5 172t181.5 72q124 0 193.5 -90.5t69.5 -254.5q0 -195 -74 -291q-35 -46 -87.5 -71t-111.5 -25q-47 0 -85 12.5t-60.5 30.5t-37.5 40.5t-20.5 40.5t-5.5 31q0 19 15 35.5t38 16.5q19 0 33 -9t19.5 -17 t12.5 -23q31 -62 92 -62q79 0 112 86q19 50 25 151zM275 624q-55 0 -83 -43.5t-28 -102.5q0 -67 32 -104.5t80 -37.5q41 0 80.5 33t39.5 102q0 59 -32.5 106t-88.5 47z" />
<glyph unicode=":" horiz-adv-x="313" d="M230 62q0 -31 -21.5 -52.5t-51.5 -21.5q-31 0 -52.5 21.5t-21.5 52.5q0 30 21.5 51.5t52.5 21.5q30 0 51.5 -21.5t21.5 -51.5zM230 457q0 -31 -21.5 -52.5t-51.5 -21.5q-31 0 -52.5 21.5t-21.5 52.5q0 30 21.5 51.5t52.5 21.5q30 0 51.5 -21.5t21.5 -51.5z" />
<glyph unicode=";" horiz-adv-x="313" d="M230 457q0 -31 -21.5 -52.5t-51.5 -21.5q-31 0 -52.5 21.5t-21.5 52.5q0 30 21.5 51.5t52.5 21.5q30 0 51.5 -21.5t21.5 -51.5zM159 -13q-32 -2 -55.5 20t-23.5 54t23.5 53t53.5 21q35 0 59.5 -27.5t24.5 -81.5q0 -76 -43.5 -130t-82.5 -54q-15 0 -24 10t-9 23 q0 19 20 32q35 22 46 40q10 18 11 40z" />
<glyph unicode="&#x3c;" horiz-adv-x="583" d="M537 626v-138l-343 -135l343 -133v-137l-491 212v117z" />
<glyph unicode="=" horiz-adv-x="583" d="M542 397h-501v128h501v-128zM542 182h-501v128h501v-128z" />
<glyph unicode="&#x3e;" horiz-adv-x="583" d="M46 81v138l343 135l-343 133v137l491 -212v-117z" />
<glyph unicode="?" horiz-adv-x="573" d="M44 524q0 16 6 39t24 52.5t44.5 54t73 41.5t104.5 17q106 0 170.5 -57t64.5 -137q0 -54 -26 -89.5t-113 -114.5q-31 -28 -40 -44.5t-17 -55.5q-11 -51 -58 -51q-36 0 -52 28q-8 15 -8 43q0 39 17 73t36 53.5t59 54.5q38 33 53.5 54.5t15.5 46.5q0 37 -28.5 64.5 t-75.5 27.5q-30 0 -52.5 -9t-36 -28t-19.5 -32.5t-14 -36.5q-18 -55 -64 -55q-27 0 -45.5 19.5t-18.5 41.5zM355 62q0 -31 -21.5 -52.5t-52.5 -21.5q-30 0 -51.5 21.5t-21.5 52.5q0 30 21.5 51.5t51.5 21.5q31 0 52.5 -21.5t21.5 -51.5z" />
<glyph unicode="@" horiz-adv-x="979" d="M868 9h103q-56 -114 -171 -167t-260 -53q-55 0 -107 6.5t-115.5 27t-114 53.5t-94 93t-63.5 139q-16 63 -16 128q0 70 17.5 137.5t56.5 132.5t95.5 113.5t142 78.5t188.5 30q193 0 304.5 -107.5t111.5 -268.5q0 -63 -23 -125.5t-63.5 -113t-102.5 -82t-134 -31.5 q-26 0 -44 5.5t-27 16.5t-12 17.5t-6 16.5q-56 -56 -133 -56q-86 0 -136.5 59t-50.5 145q0 73 28.5 145.5t91 126t144.5 53.5q87 0 129 -66l12 54h128l-73 -350q-7 -34 -7 -43q0 -24 19 -24q46 0 108 76.5t62 180.5q0 46 -16 91.5t-51 90t-102.5 72t-158.5 27.5 q-97 0 -172 -30t-118.5 -74t-71 -102t-37 -107t-9.5 -96q0 -50 11.5 -96.5t41.5 -93.5t75.5 -81.5t118.5 -56.5t165 -22q232 0 336 130zM340 210q0 -55 18 -82q27 -39 69 -39q40 0 72 27.5t48.5 67.5t24.5 77.5t8 65.5q0 14 -3.5 30.5t-12 37t-28 33.5t-47.5 13 q-52 0 -88 -45t-48.5 -94.5t-12.5 -91.5z" />
<glyph unicode="A" horiz-adv-x="719" d="M502 169h-290l-34 -90q-21 -55 -35 -73t-46 -18q-30 0 -49.5 20t-19.5 44q0 25 20 75l184 465q33 85 46 101q7 8 15 14q31 21 63 21q62 0 93 -55q9 -17 33 -80l188 -462q21 -53 21 -77t-20 -45t-51 -21q-32 0 -46.5 18.5t-36.5 74.5zM249 281h215l-109 294z" />
<glyph unicode="B" horiz-adv-x="719" d="M384 0h-186q-51 0 -67.5 3t-33.5 18q-11 9 -15.5 24t-5 27.5t-0.5 48.5v473q0 51 3 67.5t18 32.5q14 15 33 18.5t68 3.5h199q104 0 156 -31q39 -23 62 -63t23 -86q0 -108 -107 -157q140 -42 140 -175q0 -62 -32 -109.5t-83 -70.5q-54 -24 -172 -24zM373 313h-153v-201 h158q17 0 25.5 0.5t29.5 3t34 9t27.5 17t22 29t7.5 43.5q0 24 -8 42.5t-23.5 28.5t-29 16.5t-35.5 8.5t-30 2.5t-25 0.5zM220 604v-179h135q20 0 26 0.5t28 2t33 7.5t26 15.5t21.5 26.5t6.5 40q0 21 -6.5 37t-20.5 25t-26.5 14.5t-34.5 7.5t-33.5 2.5t-34.5 0.5h-120z" />
<glyph unicode="C" horiz-adv-x="740" d="M689 226q0 -43 -30 -96.5t-81 -89.5q-75 -52 -184 -52q-168 0 -255 103q-89 105 -89 266q0 169 95.5 270t248.5 101q73 0 132 -24t92 -59.5t50.5 -71t17.5 -63.5q0 -21 -16.5 -41.5t-47.5 -20.5q-26 0 -39.5 14.5t-38.5 61.5q-22 41 -63 65t-88 24q-86 0 -141 -65 t-55 -197q0 -136 62 -198q50 -50 130 -50q125 0 169 122q7 20 12.5 31t20 22t34.5 11q25 0 44.5 -17t19.5 -46z" />
<glyph unicode="D" horiz-adv-x="740" d="M360 0h-160q-50 0 -70.5 4.5t-36.5 24.5q-10 12 -12 29t-2 63v473q0 51 3 67.5t18 32.5q14 15 33 18.5t67 3.5h157q38 0 64.5 -2.5t66.5 -13t75.5 -36t64.5 -66.5q63 -88 63 -242q0 -189 -107 -286q-76 -70 -224 -70zM223 604v-492h111q22 0 35 0.5t38 5.5t41 13.5 t36 26.5t31.5 43.5t20 65.5t8.5 91q0 132 -62 198q-27 28 -60 38t-103 10h-96z" />
<glyph unicode="E" horiz-adv-x="667" d="M223 604v-175h277q58 0 73 -15q18 -18 18 -40q0 -23 -17 -40t-74 -17h-277v-205h313q53 0 66 -6q29 -13 29 -49q0 -29 -22 -45q-16 -12 -73 -12h-336q-52 0 -68 3t-32 18q-15 14 -18 32t-3 68v473q0 52 3 68t18 32q15 15 32.5 18.5t67.5 3.5h325q25 0 35.5 -0.5t22 -4 t18.5 -10.5q17 -17 17 -41t-17 -41q-10 -10 -25.5 -12.5t-50.5 -2.5h-302z" />
<glyph unicode="F" horiz-adv-x="604" d="M219 604v-183h216q58 0 73 -16q17 -17 17 -39q0 -28 -18 -41q-19 -16 -72 -16h-216v-201v-13.5v-15.5t-0.5 -15.5t-2 -16.5t-4 -14.5t-6 -14.5t-9 -12t-12.5 -10t-16.5 -5.5t-21.5 -2.5q-21 0 -36 8.5t-22 18t-10.5 30.5t-3.5 30v33v486q0 52 3 68t18 32q15 15 32.5 18.5 t67.5 3.5h285q35 0 50.5 -2.5t25.5 -12.5q17 -17 17 -41t-17 -41q-10 -10 -25.5 -12.5t-50.5 -2.5h-262z" />
<glyph unicode="G" horiz-adv-x="792" d="M597 154v109h-99q-62 0 -77 15q-16 18 -16 41q0 56 72 56h157q57 0 78 -19t21 -79v-104q0 -41 -4.5 -59.5t-20.5 -31.5q-44 -34 -119.5 -64t-170.5 -30q-93 0 -164.5 29t-115.5 80t-66.5 117t-22.5 144q0 74 21 138.5t64 117.5t117 83.5t171 30.5q69 0 123 -17t84 -41 t49.5 -53t25.5 -48.5t6 -32.5q0 -25 -20 -44.5t-49 -19.5q-26 0 -39.5 12t-35.5 47q-51 82 -156 82q-108 0 -161 -73t-53 -176q0 -138 66 -204q57 -57 151 -57q88 0 184 51z" />
<glyph unicode="H" horiz-adv-x="760" d="M223 432h314v176q0 32 0.5 45.5t5 28t13.5 23.5q23 23 52 23q32 0 54 -22q13 -13 16 -33t3 -65v-500q0 -32 -0.5 -46t-5 -28.5t-13.5 -23.5q-22 -22 -53 -22t-53 22q-13 13 -16 33t-3 65v212h-314v-212q0 -32 -0.5 -46t-5 -28.5t-13.5 -23.5q-22 -22 -52 -22 q-32 0 -54 22q-13 13 -16 33t-3 65v500q0 32 0.5 45.5t5 28t13.5 23.5q23 23 53 23q31 0 53 -22q13 -13 16 -33t3 -65v-176z" />
<glyph unicode="I" horiz-adv-x="313" d="M228 608v-500q0 -34 -0.5 -46t-4.5 -27t-13 -25q-22 -22 -53 -22q-30 0 -54 22q-10 9 -14 24.5t-4.5 27.5t-0.5 46v500q0 32 0.5 45.5t5 28t13.5 23.5q23 23 53 23q31 0 53 -22q10 -10 14 -25t4.5 -27t0.5 -46z" />
<glyph unicode="J" horiz-adv-x="573" d="M349 244v364q0 30 0.5 44t5.5 30t14 25q23 21 52 21t52 -21q14 -13 17 -34t3 -65v-343q0 -41 -2 -68t-17 -72.5t-44 -74.5q-62 -62 -176 -62q-61 0 -107 19.5t-69.5 45.5t-38 61t-17.5 58t-3 44q0 23 8.5 39t22 21.5t22 7.5t15.5 2q9 0 17 -2t13.5 -4.5t10.5 -9t8 -10.5 t6.5 -15t5.5 -16t6 -20.5t6 -21.5q5 -17 9.5 -27.5t14.5 -25.5t27 -23t41 -8q97 0 97 141z" />
<glyph unicode="K" horiz-adv-x="740" d="M223 389l286 297q14 14 21.5 21t22 14t30.5 7q32 0 51 -19.5t19 -41.5q0 -32 -34 -65l-176 -167l204 -291q42 -62 42 -95q0 -26 -18.5 -43.5t-51.5 -17.5q-14 0 -27 4.5t-20.5 8.5t-18 16.5t-13.5 16.5t-14 21t-12 19l-171 264l-120 -114v-148q0 -43 -18 -65 q-19 -23 -53 -23q-20 0 -38.5 10.5t-24.5 25.5q-10 24 -10 84v500q0 30 0.5 44t5.5 30t14 25q23 21 52 21q31 0 52 -21q14 -14 17 -34.5t3 -64.5v-219z" />
<glyph unicode="L" horiz-adv-x="604" d="M219 112h269q26 0 37.5 -0.5t23.5 -4t19 -11.5q19 -17 19 -39q0 -23 -18 -41q-11 -11 -27 -13.5t-54 -2.5h-291q-53 0 -68.5 3t-31.5 18q-15 15 -18.5 32.5t-3.5 67.5v487q0 32 0.5 45.5t5 28t13.5 23.5q23 23 53 23t54 -22q12 -11 15 -28.5t3 -56.5v-13v-496z" />
<glyph unicode="M" horiz-adv-x="833" d="M206 564v-464q0 -41 -3 -59.5t-16 -31.5q-21 -21 -49 -21q-29 0 -49 20q-12 12 -15 30.5t-3 61.5v519q0 59 21.5 78t69.5 19h44q58 0 74 -16t33 -80l104 -392l103 392q17 64 33 80t74 16h44q51 0 71 -21t20 -76v-519q0 -30 -0.5 -43t-4.5 -26t-12 -22q-23 -21 -50 -21 q-29 0 -49 20q-12 12 -15.5 31.5t-3.5 60.5v464l-113 -456q-19 -78 -42 -101q-19 -19 -55 -19q-37 0 -59 22q-19 19 -39 98z" />
<glyph unicode="N" horiz-adv-x="760" d="M545 219v425q0 44 17 62q22 22 50 22q29 0 50 -21q12 -12 15 -31t3 -62v-479v-17v-21t-1 -20.5t-3.5 -22.5t-6.5 -20t-10.5 -19t-15 -13.5t-21.5 -10.5t-28 -3q-33 0 -51.5 16.5t-55.5 72.5l-272 413v-389q0 -32 -0.5 -43.5t-4 -25.5t-12.5 -23q-21 -21 -50 -21 q-30 0 -50 21q-12 13 -15 32t-3 60v484q0 62 4.5 83t24.5 39q24 21 57 21q37 0 61 -29q1 -2 40 -58z" />
<glyph unicode="O" horiz-adv-x="792" d="M393 728q83 0 148 -25t102.5 -63t61.5 -89t32.5 -97.5t8.5 -94.5q0 -52 -9.5 -101t-34.5 -99t-63 -87t-100.5 -60.5t-141.5 -23.5t-141.5 23t-101 60t-63.5 86.5t-35 98t-10 99.5q0 164 88 268.5t259 104.5zM396 613q-21 0 -42.5 -4t-52 -19.5t-53 -41.5t-39 -75 t-16.5 -115q0 -97 35 -159q25 -45 70 -70.5t97 -25.5q19 0 39.5 3.5t51.5 19.5t54.5 41.5t41 75t17.5 115.5q0 112 -51 183.5t-152 71.5z" />
<glyph unicode="P" horiz-adv-x="667" d="M223 279v-171q0 -74 -18 -96q-22 -24 -55 -24q-20 0 -37.5 10t-24.5 25q-9 22 -9 85v486q0 50 3 67.5t19 34.5q18 20 81 20h175q99 0 147 -19q39 -15 65.5 -42t37 -57.5t14 -51.5t3.5 -41q0 -150 -122 -203q-53 -23 -145 -23h-134zM322 604h-99v-213h99q22 0 33.5 0.5 t38.5 6t42 15.5t28 32t13 53q0 61 -48 90q-27 16 -107 16z" />
<glyph unicode="Q" horiz-adv-x="792" d="M655 89q22 -15 83 -49q30 -17 39 -28.5t9 -25.5q0 -21 -15 -36.5t-33 -15.5q-41 0 -167 90q-71 -36 -174 -36q-79 0 -141.5 23.5t-101 60t-64 86.5t-35 98t-9.5 99q0 164 87.5 268.5t259.5 104.5q82 0 146.5 -24.5t102.5 -61.5t62 -88t33 -98t9 -97q0 -171 -91 -270z M541 168q58 67 58 190q0 132 -64 198q-55 57 -144 57q-16 0 -34 -3t-49.5 -17.5t-55 -39.5t-41.5 -75.5t-18 -119.5q0 -97 35 -159q26 -46 70.5 -71t96.5 -25q37 0 75 15q-30 22 -62 36q-30 13 -42.5 25t-12.5 27q0 11 11 23.5t26 12.5q45 0 151 -74z" />
<glyph unicode="R" horiz-adv-x="719" d="M222 306v-198q0 -68 -13 -90q-17 -30 -61 -30q-20 0 -34 8t-21 17.5t-10.5 28.5t-4 31t-0.5 35v486q0 51 3 67.5t18 32.5q14 15 33.5 18.5t66.5 3.5h203q112 0 165 -31q94 -55 94 -167q0 -44 -15.5 -79t-34.5 -54t-48.5 -33.5t-45.5 -19t-38 -9.5q73 -41 135 -145 q60 -100 60 -132q0 -22 -19.5 -40t-51.5 -18q-17 0 -29.5 5t-26 21t-20.5 26.5t-25 39.5l-59 97q-51 83 -84.5 106t-85.5 23h-51zM357 604h-135v-195h130q23 0 38.5 1t41.5 6t41.5 15t28 30.5t12.5 48.5q0 56 -47 81q-24 13 -110 13z" />
<glyph unicode="S" horiz-adv-x="667" d="M622 215q0 -98 -74.5 -162.5t-208.5 -64.5q-70 0 -124.5 18.5t-84 44t-48 57t-24 53.5t-5.5 38q0 24 18 43.5t48 19.5q19 0 32.5 -10.5t20 -23t20.5 -44.5q37 -90 142 -90q58 0 102 27t44 78q0 23 -10 40.5t-23.5 28.5t-40 21t-44.5 14.5t-53 12.5q-75 18 -110.5 32.5 t-61.5 34.5q-70 56 -70 145q0 91 72 145.5t197 54.5q75 0 129.5 -21.5t79.5 -52.5t36 -56.5t11 -44.5q0 -23 -18 -45t-48 -22q-26 0 -40 14.5t-31 50.5q-7 14 -13 22.5t-20.5 22.5t-38.5 21.5t-56 7.5q-50 0 -87.5 -22t-37.5 -62q0 -18 10 -33t22 -24t37.5 -18.5t39.5 -13 l46 -11.5q85 -20 127 -37t72 -41q66 -52 66 -148z" />
<glyph unicode="T" horiz-adv-x="625" d="M385 604v-496q0 -44 -3.5 -65t-17.5 -34q-23 -21 -51 -21q-30 0 -53 21q-9 9 -13.5 25.5t-5 28.5t-0.5 45v496h-132h-13h-12.5h-10.5t-10 0.5t-8.5 1t-8.5 2t-7 3t-7 3.5t-5 5q-18 18 -18 41q0 22 17 41q3 3 5.5 5t6.5 3.5t7 3t8.5 2t9 1t10.5 0.5h10.5h12.5h13h407h13 h12.5h10.5t10 -0.5t8.5 -1t8.5 -2t7 -3t7 -3.5t5 -5q18 -18 18 -41q0 -22 -17 -41q-3 -3 -5.5 -5t-6.5 -3.5t-7 -3t-8.5 -2t-9 -1t-10.5 -0.5h-10.5h-12.5h-13h-131z" />
<glyph unicode="U" horiz-adv-x="760" d="M223 608v-320q0 -27 1 -44.5t9.5 -47t24 -47.5t47.5 -32t77 -14q44 0 75 14t46 32t23.5 47t9.5 46t1 43v323q0 34 0.5 46t4.5 27t13 24q23 23 53 23t54 -22q13 -14 16 -33.5t3 -64.5v-312q0 -27 -0.5 -44.5t-6 -53.5t-16 -60t-31.5 -55t-51 -50t-77 -32t-107 -13 q-94 0 -163 23.5t-112 93.5q-38 63 -38 191v312q0 32 0.5 45.5t5 28t13.5 23.5q23 23 53 23q32 0 54 -22q3 -3 5.5 -6.5t4 -6.5t3 -7.5l2.5 -7.5t1.5 -9.5t1 -9.5t0.5 -11.5v-11.5v-13.5v-14.5z" />
<glyph unicode="V" horiz-adv-x="688" d="M346 153l163 483q10 29 14.5 40t14 26.5t21.5 20.5t31 5q28 0 48 -20t20 -44q0 -20 -20 -73l-172 -468q-22 -59 -32.5 -81t-27.5 -34q-28 -20 -62 -20q-35 0 -63 20q-17 12 -27.5 34t-32.5 81l-170 464q-21 56 -21 74q0 25 20 46t51 21q25 0 41 -13t22 -28t20 -54z" />
<glyph unicode="W" horiz-adv-x="938" d="M469 542l-117 -430q-9 -35 -14.5 -51.5t-17 -36.5t-29 -28t-42.5 -8t-42 8t-28.5 28.5t-16.5 38t-14 53.5l-119 482q-11 33 -11 66q0 24 19 44t48 20q38 0 52 -23t25 -76l95 -418l105 391q20 75 39 98q8 10 27 19t41 9q20 0 39.5 -8.5t28.5 -19.5q18 -22 39 -98l105 -391 l95 418q14 69 33 84t43 15q30 0 49 -20t19 -45q0 -21 -11 -65l-119 -482q-9 -37 -14.5 -53.5t-16.5 -37.5t-28 -29t-42 -8t-42.5 8t-29 28.5t-17 36.5t-15.5 51z" />
<glyph unicode="X" horiz-adv-x="604" d="M215 369l-138 212q-38 57 -38 90q0 26 18.5 41.5t45.5 15.5t44 -17.5t48 -66.5l108 -174l114 174q38 58 52 71t41 13q26 0 43.5 -16.5t17.5 -39.5q0 -29 -38 -88l-141 -211l152 -234q38 -58 38 -89q0 -25 -17 -43.5t-49 -18.5q-28 0 -43.5 15t-46.5 64l-126 198 l-135 -204q-22 -33 -30.5 -44.5t-22.5 -20t-35 -8.5q-12 0 -23 3.5t-22 18t-11 38.5q0 38 36 90z" />
<glyph unicode="Y" horiz-adv-x="625" d="M239 303l-175 271q-43 66 -43 92t20 44t48 18q27 0 42.5 -16t47.5 -68l134 -217l135 217q27 44 39 59q22 25 53 25q27 0 45.5 -18t18.5 -43q0 -24 -42 -89l-179 -275v-195q0 -44 -3 -65t-17 -34q-23 -21 -52 -21q-31 0 -52 21q-14 14 -17 34.5t-3 64.5v195z" />
<glyph unicode="Z" horiz-adv-x="646" d="M428 604h-292q-49 0 -67 10q-25 14 -25 46q0 24 16 40q10 11 26 13.5t50 2.5h367q17 0 26 -0.5t24.5 -4.5t23.5 -11.5t14.5 -22.5t6.5 -37q0 -30 -12.5 -51t-54.5 -72l-343 -405h353q61 0 76 -16q17 -19 17 -40q0 -24 -16 -40t-77 -16h-405q-69 0 -90 10q-15 7 -27.5 26 t-12.5 41q0 20 8 33t45 57z" />
<glyph unicode="[" horiz-adv-x="354" d="M197 624v-708h60q56 0 70 -14q16 -16 16 -38q0 -23 -16 -38q-14 -14 -70 -14h-74q-42 0 -57.5 3t-31.5 18q-15 14 -18 32t-3 69v673q0 52 3 68t18 32q14 15 30.5 18t58.5 3h74q56 0 70 -14q16 -16 16 -38t-16 -38q-14 -14 -70 -14h-60z" />
<glyph unicode="\" horiz-adv-x="281" d="M160 66l-137 563q-10 45 -10 57q0 17 11 29q13 13 39 13q27 0 37 -15.5t21 -62.5l137 -563q10 -44 10 -57q0 -3 -0.5 -6t-3 -10t-7 -12.5t-15 -9.5t-24.5 -4q-27 0 -37.5 15.5t-20.5 62.5z" />
<glyph unicode="]" horiz-adv-x="354" d="M157 -84v708h-60q-56 0 -70 14q-16 16 -16 38q0 23 16 38q16 14 70 14h74q42 0 57.5 -3t31.5 -18q15 -14 18 -32t3 -69v-673q0 -52 -3 -68t-18 -32q-14 -15 -30.5 -18t-58.5 -3h-74q-56 0 -70 14q-16 16 -16 38t16 38q14 14 70 14h60z" />
<glyph unicode="^" horiz-adv-x="583" d="M56 338l183 390h109l179 -390h-139l-96 239l-96 -239h-140z" />
<glyph unicode="_" horiz-adv-x="500" d="M-6 -125v50h512v-50h-512z" />
<glyph unicode="`" horiz-adv-x="333" d="M225 632q17 -31 17 -36q0 -12 -19 -12q-10 0 -18.5 1t-15 2t-14.5 5.5t-12 6.5t-14 10t-13.5 11t-17 14.5t-18.5 16.5q-60 53 -60 63q0 7 24 7h49q32 0 43 -2t23.5 -13t27.5 -40z" />
<glyph unicode="a" d="M406 63q-97 -75 -187 -75q-93 0 -136 46.5t-43 104.5q0 61 38.5 95.5t91.5 48.5q31 8 102.5 23t123.5 30q-1 20 -2 30t-6 26.5t-14.5 25t-28 15t-44.5 6.5q-91 0 -119 -51q-11 -20 -16.5 -28.5t-17.5 -16.5t-29 -8q-20 0 -37.5 13.5t-17.5 36.5q0 34 23 64t52 47 q58 34 158 34q74 0 122 -14t71.5 -44.5t31.5 -66t7 -88.5l-3 -125q-2 -58 14 -100q12 -32 12 -51q0 -21 -18.5 -37t-42.5 -16q-40 0 -85 75zM397 256q-30 -12 -81 -22q-82 -16 -112.5 -33.5t-30.5 -52.5q0 -26 21 -49.5t66 -23.5q42 0 78.5 22t49.5 60q9 25 9 99z" />
<glyph unicode="b" horiz-adv-x="625" d="M190 77v-13q0 -76 -66 -76q-30 0 -49 18q-12 11 -15 29.5t-3 56.5v525q0 49 5 68q6 22 24 32.5t37 10.5t32.5 -6.5t20 -14.5t10 -25t4 -28t0.5 -33v-173q23 24 39 37.5t54 29t82 15.5q109 0 165.5 -76.5t56.5 -187.5q0 -119 -58.5 -198.5t-164.5 -79.5q-35 0 -64 8 t-50.5 24t-33 27.5t-26.5 29.5zM328 90q46 0 81 36q43 45 43 136q0 81 -35 123.5t-88 42.5q-60 0 -96 -47.5t-36 -127.5q0 -81 38.5 -122t92.5 -41z" />
<glyph unicode="c" d="M547 153q0 -22 -14 -48.5t-41 -53.5t-75.5 -45t-108.5 -18q-66 0 -115.5 19.5t-77 48.5t-45 67.5t-22.5 69.5t-5 63q0 50 14 96.5t43.5 87.5t83.5 65.5t126 24.5q102 0 166 -52.5t64 -102.5q0 -25 -18 -41t-41 -16q-29 0 -46 25q-28 43 -54.5 64t-71.5 21 q-48 0 -79.5 -29t-42.5 -65.5t-11 -76.5q0 -63 26 -108q37 -62 107 -62q38 0 66.5 17.5t42.5 39.5q3 4 7 11q22 35 33 45.5t32 10.5q26 0 41.5 -19.5t15.5 -38.5z" />
<glyph unicode="d" horiz-adv-x="625" d="M433 64v13q-21 -25 -36.5 -40t-53.5 -32t-84 -17q-106 0 -164.5 79.5t-58.5 198.5q0 111 56.5 187.5t165.5 76.5q45 0 83 -16t53.5 -29t38.5 -37v173q0 22 0.5 33t4 28t10 25t20 14.5t32.5 6.5q18 0 36 -10.5t25 -32.5q5 -16 5 -68v-525q0 -26 -0.5 -38t-4.5 -26t-13 -22 q-18 -18 -49 -18q-66 0 -66 76zM295 90q54 0 92.5 41t38.5 122q0 80 -36 128t-96 48q-53 0 -88 -43t-35 -124q0 -91 43 -136q35 -36 81 -36z" />
<glyph unicode="e" d="M441 226h-262q1 -41 14 -71.5t33.5 -46.5t42 -24t44.5 -8q67 0 126 59q21 21 33 28.5t28 7.5q18 0 31 -11t13 -28q0 -18 -13 -41t-38.5 -46.5t-72 -40t-104.5 -16.5q-93 0 -154 36q-50 29 -78.5 81t-34 86.5t-5.5 67.5q0 116 66 193.5t195 77.5q55 0 99 -16.5t70.5 -41.5 t44.5 -56.5t25 -59t7 -51.5q0 -23 -8 -38.5t-17.5 -23.5t-27.5 -12t-28.5 -4.5t-28.5 -0.5zM179 302h243q-4 54 -21 80q-35 56 -100 56q-70 0 -103 -65q-15 -29 -19 -71z" />
<glyph unicode="f" horiz-adv-x="333" d="M89 518v39q0 38 5 64t20.5 53t50.5 40.5t88 13.5q71 0 99 -14.5t28 -42.5q0 -17 -11.5 -31t-32.5 -14q-4 0 -26 3t-25 3q-22 0 -36 -7t-19.5 -21t-6.5 -24.5t-1 -29.5v-32h34q75 0 75 -47q0 -23 -14 -34.5t-26.5 -13t-34.5 -1.5h-34v-324v-10v-14t-0.5 -15.5t-2.5 -17 t-5 -15.5t-8 -15t-11.5 -12t-16.5 -8.5t-22 -2.5q-19 0 -31.5 6.5t-19.5 16t-10.5 25.5t-4.5 29t-1 33v324h-37q-61 0 -61 49q0 19 16 34q12 13 51 13h31z" />
<glyph unicode="g" horiz-adv-x="625" d="M434 439v18q0 42 20.5 57.5t42.5 15.5q45 0 57 -42q6 -22 6 -71v-358q0 -148 -55 -203q-66 -66 -206 -66q-119 0 -180.5 43t-61.5 88q0 26 17.5 41t39.5 15q21 0 33.5 -10t35.5 -39q36 -46 107 -46q92 0 118 48q12 21 15 47t4 89v22q-12 -17 -21 -26.5t-30 -26.5 t-50.5 -26t-65.5 -9q-72 0 -123.5 39t-74.5 99t-23 134q0 121 61.5 189.5t158.5 68.5q36 0 66.5 -9t52.5 -26.5t32 -28t24 -27.5zM298 102q16 -1 34 4.5t41.5 20t38.5 49t15 84.5q0 77 -34.5 122.5t-93.5 45.5q-69 0 -101 -57q-24 -43 -24 -110q0 -54 16 -90t41 -49 t39 -16.5t28 -3.5z" />
<glyph unicode="h" horiz-adv-x="604" d="M541 324v-243q0 -17 -1.5 -28t-7 -28.5t-20.5 -27t-39 -9.5q-19 0 -32 7t-19 16t-9.5 24t-4 23.5t-0.5 22.5v213q0 19 -0.5 31t-5.5 33.5t-13.5 34.5t-27 23t-44.5 10q-31 0 -58 -16t-40 -40q-20 -37 -20 -125v-154q0 -22 -1.5 -35t-7 -31.5t-20.5 -27.5t-38 -9 q-19 0 -32 7t-19.5 16t-10 25.5t-4 26t-0.5 26.5v529q0 57 8 77q5 14 21.5 23.5t35.5 9.5q30 0 49 -20q12 -14 15.5 -34.5t3.5 -66.5v-158q70 81 163 81q47 0 90 -20t64 -64q25 -52 25 -122z" />
<glyph unicode="i" horiz-adv-x="271" d="M202 421v-323q0 -29 -0.5 -41.5t-4.5 -26t-13 -21.5q-21 -21 -48 -21q-28 0 -49 21q-12 12 -15 29.5t-3 59.5v322q0 29 0.5 42t4.5 26t13 22q22 20 48 20q20 0 36 -10t22 -23q9 -20 9 -76zM200 657q0 -27 -19 -46t-45 -19q-27 0 -46 19t-19 46q0 26 19 45.5t46 19.5 q26 0 45 -19.5t19 -45.5z" />
<glyph unicode="j" horiz-adv-x="271" d="M71 2v418q0 63 10 81q6 10 21.5 19.5t33.5 9.5q17 0 33.5 -8.5t22.5 -20.5q10 -19 10 -81v-418q0 -86 -9 -119q-27 -93 -143 -93q-94 0 -116 37q-7 14 -7 28q0 23 13.5 38.5t36.5 15.5q4 0 25 -1.5t24 -1.5q24 0 34.5 18t10.5 78zM200 657q0 -27 -19 -46t-45 -19 q-27 0 -46 19t-19 46q0 26 19 45.5t46 19.5q26 0 45 -19.5t19 -45.5z" />
<glyph unicode="k" horiz-adv-x="573" d="M283 242l-73 -68v-65q0 -35 -0.5 -47.5t-4.5 -28t-13 -24.5q-23 -21 -49 -21q-18 0 -34.5 9.5t-23.5 23.5q-8 19 -8 81v510q0 60 11 84q5 13 22.5 22.5t36.5 9.5q32 0 49 -24q14 -20 14 -89v-293l151 156q31 33 45 42.5t32 9.5q27 0 43 -17t16 -36q0 -30 -55 -81l-70 -65 l136 -215q29 -46 29 -67t-15.5 -41t-47.5 -20q-24 0 -39.5 14.5t-34.5 46.5z" />
<glyph unicode="l" horiz-adv-x="271" d="M202 618v-520q0 -42 -3 -59.5t-15 -29.5q-21 -21 -48 -21q-28 0 -49 21q-12 12 -15 29.5t-3 59.5v520q0 42 3 59.5t15 29.5q19 21 48 21t49 -20q9 -9 13 -22.5t4.5 -26t0.5 -41.5z" />
<glyph unicode="m" horiz-adv-x="885" d="M824 332v-230q0 -31 -0.5 -44t-4.5 -27t-13 -23q-20 -20 -48 -20q-30 0 -49 21q-18 20 -18 93v195q0 26 -0.5 39t-4.5 33.5t-11.5 30.5t-22.5 18t-37 8q-31 0 -55.5 -16t-34.5 -41q-15 -36 -15 -119v-148q0 -31 -0.5 -44t-4.5 -27t-13 -23q-20 -20 -49 -20q-23 0 -37.5 9 t-20.5 29t-7 34.5t-1 41.5v183q0 34 -0.5 46.5t-4 36.5t-10.5 33t-21.5 17t-36.5 8q-32 0 -54 -12t-32.5 -27t-16 -42.5t-6.5 -44.5t-1 -47v-151q0 -31 -0.5 -44t-4.5 -26.5t-13 -22.5q-21 -21 -47 -21q-29 0 -49 21q-13 12 -16 31.5t-3 61.5v323q0 40 2.5 57t14.5 28 q20 20 46 20q18 0 33.5 -9t21.5 -22q9 -18 9 -51q67 82 161 82q99 0 147 -82q68 82 159 82q38 0 75 -13t57 -40q22 -29 29.5 -59.5t7.5 -85.5z" />
<glyph unicode="n" horiz-adv-x="604" d="M539 317v-219q0 -28 -0.5 -40.5t-4.5 -27t-13 -22.5q-22 -20 -48 -20t-48 19q-19 19 -19 91v192q0 21 -0.5 32.5t-5 34t-13.5 35.5t-27 23.5t-44 10.5q-31 0 -58 -16t-40 -41q-12 -23 -16.5 -48t-4.5 -85v-138q0 -28 -0.5 -40.5t-5 -27t-13.5 -22.5q-22 -20 -47 -20 q-26 0 -48 19q-9 9 -13.5 23t-5 27t-0.5 41v329q0 26 0.5 38t4.5 25.5t13 21.5q18 18 45 18q36 0 52 -28q10 -18 10 -62q70 90 172 90q100 0 150 -75q28 -43 28 -138z" />
<glyph unicode="o" horiz-adv-x="604" d="M568 259q0 -117 -71 -194t-192 -77q-72 0 -126.5 24.5t-84 65.5t-44 86.5t-14.5 94.5q0 114 68.5 192.5t197.5 78.5t197.5 -79t68.5 -192zM433 259q0 82 -35.5 127t-95.5 45t-95.5 -45.5t-35.5 -126.5q0 -82 35.5 -127t95.5 -45t95.5 45t35.5 127z" />
<glyph unicode="p" horiz-adv-x="625" d="M188 441q22 26 37.5 40.5t53 31.5t83.5 17q106 0 164.5 -79t58.5 -198q0 -111 -56.5 -188t-165.5 -77q-44 0 -82 16t-54 29.5t-39 37.5v-174q0 -22 -0.5 -33t-4 -28t-10 -25t-19.5 -14.5t-32 -6.5q-49 0 -61 44q-6 18 -6 67v526q0 28 0.5 38.5t4.5 25t13 22.5 q20 17 49 17q66 0 66 -75v-14zM327 428q-54 0 -92.5 -41t-38.5 -122q0 -80 35.5 -127.5t96.5 -47.5q52 0 87 42.5t35 123.5q0 91 -43 136q-34 36 -80 36z" />
<glyph unicode="q" horiz-adv-x="625" d="M439 441v14q0 75 66 75q29 0 49 -17q9 -8 13 -22.5t4.5 -25t0.5 -38.5v-526q0 -49 -6 -67q-12 -44 -61 -44q-19 0 -32 6.5t-19.5 14.5t-10 25t-4 28t-0.5 33v174q-23 -24 -39 -37.5t-54 -29.5t-82 -16q-109 0 -165.5 77t-56.5 188q0 119 58.5 198t164.5 79q46 0 83.5 -17 t53 -31.5t37.5 -40.5zM300 428q-46 0 -80 -36q-43 -45 -43 -136q0 -81 35 -123.5t87 -42.5q61 0 96.5 47.5t35.5 127.5q0 81 -38.5 122t-92.5 41z" />
<glyph unicode="r" horiz-adv-x="438" d="M68 98v342q0 90 66 90q61 0 64 -83q14 26 24.5 40t34.5 28.5t56 14.5q34 0 77.5 -19t43.5 -57q0 -25 -16.5 -40.5t-35.5 -15.5q-11 0 -39 8.5t-47 8.5q-31 0 -51 -18t-29 -54t-12 -72.5t-3 -90.5v-77q0 -63 -9 -82q-6 -12 -22 -22.5t-35 -10.5q-18 0 -35 9.5t-23 23.5 q-9 19 -9 77z" />
<glyph unicode="s" horiz-adv-x="542" d="M498 162q0 -89 -64 -131.5t-168 -42.5q-53 0 -95 11.5t-65 28t-38.5 37.5t-20.5 37t-5 29q0 22 15.5 37.5t38.5 15.5q15 0 26 -6.5t16 -13t13 -19.5q12 -20 21.5 -31.5t38 -25.5t66.5 -14q40 0 65 18t25 45q0 18 -9 31t-27.5 22t-34 14t-42.5 11q-32 7 -54 13.5 t-53.5 19.5t-50.5 29t-33.5 41.5t-14.5 56.5q0 20 8 42.5t28.5 50t66 45t109.5 17.5q100 0 156 -40.5t56 -81.5q0 -21 -14 -37t-41 -16q-12 0 -19.5 2t-21.5 13t-31 32q-33 42 -91 42q-29 0 -56.5 -12t-27.5 -41q0 -27 29 -41.5t118 -36.5q181 -44 181 -151z" />
<glyph unicode="t" horiz-adv-x="354" d="M91 518v80q0 63 10 82q7 12 22.5 21.5t33.5 9.5q17 0 33 -9t23 -22q11 -20 11 -71v-91h26q45 0 59 -8q22 -11 22 -39q0 -49 -82 -49h-25v-246v-8q0 -22 0.5 -32t4.5 -23t14 -18t26 -5q15 0 33 4t27 4q21 0 33 -13.5t12 -31.5q0 -22 -16.5 -36.5t-43.5 -20t-44 -7 t-34 -1.5q-42 0 -70.5 11.5t-43 26t-22 42t-8.5 46t-1 52.5v256h-18q-20 0 -33.5 6t-18 16t-6 15.5t-1.5 10.5q0 48 62 48h15z" />
<glyph unicode="u" horiz-adv-x="604" d="M65 186v234q0 28 0.5 41t4.5 27.5t13 22.5q21 19 48 19t48 -19q19 -18 19 -94v-183q0 -71 16 -99q24 -42 74 -42q31 0 59 16t41 41q18 34 18 137v133q0 73 19 91q21 19 48 19t48 -19q12 -12 15 -31t3 -60v-329q0 -57 -8 -71q-17 -32 -54 -32q-64 0 -62 92 q-13 -17 -23.5 -28t-32.5 -28.5t-52.5 -26.5t-67.5 -9q-46 0 -88.5 19.5t-60.5 56.5q-25 49 -25 122z" />
<glyph unicode="v" horiz-adv-x="542" d="M271 143l116 317q9 25 15.5 37.5t19 22.5t31.5 10q28 0 45 -18.5t17 -37.5t-20 -67l-129 -317q-24 -63 -40 -80q-20 -22 -55 -22q-21 0 -34.5 5.5t-25 21.5t-18 29.5t-19.5 45.5l-127 314q-20 48 -20 68t18 39t46 19q21 0 35 -11.5t20 -25.5t17 -46z" />
<glyph unicode="w" horiz-adv-x="813" d="M239 149l79 276q18 64 30 79q20 26 58 26q39 0 58 -26q12 -16 30 -79l80 -276l87 298q10 32 15 45.5t19 25.5t36 12q24 0 41.5 -17t17.5 -39q0 -17 -15 -62l-109 -319q-22 -63 -35 -79q-20 -26 -57 -26q-41 0 -59 25.5t-34 83.5l-75 260l-74 -260q-17 -62 -31 -81 q-21 -28 -61 -28q-38 0 -59 26q-14 18 -34 79l-109 319q-15 43 -15 62q0 21 17 38.5t42 17.5q13 0 23.5 -4.5t16 -9.5t12 -19.5t8.5 -21t9 -28.5z" />
<glyph unicode="x" horiz-adv-x="521" d="M260 184l-98 -141q-21 -30 -36.5 -42.5t-38.5 -12.5q-26 0 -43 15.5t-17 35.5q0 24 27 61l121 173l-107 144q-28 37 -28 60t17 38t44 15q23 0 38.5 -13t35.5 -42l85 -118l85 118q21 30 36.5 42.5t39.5 12.5q26 0 43 -15t17 -35q0 -24 -29 -63l-107 -144l120 -173 q29 -41 29 -60q0 -23 -18 -37.5t-39 -14.5q-20 0 -37.5 10.5t-41.5 44.5z" />
<glyph unicode="y" horiz-adv-x="542" d="M204 1l-163 413q-15 40 -15 55q0 23 18.5 42t45.5 19t42 -18t27 -53l113 -328l107 304q21 60 33.5 77.5t42.5 17.5q29 0 44 -19t15 -37q0 -23 -16 -64l-174 -455q-17 -46 -29.5 -70.5t-34.5 -49.5t-54.5 -35t-79.5 -10q-24 0 -41 2t-36 7.5t-29 18t-10 31.5t13 32.5 t35 13.5q3 0 22.5 -1.5t22.5 -1.5q37 0 54.5 18t34.5 61z" />
<glyph unicode="z" horiz-adv-x="521" d="M186 102h239h24.5t21.5 -2.5t21.5 -7.5t12.5 -15t6 -25q0 -16 -6.5 -26.5t-12.5 -15.5t-22.5 -7.5t-21.5 -2.5h-23h-311q-67 0 -82 15q-21 21 -21 45q0 15 9 29.5t35 42.5q179 195 237 265q10 11 16 22h-197q-18 0 -29 1t-25.5 5.5t-21.5 15t-7 27.5q0 22 14 36t69 14 h251q52 0 67.5 -1.5t26.5 -8.5q27 -17 27 -49q0 -18 -8 -30t-44 -52z" />
<glyph unicode="{" horiz-adv-x="385" d="M172 259q57 -36 71.5 -79.5t18.5 -142.5q2 -70 3.5 -84t7.5 -23q7 -12 15.5 -15t31.5 -7q15 -2 29 -15.5t14 -40.5q0 -62 -71 -62q-79 0 -122 53q-21 25 -27.5 63t-6.5 101q0 87 -8.5 123t-45.5 59q-23 15 -31 21.5t-15 18t-7 28.5q0 27 10 39t43 33q35 22 44.5 56.5 t9.5 105.5q0 115 17 156q14 34 50 57.5t86 23.5q74 0 74 -59q0 -19 -4.5 -31t-15.5 -18t-19.5 -8.5t-24.5 -4.5t-24.5 -16.5t-9.5 -26t-2 -33.5q-4 -118 -8 -150t-23 -64q-18 -32 -60 -58z" />
<glyph unicode="|" horiz-adv-x="281" d="M86 -119v756q0 24 0.5 34.5t3.5 21.5t10 18q17 17 40 17q24 0 41 -17q14 -14 14 -74v-756q0 -59 -14 -73q-18 -18 -40 -18t-41 17q-14 15 -14 74z" />
<glyph unicode="}" horiz-adv-x="385" d="M213 259q-57 36 -71.5 79.5t-18.5 142.5q-4 94 -8 102q-1 2 -3 5q-7 12 -15.5 15t-31.5 7q-15 2 -29 15.5t-14 40.5q0 62 71 62q79 0 122 -53q21 -25 27.5 -63t6.5 -101q0 -87 8.5 -123t45.5 -59q32 -19 42.5 -31.5t10.5 -36.5q0 -27 -10 -39t-43 -33 q-35 -22 -44.5 -56.5t-9.5 -105.5q0 -115 -17 -156q-14 -34 -50 -57.5t-86 -23.5q-74 0 -74 59q0 19 4.5 31t15.5 18t19.5 8.5t24.5 4.5t24.5 16.5t9.5 26t2 33.5q4 118 8 150t23 64q19 33 60 58z" />
<glyph unicode="~" horiz-adv-x="583" d="M32 254v126q61 67 145 67q25 0 49 -5t42.5 -11.5t71.5 -27.5q53 -22 77 -22q69 0 134 70v-131q-9 -10 -25 -22.5t-51 -27.5t-70 -15q-46 0 -122 34q-75 32 -117 32q-69 0 -134 -67z" />
<glyph unicode="&#xa1;" horiz-adv-x="333" d="M240 457q0 -31 -21.5 -52.5t-51.5 -21.5q-31 0 -52.5 21.5t-21.5 52.5q0 30 21.5 51.5t52.5 21.5q30 0 51.5 -21.5t21.5 -51.5zM96 -32l21 241q6 90 52 90q44 0 50 -90l17 -235q3 -27 3 -86q0 -98 -75 -98q-20 0 -34 8t-21 18.5t-10.5 27.5t-4 27t-0.5 25q0 46 2 72z" />
<glyph unicode="&#xa2;" d="M379 410l-100 -320q24 -3 31 -3q36 0 64.5 17t43.5 40q33 51 43 59q12 8 29 8q25 0 41 -19t16 -39q0 -21 -13.5 -47.5t-40.5 -53.5t-76 -45.5t-111 -18.5q-26 0 -58 5l-44 -138q-5 -15 -8.5 -22.5t-11 -14.5t-18.5 -7q-12 0 -20.5 8t-8.5 20t10 42l41 128 q-46 20 -77.5 53t-44.5 71t-18 66t-5 55q0 127 70 203q67 73 196 73q23 0 43 -2l47 147q12 38 36 38q29 0 29 -29q0 -7 -5 -26l-46 -143q62 -23 94.5 -64.5t32.5 -73.5q0 -23 -17.5 -39.5t-41.5 -16.5q-28 0 -53 34q-20 28 -27 36.5t-22 18.5zM224 123l96 306q-3 0 -7 0.5 t-6.5 1t-4.5 0.5q-16 0 -34.5 -7t-40.5 -24t-36 -54t-14 -89q0 -93 47 -134z" />
<glyph unicode="&#xa3;" d="M242 402h73q18 0 28.5 -1t25.5 -4.5t22 -14t7 -26.5q0 -13 -5.5 -22.5t-12 -14t-19.5 -6.5t-20.5 -2.5t-21.5 -0.5h-59q2 -49 -17 -89t-84 -113q62 15 111 15q14 0 88 -7t86 -7q25 0 56 10t42 10q19 0 36.5 -16.5t17.5 -42.5t-21.5 -44t-52 -25t-51 -10t-31.5 -3 q-41 0 -121.5 21.5t-106.5 21.5q-29 0 -84 -21q-52 -22 -67 -22q-19 0 -36.5 15t-17.5 44q0 16 7 26.5t29 30.5t37 37q54 60 54 125q0 16 -5 44h-42q-36 0 -54 8.5t-18 36.5q0 47 62 47h29q-25 82 -25 119q0 96 65 151.5t161 55.5q67 0 116.5 -20.5t72 -45.5t35.5 -57 t14.5 -45.5t1.5 -21.5q0 -23 -18.5 -41.5t-45.5 -18.5q-17 0 -29 6t-19.5 18.5t-10.5 19t-7 20.5q-28 90 -101 90q-46 0 -74 -30.5t-28 -75.5q0 -36 28 -124z" />
<glyph unicode="&#xa4;" horiz-adv-x="552" d="M86 458q-15 14 -21.5 21.5t-12 20t-5.5 26.5q0 25 15.5 41.5t40.5 16.5q13 0 25 -5.5t19.5 -12t23.5 -21.5q54 27 105 27t105 -27q16 15 23.5 21.5t19.5 12t25 5.5q25 0 40.5 -16.5t15.5 -41.5q0 -20 -9 -33.5t-30 -34.5q26 -50 26 -102t-26 -102q15 -14 21.5 -21.5 t12 -20t5.5 -26.5q0 -24 -16 -41t-40 -17q-13 0 -25.5 6t-19.5 12t-23 21q-54 -27 -105 -27t-105 27q-21 -21 -35 -30t-33 -9q-24 0 -40 16.5t-16 41.5q0 20 9 33.5t30 34.5q-26 50 -26 102t26 102zM177 356q0 -41 29 -70t70 -29t70 29t29 70t-29 70t-70 29 q-40 0 -69.5 -29.5t-29.5 -69.5z" />
<glyph unicode="&#xa5;" horiz-adv-x="625" d="M250 217v70h-98q-17 0 -27 1t-24.5 4.5t-22 14t-7.5 26.5t7.5 26t22 13.5t24.5 4.5t27 1h50l-146 229q-28 44 -28 65q0 26 15.5 41t38.5 15q25 0 39 -13.5t38 -50.5l158 -247l141 233q2 3 12.5 21t12.5 21q24 36 60 36q23 0 38.5 -14t15.5 -40q0 -22 -25 -64l-141 -232 h50q17 0 27 -1t24.5 -4.5t22 -13.5t7.5 -26t-7.5 -26.5t-22 -14t-24.5 -4.5t-27 -1h-98v-70h98q17 0 27 -1t24.5 -4.5t22 -14t7.5 -26.5t-7.5 -26t-22 -13.5t-24.5 -4.5t-27 -1h-98v-27q0 -19 -0.5 -29t-3.5 -28t-9.5 -28t-20.5 -18t-33 -8q-23 0 -37.5 10.5t-20 30.5t-7 34 t-1.5 36v27h-98q-17 0 -27 1t-24.5 4.5t-22 13.5t-7.5 26t7.5 26.5t22 14t24.5 4.5t27 1h98z" />
<glyph unicode="&#xa6;" horiz-adv-x="281" d="M86 -119v204q0 35 2 49.5t12 24.5q17 17 40 17q24 0 41 -17q14 -14 14 -74v-204q0 -59 -14 -74q-19 -17 -41 -17q-33 0 -47 28q-7 16 -7 63zM86 433v204q0 24 0.5 34.5t3.5 21.5t10 18q17 17 40 17q24 0 41 -17q14 -14 14 -74v-204q0 -59 -14 -74q-19 -17 -40 -17 q-24 0 -41 17q-14 15 -14 74z" />
<glyph unicode="&#xa7;" d="M458 91q65 -57 65 -129q0 -74 -60 -123t-151 -49q-67 0 -117 20t-74.5 49.5t-36 56t-11.5 46.5t16.5 40t45.5 20q23 0 35 -12.5t36 -55.5q12 -21 20 -31.5t29.5 -22t50.5 -11.5q44 0 66 23t22 48q0 26 -22.5 45.5t-96.5 66.5q-101 60 -127 79q-24 17 -30.5 21.5t-27 22.5 t-28 30.5t-15.5 34t-8 45.5q0 93 102 146q-57 50 -57 116q0 61 51 111t157 50q96 0 156 -46.5t60 -93.5q0 -23 -18 -37.5t-37 -14.5q-18 0 -29 8.5t-34 34.5q-24 28 -42 39t-51 11q-42 0 -62.5 -19t-20.5 -40q0 -14 5.5 -25.5t20 -23t23.5 -17t32 -18.5q170 -94 202 -124 q58 -53 58 -122q0 -95 -97 -149zM208 397q-57 -36 -57 -75q0 -18 12.5 -34t42.5 -37q11 -8 78 -48.5t89 -51.5q58 42 58 74q0 35 -48 68q-20 13 -62.5 38.5t-75.5 44.5t-37 21z" />
<glyph unicode="&#xa8;" horiz-adv-x="333" d="M127 650q0 -23 -16 -39t-39 -16t-39 16t-16 39t16 39t39 16q22 0 38.5 -16.5t16.5 -38.5zM316 650q0 -23 -16 -39t-39 -16t-39 16t-16 39q0 22 16 38.5t39 16.5t39 -16t16 -39z" />
<glyph unicode="&#xa9;" horiz-adv-x="740" d="M461 299l78 -27q-20 -67 -64.5 -97t-99.5 -30q-75 0 -132 50.5t-57 155.5q0 95 50 152.5t140 57.5q119 0 163 -118l-79 -19q-25 68 -87 68q-31 0 -52.5 -14t-31 -37t-13.5 -44t-4 -43q0 -72 28 -105.5t67 -33.5q71 0 94 84zM370 728q156 0 265 -110t109 -264t-110 -264 t-264 -110q-155 0 -264.5 109.5t-109.5 264.5q0 154 109.5 264t264.5 110zM370 654q-125 0 -212.5 -88t-87.5 -212t88 -212t212 -88t212 88t88 212t-87.5 212t-212.5 88z" />
<glyph unicode="&#xaa;" horiz-adv-x="375" d="M256 437q-63 -42 -119 -42q-60 0 -90 28.5t-30 67.5q0 38 26 61t62 30q105 21 140 30q-1 16 -3.5 24t-15 16t-36.5 8q-26 0 -43 -6.5t-22 -13t-13 -19.5q-13 -22 -38 -22q-16 0 -29 10t-13 26q0 7 2 16t12 23.5t25.5 25.5t46 19.5t70.5 8.5q93 0 123.5 -32t30.5 -100 q0 -7 -1 -43.5t-1 -42.5q0 -21 11 -53q6 -18 6 -25q0 -15 -14 -26t-31 -11q-26 0 -56 42zM246 550q-104 -23 -112 -27q-19 -11 -19 -27q0 -14 12 -25.5t37 -11.5q24 0 46 11.5t30 32.5q6 15 6 47z" />
<glyph unicode="&#xab;" d="M400 256l93 -148q14 -19 14 -35q0 -18 -13.5 -30t-29.5 -12q-11 0 -18 2.5t-18.5 13t-24.5 30.5l-86 131q-21 33 -21 48q0 18 21 49l90 135q27 40 53 40q17 0 31.5 -11.5t14.5 -31.5q0 -13 -17 -40zM176 256l93 -148q14 -19 14 -35q0 -18 -13.5 -30t-29.5 -12 q-11 0 -18 2.5t-18.5 13t-24.5 30.5l-86 131q-21 33 -21 48q0 18 21 49l90 135q27 40 53 40q17 0 31.5 -11.5t14.5 -31.5q0 -13 -17 -40z" />
<glyph unicode="&#xac;" horiz-adv-x="583" d="M414 183v214h-373v128h501v-342h-128z" />
<glyph unicode="&#xad;" horiz-adv-x="333" d="M116 312h101q37 0 53 -2.5t27 -13.5q19 -19 19 -43q0 -25 -19 -44q-10 -10 -26.5 -12.5t-53.5 -2.5h-101q-26 0 -37.5 0.5t-23 4t-19.5 10.5q-19 19 -19 43q0 25 19 44q11 11 27 13.5t53 2.5z" />
<glyph unicode="&#xae;" horiz-adv-x="740" d="M201 154v397h81q115 0 146 -3.5t53 -20.5q42 -33 42 -88q0 -38 -26 -70.5t-81 -40.5q26 -11 40.5 -28t43.5 -66l47 -80h-100l-33 64q-33 64 -55.5 81.5t-56.5 17.5h-20v-163h-81zM282 488v-108h32q69 0 84 4q39 11 39 50q0 29 -23 42q-14 9 -31 10.5t-69 1.5h-32z M370 728q156 0 265 -110t109 -264t-110 -264t-264 -110q-155 0 -264.5 109.5t-109.5 264.5q0 154 109 264t265 110zM371 655q-126 0 -214 -88.5t-88 -212.5q0 -125 88.5 -213t213.5 -88q124 0 212 88t88 213q0 124 -87.5 212.5t-212.5 88.5z" />
<glyph unicode="&#xaf;" horiz-adv-x="333" d="M-11 617v68h355v-68h-355z" />
<glyph unicode="&#xb0;" horiz-adv-x="396" d="M42 572q0 65 45.5 110.5t110.5 45.5q64 0 110 -46t46 -110t-46 -110t-110 -46t-110 45.5t-46 110.5zM123 572q0 -31 22 -53t53 -22t53 22t22 53t-22 53t-53 22t-53 -22t-22 -53z" />
<glyph unicode="&#xb1;" horiz-adv-x="583" d="M542 0h-501v128h501v-128zM227 174v186h-186v128h186v186h128v-186h187v-128h-187v-186h-128z" />
<glyph unicode="&#xb2;" horiz-adv-x="354" d="M148 424h127q60 0 60 -35q0 -36 -50 -36h-200q-57 0 -57 40q0 41 108 117q76 54 90 71q11 15 11 31q0 22 -18.5 33.5t-41.5 11.5q-43 0 -59 -31q-7 -18 -11.5 -26.5t-14 -15.5t-23.5 -7q-16 0 -28 9.5t-12 26.5q0 12 6 27.5t21 35t48 32t78 12.5q46 0 77.5 -12.5t45 -32 t18.5 -34.5t5 -28q0 -33 -22.5 -62.5t-76.5 -65.5q-64 -43 -81 -61z" />
<glyph unicode="&#xb3;" horiz-adv-x="354" d="M270 551q61 -30 61 -87q0 -47 -42.5 -83.5t-115.5 -36.5q-71 0 -109.5 36.5t-38.5 68.5q0 13 11.5 24.5t30.5 11.5q12 0 20.5 -5t11.5 -11t7 -16q24 -47 68 -47q23 0 45 14t22 42q0 24 -17 38.5t-45 14.5q-3 0 -19.5 -1t-18.5 -1q-15 0 -26 8t-11 23q0 14 11 23.5t31 9.5 q35 0 51 7q26 11 26 36q0 16 -14 27t-38 11q-20 0 -32 -6t-16 -11.5t-9 -16.5q-5 -10 -7 -13.5t-11 -9t-21 -5.5q-17 0 -27.5 10.5t-10.5 23.5q0 31 38 60.5t103 29.5q63 0 98 -28t35 -67t-41 -74z" />
<glyph unicode="&#xb4;" horiz-adv-x="333" d="M112 632l18 34q21 40 36 47.5t58 7.5h49q24 0 24 -7q0 -10 -60 -63q-5 -5 -18.5 -16.5t-17 -14.5t-13.5 -11t-14 -10t-12 -6.5t-14.5 -5.5t-15 -2t-18.5 -1q-19 0 -19 12q0 5 17 36z" />
<glyph unicode="&#xb5;" horiz-adv-x="615" d="M206 70v-170q0 -28 -0.5 -40.5t-4.5 -27t-13 -22.5q-22 -20 -47 -20q-27 0 -49 19q-19 19 -19 91v520q0 59 11 81q6 11 21.5 20t34.5 9q27 0 48 -19q12 -12 15 -31t3 -60v-136q0 -63 8 -102q6 -29 30.5 -56.5t62.5 -27.5q52 0 81 52q19 35 19 132v138q0 28 0.5 41 t4.5 27.5t13 22.5q21 19 48 19q17 0 33 -9t23 -21q11 -19 11 -80v-329q0 -55 -11 -75q-6 -10 -20.5 -19t-31.5 -9q-57 0 -62 70q-20 -37 -49 -54q-28 -16 -54 -16q-23 0 -40.5 7t-30.5 22t-19 24.5t-16 28.5z" />
<glyph unicode="&#xb6;" horiz-adv-x="563" d="M306 -197h-109v511q-49 4 -86 21t-56.5 38.5t-31.5 49t-15.5 48t-3.5 40.5q0 49 20 96.5t60 71.5q41 25 75.5 31t105.5 6h292v-109h-56v-804h-109v804h-86v-804z" />
<glyph unicode="&#xb7;" horiz-adv-x="313" d="M230 354q0 -31 -21.5 -52.5t-51.5 -21.5q-31 0 -52.5 21.5t-21.5 52.5q0 30 21.5 51.5t52.5 21.5q30 0 51.5 -21.5t21.5 -51.5z" />
<glyph unicode="&#xb8;" horiz-adv-x="333" d="M105 -47q2 10 5 16t19.5 13t45.5 7q58 0 93.5 -31.5t35.5 -67.5q0 -33 -35 -61.5t-119 -28.5q-98 0 -98 31q0 10 7 17.5t18 7.5q2 0 33 -2t37 -2q29 0 49.5 10t20.5 30q0 5 -2 9.5t-6.5 11t-16.5 10.5t-29 4q-4 0 -20 -2.5t-19 -2.5q-11 0 -16 10t-3 21z" />
<glyph unicode="&#xb9;" horiz-adv-x="354" d="M253 670v-267q0 -56 -46 -56t-46 53v199q-60 -42 -92 -42q-15 0 -25.5 9t-10.5 24q0 10 5 16.5t12 10t28 12.5q31 13 52.5 27.5t28.5 22.5t21 25q12 16 33 16q40 0 40 -50z" />
<glyph unicode="&#xba;" horiz-adv-x="385" d="M369 561q0 -71 -46.5 -118.5t-127.5 -47.5q-90 0 -134 49.5t-44 116.5q0 72 46.5 119.5t129.5 47.5q86 0 131 -49t45 -118zM271 561q0 45 -21 70t-57 25t-57 -25t-21 -70t21 -69.5t57 -24.5t57 25t21 69z" />
<glyph unicode="&#xbb;" d="M194 255l-93 148q-14 19 -14 35q0 18 13.5 30t29.5 12q11 0 18 -2.5t18.5 -13t24.5 -30.5l86 -131q21 -33 21 -48q0 -18 -21 -49l-90 -135q-27 -40 -53 -40q-17 0 -31.5 11.5t-14.5 31.5q0 13 17 40zM418 255l-93 148q-14 19 -14 35q0 18 13.5 30t29.5 12q11 0 18 -2.5 t18.5 -13t24.5 -30.5l86 -131q21 -33 21 -48q0 -18 -21 -49l-90 -135q-27 -40 -53 -40q-17 0 -31.5 11.5t-14.5 31.5q0 13 17 40z" />
<glyph unicode="&#xbc;" horiz-adv-x="854" d="M702 75h-119q-23 0 -32.5 0.5t-19.5 4t-17 11.5q-11 11 -11 28q0 7 3.5 14t7 11.5t17.5 20.5l153 169q13 14 18.5 19.5t15.5 10.5t21 5q24 0 38 -16q9 -10 9 -48v-163q19 0 29.5 -1t21.5 -9t11 -24q0 -15 -11 -23t-21.5 -9t-29.5 -1v-25q0 -12 -1 -19t-4.5 -17t-12.5 -15 t-24 -5q-19 0 -29 10.5t-11.5 20t-1.5 25.5v25zM599 142h103v116zM253 670v-267q0 -56 -46 -56t-46 53v199q-60 -42 -92 -42q-15 0 -25.5 9t-10.5 24q0 10 5 16.5t12 10t28 12.5q31 13 52.5 27.5t28.5 22.5t21 25q12 16 33 16q40 0 40 -50zM196 29l410 661q10 16 13 20.5 t11.5 10t18.5 5.5q17 0 24 -10.5t7 -18.5q0 -12 -18 -41l-407 -656q-17 -27 -34 -27q-13 0 -24 9t-11 20t10 27z" />
<glyph unicode="&#xbd;" horiz-adv-x="854" d="M648 71h127q60 0 60 -35q0 -36 -50 -36h-200q-57 0 -57 40q0 41 108 117q76 54 90 71q11 15 11 31q0 22 -18.5 33.5t-41.5 11.5q-43 0 -59 -31q-7 -18 -11.5 -26.5t-14 -15.5t-23.5 -7q-16 0 -28 9.5t-12 26.5q0 12 6 27.5t21 35t48 32t78 12.5q46 0 77.5 -12.5t45 -32 t18.5 -34.5t5 -28q0 -33 -22.5 -62.5t-76.5 -65.5q-64 -43 -81 -61zM253 670v-267q0 -56 -46 -56t-46 53v199q-60 -42 -92 -42q-15 0 -25.5 9t-10.5 24q0 10 5 16.5t12 10t28 12.5q31 13 52.5 27.5t28.5 22.5t21 25q12 16 33 16q40 0 40 -50zM187 29l410 661q9 15 13 20.5 t12 10.5t18 5q17 0 24 -10t7 -19q0 -13 -17 -41l-407 -656q-17 -27 -35 -27q-13 0 -24 9t-11 20t10 27z" />
<glyph unicode="&#xbe;" horiz-adv-x="854" d="M702 75h-119q-23 0 -32.5 0.5t-19.5 4t-17 11.5q-11 11 -11 28q0 7 3.5 14t7 11.5t17.5 20.5l153 169q13 14 18.5 19.5t15.5 10.5t21 5q24 0 38 -16q9 -10 9 -48v-163q19 0 29.5 -1t21.5 -9t11 -24q0 -15 -11 -23t-21.5 -9t-29.5 -1v-25q0 -12 -1 -19t-4.5 -17t-12.5 -15 t-24 -5q-19 0 -29 10.5t-11.5 20t-1.5 25.5v25zM599 142h103v116zM214 29l409 661q12 20 20.5 28t22.5 8q12 0 20 -6.5t10 -12t2 -10.5q0 -12 -18 -41l-407 -656q-17 -27 -35 -27q-12 0 -23.5 9t-11.5 20q0 12 11 27zM270 551q61 -30 61 -87q0 -47 -42.5 -83.5t-115.5 -36.5 q-71 0 -109.5 36.5t-38.5 68.5q0 13 11.5 24.5t30.5 11.5q12 0 20.5 -5t11.5 -11t7 -16q24 -47 68 -47q23 0 45 14t22 42q0 24 -17 38.5t-45 14.5q-3 0 -19.5 -1t-18.5 -1q-15 0 -26 8t-11 23q0 14 11 23.5t31 9.5q35 0 51 7q26 11 26 36q0 16 -14 27t-38 11q-20 0 -32 -6 t-16 -11.5t-9 -16.5q-5 -10 -7 -13.5t-11 -9t-21 -5.5q-17 0 -27.5 10.5t-10.5 23.5q0 31 38 60.5t103 29.5q63 0 98 -28t35 -67t-41 -74z" />
<glyph unicode="&#xbf;" horiz-adv-x="573" d="M529 -6q0 -16 -6 -39t-24 -52.5t-44.5 -54t-73 -41.5t-104.5 -17q-106 0 -170.5 57t-64.5 137q0 54 26 89.5t113 114.5q31 29 40 45.5t17 54.5q11 51 58 51q36 0 52 -28q8 -15 8 -43q0 -39 -17 -73t-36 -53.5t-59 -54.5q-38 -33 -53.5 -54.5t-15.5 -46.5 q0 -37 28.5 -64.5t75.5 -27.5q30 0 52.5 9t36 28t19.5 32.5t14 36.5q18 55 64 55q27 0 45.5 -19.5t18.5 -41.5zM218 456q0 31 21.5 52.5t52.5 21.5q30 0 51.5 -21.5t21.5 -52.5q0 -30 -21.5 -51.5t-51.5 -21.5q-31 0 -52.5 21.5t-21.5 51.5z" />
<glyph unicode="&#xc0;" horiz-adv-x="719" d="M502 169h-290l-34 -90q-21 -55 -35 -73t-46 -18q-30 0 -49.5 20t-19.5 44q0 25 20 75l184 465q33 85 46 101q7 8 15 14q31 21 63 21q62 0 93 -55q9 -17 33 -80l188 -462q21 -53 21 -77t-20 -45t-51 -21q-32 0 -46.5 18.5t-36.5 74.5zM249 281h215l-109 294zM438 811 q17 -31 17 -36q0 -12 -19 -12q-10 0 -18.5 1t-15 2t-14.5 5.5t-12 6.5t-14 10t-13.5 11t-17 14.5t-18.5 16.5q-60 52 -60 63q0 7 24 7h49q32 0 43 -2t23.5 -13t27.5 -40z" />
<glyph unicode="&#xc1;" horiz-adv-x="719" d="M502 169h-290l-34 -90q-21 -55 -35 -73t-46 -18q-30 0 -49.5 20t-19.5 44q0 25 20 75l184 465q33 85 46 101q7 8 15 14q31 21 63 21q62 0 93 -55q9 -17 33 -80l188 -462q21 -53 21 -77t-20 -45t-51 -21q-32 0 -46.5 18.5t-36.5 74.5zM249 281h215l-109 294zM305 811 l18 34q21 40 36 47.5t58 7.5h49q24 0 24 -7q0 -11 -60 -63q-5 -5 -18.5 -16.5t-17 -14.5t-13.5 -11t-14 -10t-12 -6.5t-14.5 -5.5t-15 -2t-18.5 -1q-19 0 -19 12q0 5 17 36z" />
<glyph unicode="&#xc2;" horiz-adv-x="719" d="M502 169h-290l-34 -90q-21 -55 -35 -73t-46 -18q-30 0 -49.5 20t-19.5 44q0 25 20 75l184 465q33 85 46 101q7 8 15 14q31 21 63 21q62 0 93 -55q9 -17 33 -80l188 -462q21 -53 21 -77t-20 -45t-51 -21q-32 0 -46.5 18.5t-36.5 74.5zM249 281h215l-109 294zM360 857 l-49 -57q-23 -28 -31 -31q-8 -4 -39 -4h-24q-20 0 -20 7q0 6 15 24l54 65q25 30 36.5 37.5t42.5 7.5h28q30 0 41 -7t38 -38l56 -66q14 -17 14 -23q0 -7 -21 -7h-20q-39 0 -49 9z" />
<glyph unicode="&#xc3;" horiz-adv-x="719" d="M502 169h-290l-34 -90q-21 -55 -35 -73t-46 -18q-30 0 -49.5 20t-19.5 44q0 25 20 75l184 465q33 85 46 101q7 8 15 14q31 21 63 21q62 0 93 -55q9 -17 33 -80l188 -462q21 -53 21 -77t-20 -45t-51 -21q-32 0 -46.5 18.5t-36.5 74.5zM249 281h215l-109 294zM222 757 q-28 0 -28 37q0 36 22.5 67t58.5 31q37 0 80 -23q65 -28 79 -28q17 0 24.5 8t13.5 31t25 23q11 0 19.5 -10t8.5 -24q0 -31 -21 -65.5t-62 -34.5q-36 0 -84 24q-55 26 -77 26q-14 0 -21 -9t-14 -30q-8 -23 -24 -23z" />
<glyph unicode="&#xc4;" horiz-adv-x="719" d="M502 169h-290l-34 -90q-21 -55 -35 -73t-46 -18q-30 0 -49.5 20t-19.5 44q0 25 20 75l184 465q33 85 46 101q7 8 15 14q31 21 63 21q62 0 93 -55q9 -17 33 -80l188 -462q21 -53 21 -77t-20 -45t-51 -21q-32 0 -46.5 18.5t-36.5 74.5zM249 281h215l-109 294zM320 829 q0 -23 -16 -39t-39 -16t-39 16t-16 39t16 39t39 16t39 -16t16 -39zM509 829q0 -23 -16 -39t-39 -16t-39 16t-16 39t16.5 39t38.5 16q23 0 39 -16t16 -39z" />
<glyph unicode="&#xc5;" horiz-adv-x="719" d="M502 169h-290l-34 -90q-21 -55 -35 -73t-46 -18q-30 0 -49.5 20t-19.5 44q0 25 20 75l184 465q33 85 46 101q7 8 15 14q31 21 63 21q62 0 93 -55q9 -17 33 -80l188 -462q21 -53 21 -77t-20 -45t-51 -21q-32 0 -46.5 18.5t-36.5 74.5zM249 281h215l-109 294zM460 843 q0 -41 -29.5 -70.5t-70.5 -29.5q-42 0 -71.5 29.5t-29.5 70.5q0 42 29.5 71.5t71.5 29.5q41 0 70.5 -29.5t29.5 -71.5zM409 843q0 21 -14.5 35.5t-34.5 14.5q-21 0 -35.5 -14.5t-14.5 -35.5q0 -20 14.5 -34.5t35.5 -14.5q20 0 34.5 14.5t14.5 34.5z" />
<glyph unicode="&#xc6;" horiz-adv-x="990" d="M194 172l-43 -101q-11 -25 -18.5 -39t-27.5 -29t-46 -15q-12 0 -24 3t-25 18t-13 40q0 18 19 59l240 521q20 44 27 55t20 20q12 9 27 10.5t61 1.5h461q34 0 50 -2.5t26 -13.5q17 -17 17 -40q0 -20 -16 -40q-16 -16 -77 -16h-259v-175h234q61 0 75 -15q16 -18 16 -41 q0 -24 -16 -40t-75 -16h-234v-205h268h6q23 0 33 -0.5t21.5 -4t17.5 -10.5q17 -19 17 -40q0 -24 -17 -41q-14 -16 -78 -16h-291q-52 0 -68 3t-31 18q-22 22 -22 64v87h-255zM241 287h208v323h-66z" />
<glyph unicode="&#xc7;" horiz-adv-x="740" d="M398 -12l-3 -11q15 -3 24 -5t25.5 -8.5t26.5 -14.5t18 -23.5t8 -34.5q0 -46 -45 -72.5t-108 -26.5q-80 0 -106 13q-11 5 -11 19q0 29 40 29q5 0 34 -2t34 -2q72 0 72 42q0 16 -14.5 27t-37.5 11q-3 0 -23 -3t-23 -3q-8 0 -15.5 7.5t-7.5 18.5q0 16 23 25q29 12 57 14 q-148 10 -227 103q-89 105 -89 266q0 169 95.5 270t248.5 101q73 0 132 -24t92 -59.5t50.5 -71t17.5 -63.5q0 -21 -16.5 -41.5t-47.5 -20.5q-26 0 -39.5 14.5t-38.5 61.5q-22 41 -63 65t-88 24q-86 0 -141 -65t-55 -197q0 -136 62 -198q50 -50 130 -50q125 0 169 122 q7 20 12.5 31t20 22t34.5 11q25 0 44.5 -17t19.5 -46q0 -44 -29.5 -96.5t-81.5 -89.5q-75 -52 -180 -52z" />
<glyph unicode="&#xc8;" horiz-adv-x="667" d="M223 604v-175h277q58 0 73 -15q18 -18 18 -40q0 -23 -17 -40t-74 -17h-277v-205h313q53 0 66 -6q29 -13 29 -49q0 -29 -22 -45q-16 -12 -73 -12h-336q-52 0 -68 3t-32 18q-15 14 -18 32t-3 68v473q0 52 3 68t18 32q15 15 32.5 18.5t67.5 3.5h325q25 0 35.5 -0.5t22 -4 t18.5 -10.5q17 -17 17 -41t-17 -41q-10 -10 -25.5 -12.5t-50.5 -2.5h-302zM412 811q17 -31 17 -36q0 -12 -19 -12q-10 0 -18.5 1t-15 2t-14.5 5.5t-12 6.5t-14 10t-13.5 11t-17 14.5t-18.5 16.5q-60 52 -60 63q0 7 24 7h49q32 0 43 -2t23.5 -13t27.5 -40z" />
<glyph unicode="&#xc9;" horiz-adv-x="667" d="M223 604v-175h277q58 0 73 -15q18 -18 18 -40q0 -23 -17 -40t-74 -17h-277v-205h313q53 0 66 -6q29 -13 29 -49q0 -29 -22 -45q-16 -12 -73 -12h-336q-52 0 -68 3t-32 18q-15 14 -18 32t-3 68v473q0 52 3 68t18 32q15 15 32.5 18.5t67.5 3.5h325q25 0 35.5 -0.5t22 -4 t18.5 -10.5q17 -17 17 -41t-17 -41q-10 -10 -25.5 -12.5t-50.5 -2.5h-302zM279 811l18 34q21 40 36 47.5t58 7.5h49q24 0 24 -7q0 -11 -60 -63q-5 -5 -18.5 -16.5t-17 -14.5t-13.5 -11t-14 -10t-12 -6.5t-14.5 -5.5t-15 -2t-18.5 -1q-19 0 -19 12q0 5 17 36z" />
<glyph unicode="&#xca;" horiz-adv-x="667" d="M223 604v-175h277q58 0 73 -15q18 -18 18 -40q0 -23 -17 -40t-74 -17h-277v-205h313q53 0 66 -6q29 -13 29 -49q0 -29 -22 -45q-16 -12 -73 -12h-336q-52 0 -68 3t-32 18q-15 14 -18 32t-3 68v473q0 52 3 68t18 32q15 15 32.5 18.5t67.5 3.5h325q25 0 35.5 -0.5t22 -4 t18.5 -10.5q17 -17 17 -41t-17 -41q-10 -10 -25.5 -12.5t-50.5 -2.5h-302zM334 857l-49 -57q-23 -28 -31 -31q-8 -4 -39 -4h-24q-20 0 -20 7q0 6 15 24l54 65q25 30 36.5 37.5t42.5 7.5h28q30 0 41 -7t38 -38l56 -66q14 -17 14 -23q0 -7 -21 -7h-20q-39 0 -49 9z" />
<glyph unicode="&#xcb;" horiz-adv-x="667" d="M223 604v-175h277q58 0 73 -15q18 -18 18 -40q0 -23 -17 -40t-74 -17h-277v-205h313q53 0 66 -6q29 -13 29 -49q0 -29 -22 -45q-16 -12 -73 -12h-336q-52 0 -68 3t-32 18q-15 14 -18 32t-3 68v473q0 52 3 68t18 32q15 15 32.5 18.5t67.5 3.5h325q25 0 35.5 -0.5t22 -4 t18.5 -10.5q17 -17 17 -41t-17 -41q-10 -10 -25.5 -12.5t-50.5 -2.5h-302zM294 829q0 -23 -16 -39t-39 -16t-39 16t-16 39t16 39t39 16t39 -16t16 -39zM483 829q0 -23 -16 -39t-39 -16t-39 16t-16 39t16.5 39t38.5 16q23 0 39 -16t16 -39z" />
<glyph unicode="&#xcc;" horiz-adv-x="313" d="M228 608v-500q0 -34 -0.5 -46t-4.5 -27t-13 -25q-22 -22 -53 -22q-30 0 -54 22q-10 9 -14 24.5t-4.5 27.5t-0.5 46v500q0 32 0.5 45.5t5 28t13.5 23.5q23 23 53 23q31 0 53 -22q10 -10 14 -25t4.5 -27t0.5 -46zM235 811q17 -31 17 -36q0 -12 -19 -12q-10 0 -18.5 1t-15 2 t-14.5 5.5t-12 6.5t-14 10t-13.5 11t-17 14.5t-18.5 16.5q-60 52 -60 63q0 7 24 7h49q32 0 43 -2t23.5 -13t27.5 -40z" />
<glyph unicode="&#xcd;" horiz-adv-x="313" d="M228 608v-500q0 -34 -0.5 -46t-4.5 -27t-13 -25q-22 -22 -53 -22q-30 0 -54 22q-10 9 -14 24.5t-4.5 27.5t-0.5 46v500q0 32 0.5 45.5t5 28t13.5 23.5q23 23 53 23q31 0 53 -22q10 -10 14 -25t4.5 -27t0.5 -46zM102 811l18 34q21 40 36 47.5t58 7.5h49q24 0 24 -7 q0 -11 -60 -63q-5 -5 -18.5 -16.5t-17 -14.5t-13.5 -11t-14 -10t-12 -6.5t-14.5 -5.5t-15 -2t-18.5 -1q-19 0 -19 12q0 5 17 36z" />
<glyph unicode="&#xce;" horiz-adv-x="313" d="M228 608v-500q0 -34 -0.5 -46t-4.5 -27t-13 -25q-22 -22 -53 -22q-30 0 -54 22q-10 9 -14 24.5t-4.5 27.5t-0.5 46v500q0 32 0.5 45.5t5 28t13.5 23.5q23 23 53 23q31 0 53 -22q10 -10 14 -25t4.5 -27t0.5 -46zM157 857l-49 -57q-23 -28 -31 -31q-8 -4 -39 -4h-24 q-20 0 -20 7q0 6 15 24l54 65q25 30 36.5 37.5t42.5 7.5h28q30 0 41 -7t38 -38l56 -66q14 -17 14 -23q0 -7 -21 -7h-20q-39 0 -49 9z" />
<glyph unicode="&#xcf;" horiz-adv-x="313" d="M228 608v-500q0 -34 -0.5 -46t-4.5 -27t-13 -25q-22 -22 -53 -22q-30 0 -54 22q-10 9 -14 24.5t-4.5 27.5t-0.5 46v500q0 32 0.5 45.5t5 28t13.5 23.5q23 23 53 23q31 0 53 -22q10 -10 14 -25t4.5 -27t0.5 -46zM117 829q0 -23 -16 -39t-39 -16t-39 16t-16 39t16 39t39 16 q22 0 38.5 -16t16.5 -39zM306 829q0 -23 -16 -39t-39 -16t-39 16t-16 39t16 39t39 16t39 -16t16 -39z" />
<glyph unicode="&#xd0;" horiz-adv-x="740" d="M79 312h-21q-58 0 -58 46q0 45 58 45h21v191q0 51 3 67.5t18 32.5q14 15 33 18.5t67 3.5h157q38 0 64.5 -2.5t66.5 -13t75.5 -36t64.5 -66.5q63 -88 63 -242q0 -189 -107 -286q-76 -70 -224 -70h-160q-50 0 -70.5 4.5t-36.5 24.5q-10 12 -12 29t-2 63v191zM223 404h83 q28 0 40.5 -1.5t24.5 -12t12 -32.5t-12 -32.5t-25 -12t-40 -1.5h-83v-200h111q22 0 35 0.5t38 5.5t41 13.5t36 26.5t31.5 43.5t20 65.5t8.5 91q0 132 -62 198q-27 28 -60 38t-103 10h-96v-200z" />
<glyph unicode="&#xd1;" horiz-adv-x="760" d="M545 219v425q0 44 17 62q22 22 50 22q29 0 50 -21q12 -12 15 -31t3 -62v-479v-17v-21t-1 -20.5t-3.5 -22.5t-6.5 -20t-10.5 -19t-15 -13.5t-21.5 -10.5t-28 -3q-33 0 -51.5 16.5t-55.5 72.5l-272 413v-389q0 -32 -0.5 -43.5t-4 -25.5t-12.5 -23q-21 -21 -50 -21 q-30 0 -50 21q-12 13 -15 32t-3 60v484q0 62 4.5 83t24.5 39q24 21 57 21q37 0 61 -29q1 -2 40 -58zM243 757q-28 0 -28 37q0 36 22.5 67t58.5 31q37 0 80 -23q65 -28 79 -28q17 0 24.5 8t13.5 31t25 23q11 0 19.5 -10t8.5 -24q0 -31 -21 -65.5t-62 -34.5q-36 0 -84 24 q-55 26 -77 26q-14 0 -21 -9t-14 -30q-8 -23 -24 -23z" />
<glyph unicode="&#xd2;" horiz-adv-x="792" d="M393 728q83 0 148 -25t102.5 -63t61.5 -89t32.5 -97.5t8.5 -94.5q0 -52 -9.5 -101t-34.5 -99t-63 -87t-100.5 -60.5t-141.5 -23.5t-141.5 23t-101 60t-63.5 86.5t-35 98t-10 99.5q0 164 88 268.5t259 104.5zM396 613q-21 0 -42.5 -4t-52 -19.5t-53 -41.5t-39 -75 t-16.5 -115q0 -97 35 -159q25 -45 70 -70.5t97 -25.5q19 0 39.5 3.5t51.5 19.5t54.5 41.5t41 75t17.5 115.5q0 112 -51 183.5t-152 71.5zM455 811q17 -31 17 -36q0 -12 -19 -12q-10 0 -18.5 1t-15 2t-14.5 5.5t-12 6.5t-14 10t-13.5 11t-17 14.5t-18.5 16.5q-60 52 -60 63 q0 7 24 7h49q32 0 43 -2t23.5 -13t27.5 -40z" />
<glyph unicode="&#xd3;" horiz-adv-x="792" d="M393 728q83 0 148 -25t102.5 -63t61.5 -89t32.5 -97.5t8.5 -94.5q0 -52 -9.5 -101t-34.5 -99t-63 -87t-100.5 -60.5t-141.5 -23.5t-141.5 23t-101 60t-63.5 86.5t-35 98t-10 99.5q0 164 88 268.5t259 104.5zM396 613q-21 0 -42.5 -4t-52 -19.5t-53 -41.5t-39 -75 t-16.5 -115q0 -97 35 -159q25 -45 70 -70.5t97 -25.5q19 0 39.5 3.5t51.5 19.5t54.5 41.5t41 75t17.5 115.5q0 112 -51 183.5t-152 71.5zM342 811l18 34q21 40 36 47.5t58 7.5h49q24 0 24 -7q0 -11 -60 -63q-5 -5 -18.5 -16.5t-17 -14.5t-13.5 -11t-14 -10t-12 -6.5 t-14.5 -5.5t-15 -2t-18.5 -1q-19 0 -19 12q0 5 17 36z" />
<glyph unicode="&#xd4;" horiz-adv-x="792" d="M393 728q83 0 148 -25t102.5 -63t61.5 -89t32.5 -97.5t8.5 -94.5q0 -52 -9.5 -101t-34.5 -99t-63 -87t-100.5 -60.5t-141.5 -23.5t-141.5 23t-101 60t-63.5 86.5t-35 98t-10 99.5q0 164 88 268.5t259 104.5zM396 613q-21 0 -42.5 -4t-52 -19.5t-53 -41.5t-39 -75 t-16.5 -115q0 -97 35 -159q25 -45 70 -70.5t97 -25.5q19 0 39.5 3.5t51.5 19.5t54.5 41.5t41 75t17.5 115.5q0 112 -51 183.5t-152 71.5zM397 857l-49 -57q-23 -28 -31 -31q-8 -4 -39 -4h-24q-20 0 -20 7q0 6 15 24l54 65q25 30 36.5 37.5t42.5 7.5h28q30 0 41 -7t38 -38 l56 -66q14 -17 14 -23q0 -7 -21 -7h-20q-39 0 -49 9z" />
<glyph unicode="&#xd5;" horiz-adv-x="792" d="M393 728q83 0 148 -25t102.5 -63t61.5 -89t32.5 -97.5t8.5 -94.5q0 -52 -9.5 -101t-34.5 -99t-63 -87t-100.5 -60.5t-141.5 -23.5t-141.5 23t-101 60t-63.5 86.5t-35 98t-10 99.5q0 164 88 268.5t259 104.5zM396 613q-21 0 -42.5 -4t-52 -19.5t-53 -41.5t-39 -75 t-16.5 -115q0 -97 35 -159q25 -45 70 -70.5t97 -25.5q19 0 39.5 3.5t51.5 19.5t54.5 41.5t41 75t17.5 115.5q0 112 -51 183.5t-152 71.5zM259 757q-28 0 -28 37q0 36 22.5 67t58.5 31q37 0 80 -23q65 -28 79 -28q17 0 24.5 8t13.5 31t25 23q11 0 19.5 -10t8.5 -24 q0 -31 -21 -65.5t-62 -34.5q-36 0 -84 24q-55 26 -77 26q-14 0 -21 -9t-14 -30q-8 -23 -24 -23z" />
<glyph unicode="&#xd6;" horiz-adv-x="792" d="M393 728q83 0 148 -25t102.5 -63t61.5 -89t32.5 -97.5t8.5 -94.5q0 -52 -9.5 -101t-34.5 -99t-63 -87t-100.5 -60.5t-141.5 -23.5t-141.5 23t-101 60t-63.5 86.5t-35 98t-10 99.5q0 164 88 268.5t259 104.5zM396 613q-21 0 -42.5 -4t-52 -19.5t-53 -41.5t-39 -75 t-16.5 -115q0 -97 35 -159q25 -45 70 -70.5t97 -25.5q19 0 39.5 3.5t51.5 19.5t54.5 41.5t41 75t17.5 115.5q0 112 -51 183.5t-152 71.5zM357 829q0 -23 -16 -39t-39 -16t-39 16t-16 39t16 39t39 16q22 0 38.5 -16t16.5 -39zM546 829q0 -23 -16 -39t-39 -16t-39 16t-16 39 t16 39t39 16t39 -16t16 -39z" />
<glyph unicode="&#xd7;" horiz-adv-x="583" d="M54 205l148 147l-149 149l91 90l148 -148l148 148l89 -89l-148 -148l149 -148l-91 -91l-149 149l-147 -148z" />
<glyph unicode="&#xd8;" horiz-adv-x="792" d="M619 660l13 13q34 34 49 45t33 11q20 0 28.5 -12.5t8.5 -22.5q0 -11 -2 -18.5t-13 -23t-34 -38.5l-20 -20q64 -96 64 -230q0 -54 -9.5 -104t-34.5 -100.5t-63.5 -87.5t-100.5 -60.5t-141 -23.5q-138 0 -224 68l-12 -13q-31 -34 -46 -44.5t-35 -10.5q-16 0 -25 12t-9 28 q0 30 47 77l18 18q-65 94 -65 232q0 164 88 268.5t259 104.5q139 0 226 -68zM213 231l315 333q-53 49 -133 49q-83 0 -137 -55q-65 -67 -65 -199q0 -72 20 -128zM579 484l-314 -331q55 -50 130 -50q18 0 38.5 3.5t52 19t55 41t41 75.5t17.5 117q0 74 -20 125z" />
<glyph unicode="&#xd9;" horiz-adv-x="760" d="M223 608v-320q0 -27 1 -44.5t9.5 -47t24 -47.5t47.5 -32t77 -14q44 0 75 14t46 32t23.5 47t9.5 46t1 43v323q0 34 0.5 46t4.5 27t13 24q23 23 53 23t54 -22q13 -14 16 -33.5t3 -64.5v-312q0 -27 -0.5 -44.5t-6 -53.5t-16 -60t-31.5 -55t-51 -50t-77 -32t-107 -13 q-94 0 -163 23.5t-112 93.5q-38 63 -38 191v312q0 32 0.5 45.5t5 28t13.5 23.5q23 23 53 23q32 0 54 -22q3 -3 5.5 -6.5t4 -6.5t3 -7.5l2.5 -7.5t1.5 -9.5t1 -9.5t0.5 -11.5v-11.5v-13.5v-14.5zM439 811q17 -31 17 -36q0 -12 -19 -12q-10 0 -18.5 1t-15 2t-14.5 5.5t-12 6.5 t-14 10t-13.5 11t-17 14.5t-18.5 16.5q-60 52 -60 63q0 7 24 7h49q32 0 43 -2t23.5 -13t27.5 -40z" />
<glyph unicode="&#xda;" horiz-adv-x="760" d="M223 608v-320q0 -27 1 -44.5t9.5 -47t24 -47.5t47.5 -32t77 -14q44 0 75 14t46 32t23.5 47t9.5 46t1 43v323q0 34 0.5 46t4.5 27t13 24q23 23 53 23t54 -22q13 -14 16 -33.5t3 -64.5v-312q0 -27 -0.5 -44.5t-6 -53.5t-16 -60t-31.5 -55t-51 -50t-77 -32t-107 -13 q-94 0 -163 23.5t-112 93.5q-38 63 -38 191v312q0 32 0.5 45.5t5 28t13.5 23.5q23 23 53 23q32 0 54 -22q3 -3 5.5 -6.5t4 -6.5t3 -7.5l2.5 -7.5t1.5 -9.5t1 -9.5t0.5 -11.5v-11.5v-13.5v-14.5zM326 811l18 34q21 40 36 47.5t58 7.5h49q24 0 24 -7q0 -11 -60 -63 q-5 -5 -18.5 -16.5t-17 -14.5t-13.5 -11t-14 -10t-12 -6.5t-14.5 -5.5t-15 -2t-18.5 -1q-19 0 -19 12q0 5 17 36z" />
<glyph unicode="&#xdb;" horiz-adv-x="760" d="M223 608v-320q0 -27 1 -44.5t9.5 -47t24 -47.5t47.5 -32t77 -14q44 0 75 14t46 32t23.5 47t9.5 46t1 43v323q0 34 0.5 46t4.5 27t13 24q23 23 53 23t54 -22q13 -14 16 -33.5t3 -64.5v-312q0 -27 -0.5 -44.5t-6 -53.5t-16 -60t-31.5 -55t-51 -50t-77 -32t-107 -13 q-94 0 -163 23.5t-112 93.5q-38 63 -38 191v312q0 32 0.5 45.5t5 28t13.5 23.5q23 23 53 23q32 0 54 -22q3 -3 5.5 -6.5t4 -6.5t3 -7.5l2.5 -7.5t1.5 -9.5t1 -9.5t0.5 -11.5v-11.5v-13.5v-14.5zM381 857l-49 -57q-23 -28 -31 -31q-8 -4 -39 -4h-24q-20 0 -20 7q0 6 15 24 l54 65q25 30 36.5 37.5t42.5 7.5h28q30 0 41 -7t38 -38l56 -66q14 -17 14 -23q0 -7 -21 -7h-20q-39 0 -49 9z" />
<glyph unicode="&#xdc;" horiz-adv-x="760" d="M223 608v-320q0 -27 1 -44.5t9.5 -47t24 -47.5t47.5 -32t77 -14q44 0 75 14t46 32t23.5 47t9.5 46t1 43v323q0 34 0.5 46t4.5 27t13 24q23 23 53 23t54 -22q13 -14 16 -33.5t3 -64.5v-312q0 -27 -0.5 -44.5t-6 -53.5t-16 -60t-31.5 -55t-51 -50t-77 -32t-107 -13 q-94 0 -163 23.5t-112 93.5q-38 63 -38 191v312q0 32 0.5 45.5t5 28t13.5 23.5q23 23 53 23q32 0 54 -22q3 -3 5.5 -6.5t4 -6.5t3 -7.5l2.5 -7.5t1.5 -9.5t1 -9.5t0.5 -11.5v-11.5v-13.5v-14.5zM341 829q0 -23 -16 -39t-39 -16t-39 16t-16 39t16 39t39 16q22 0 38.5 -16 t16.5 -39zM530 829q0 -23 -16 -39t-39 -16t-39 16t-16 39t16 39t39 16t39 -16t16 -39z" />
<glyph unicode="&#xdd;" horiz-adv-x="625" d="M239 303l-175 271q-43 66 -43 92t20 44t48 18q27 0 42.5 -16t47.5 -68l134 -217l135 217q27 44 39 59q22 25 53 25q27 0 45.5 -18t18.5 -43q0 -24 -42 -89l-179 -275v-195q0 -44 -3 -65t-17 -34q-23 -21 -52 -21q-31 0 -52 21q-14 14 -17 34.5t-3 64.5v195zM258 811 l18 34q21 40 36 47.5t58 7.5h49q24 0 24 -7q0 -11 -60 -63q-5 -5 -18.5 -16.5t-17 -14.5t-13.5 -11t-14 -10t-12 -6.5t-14.5 -5.5t-15 -2t-18.5 -1q-19 0 -19 12q0 5 17 36z" />
<glyph unicode="&#xde;" horiz-adv-x="667" d="M223 140v-32q0 -64 -9 -85q-7 -14 -24 -24.5t-39 -10.5q-45 0 -63 35q-9 22 -9 85v500q0 64 9 84q7 14 24.5 25t38.5 11q19 0 37.5 -10.5t25.5 -24.5q9 -22 9 -85v-32h134q99 0 147 -19q39 -15 65 -42t37 -57.5t14.5 -51t3.5 -40.5q0 -151 -122 -204q-50 -22 -145 -22 h-134zM322 464h-99v-212h99q23 0 33.5 0.5t38 5.5t42.5 15t28 32t13 53q0 61 -48 90q-28 16 -107 16z" />
<glyph unicode="&#xdf;" d="M189 495v-399q0 -27 -0.5 -39.5t-4.5 -27t-13 -22.5q-21 -19 -47 -19q-25 0 -46 19q-13 12 -16 30.5t-3 58.5v389q0 66 13 109.5t47 78.5q53 55 162 55q102 0 148 -43.5t46 -99.5q0 -47 -38 -107q-32 -51 -32 -75q0 -15 8 -27t45 -49q60 -62 81 -94.5t21 -82.5 q0 -67 -47 -114.5t-121 -47.5q-67 0 -114 36t-47 71q0 18 14.5 33.5t38.5 15.5q21 0 45 -30q26 -30 52 -30q25 0 42.5 18.5t17.5 42.5q0 25 -19.5 49t-62.5 61q-57 47 -80 95q-5 11 -5 26q0 36 37 102q35 63 35 94q0 30 -21 45t-48 15q-30 0 -49.5 -13.5t-27 -38t-9.5 -42.5 t-2 -43z" />
<glyph unicode="&#xe0;" d="M406 63q-97 -75 -187 -75q-93 0 -136 46.5t-43 104.5q0 61 38.5 95.5t91.5 48.5q31 8 102.5 23t123.5 30q-1 20 -2 30t-6 26.5t-14.5 25t-28 15t-44.5 6.5q-91 0 -119 -51q-11 -20 -16.5 -28.5t-17.5 -16.5t-29 -8q-20 0 -37.5 13.5t-17.5 36.5q0 34 23 64t52 47 q58 34 158 34q74 0 122 -14t71.5 -44.5t31.5 -66t7 -88.5l-3 -125q-2 -58 14 -100q12 -32 12 -51q0 -21 -18.5 -37t-42.5 -16q-40 0 -85 75zM397 256q-30 -12 -81 -22q-82 -16 -112.5 -33.5t-30.5 -52.5q0 -26 21 -49.5t66 -23.5q42 0 78.5 22t49.5 60q9 25 9 99zM356 632 q17 -31 17 -36q0 -12 -19 -12q-10 0 -18.5 1t-15 2t-14.5 5.5t-12 6.5t-14 10t-13.5 11t-17 14.5t-18.5 16.5q-60 53 -60 63q0 7 24 7h49q32 0 43 -2t23.5 -13t27.5 -40z" />
<glyph unicode="&#xe1;" d="M406 63q-97 -75 -187 -75q-93 0 -136 46.5t-43 104.5q0 61 38.5 95.5t91.5 48.5q31 8 102.5 23t123.5 30q-1 20 -2 30t-6 26.5t-14.5 25t-28 15t-44.5 6.5q-91 0 -119 -51q-11 -20 -16.5 -28.5t-17.5 -16.5t-29 -8q-20 0 -37.5 13.5t-17.5 36.5q0 34 23 64t52 47 q58 34 158 34q74 0 122 -14t71.5 -44.5t31.5 -66t7 -88.5l-3 -125q-2 -58 14 -100q12 -32 12 -51q0 -21 -18.5 -37t-42.5 -16q-40 0 -85 75zM397 256q-30 -12 -81 -22q-82 -16 -112.5 -33.5t-30.5 -52.5q0 -26 21 -49.5t66 -23.5q42 0 78.5 22t49.5 60q9 25 9 99zM243 632 l18 34q21 40 36 47.5t58 7.5h49q24 0 24 -7q0 -10 -60 -63q-5 -5 -18.5 -16.5t-17 -14.5t-13.5 -11t-14 -10t-12 -6.5t-14.5 -5.5t-15 -2t-18.5 -1q-19 0 -19 12q0 5 17 36z" />
<glyph unicode="&#xe2;" d="M406 63q-97 -75 -187 -75q-93 0 -136 46.5t-43 104.5q0 61 38.5 95.5t91.5 48.5q31 8 102.5 23t123.5 30q-1 20 -2 30t-6 26.5t-14.5 25t-28 15t-44.5 6.5q-91 0 -119 -51q-11 -20 -16.5 -28.5t-17.5 -16.5t-29 -8q-20 0 -37.5 13.5t-17.5 36.5q0 34 23 64t52 47 q58 34 158 34q74 0 122 -14t71.5 -44.5t31.5 -66t7 -88.5l-3 -125q-2 -58 14 -100q12 -32 12 -51q0 -21 -18.5 -37t-42.5 -16q-40 0 -85 75zM397 256q-30 -12 -81 -22q-82 -16 -112.5 -33.5t-30.5 -52.5q0 -26 21 -49.5t66 -23.5q42 0 78.5 22t49.5 60q9 25 9 99zM298 678 l-49 -57q-23 -28 -31 -31q-8 -4 -39 -4h-24q-20 0 -20 7q0 6 15 24l54 65q25 30 36.5 37.5t42.5 7.5h28q30 0 41 -7t38 -38l56 -66q14 -17 14 -23q0 -7 -21 -7h-20q-39 0 -49 9z" />
<glyph unicode="&#xe3;" d="M406 63q-97 -75 -187 -75q-93 0 -136 46.5t-43 104.5q0 61 38.5 95.5t91.5 48.5q31 8 102.5 23t123.5 30q-1 20 -2 30t-6 26.5t-14.5 25t-28 15t-44.5 6.5q-91 0 -119 -51q-11 -20 -16.5 -28.5t-17.5 -16.5t-29 -8q-20 0 -37.5 13.5t-17.5 36.5q0 34 23 64t52 47 q58 34 158 34q74 0 122 -14t71.5 -44.5t31.5 -66t7 -88.5l-3 -125q-2 -58 14 -100q12 -32 12 -51q0 -21 -18.5 -37t-42.5 -16q-40 0 -85 75zM397 256q-30 -12 -81 -22q-82 -16 -112.5 -33.5t-30.5 -52.5q0 -26 21 -49.5t66 -23.5q42 0 78.5 22t49.5 60q9 25 9 99zM160 578 q-28 0 -28 37q0 36 22.5 67t58.5 31q37 0 80 -23q65 -28 79 -28q17 0 24.5 8t13.5 31t25 23q11 0 19.5 -10t8.5 -24q0 -31 -21 -65.5t-62 -34.5q-36 0 -84 24q-55 26 -77 26q-14 0 -21 -9t-14 -30q-8 -23 -24 -23z" />
<glyph unicode="&#xe4;" d="M406 63q-97 -75 -187 -75q-93 0 -136 46.5t-43 104.5q0 61 38.5 95.5t91.5 48.5q31 8 102.5 23t123.5 30q-1 20 -2 30t-6 26.5t-14.5 25t-28 15t-44.5 6.5q-91 0 -119 -51q-11 -20 -16.5 -28.5t-17.5 -16.5t-29 -8q-20 0 -37.5 13.5t-17.5 36.5q0 34 23 64t52 47 q58 34 158 34q74 0 122 -14t71.5 -44.5t31.5 -66t7 -88.5l-3 -125q-2 -58 14 -100q12 -32 12 -51q0 -21 -18.5 -37t-42.5 -16q-40 0 -85 75zM397 256q-30 -12 -81 -22q-82 -16 -112.5 -33.5t-30.5 -52.5q0 -26 21 -49.5t66 -23.5q42 0 78.5 22t49.5 60q9 25 9 99zM258 650 q0 -23 -16 -39t-39 -16t-39 16t-16 39t16 39t39 16t39 -16.5t16 -38.5zM447 650q0 -23 -16 -39t-39 -16t-39 16t-16 39q0 22 16.5 38.5t38.5 16.5q23 0 39 -16t16 -39z" />
<glyph unicode="&#xe5;" d="M406 63q-97 -75 -187 -75q-93 0 -136 46.5t-43 104.5q0 61 38.5 95.5t91.5 48.5q31 8 102.5 23t123.5 30q-1 20 -2 30t-6 26.5t-14.5 25t-28 15t-44.5 6.5q-91 0 -119 -51q-11 -20 -16.5 -28.5t-17.5 -16.5t-29 -8q-20 0 -37.5 13.5t-17.5 36.5q0 34 23 64t52 47 q58 34 158 34q74 0 122 -14t71.5 -44.5t31.5 -66t7 -88.5l-3 -125q-2 -58 14 -100q12 -32 12 -51q0 -21 -18.5 -37t-42.5 -16q-40 0 -85 75zM397 256q-30 -12 -81 -22q-82 -16 -112.5 -33.5t-30.5 -52.5q0 -26 21 -49.5t66 -23.5q42 0 78.5 22t49.5 60q9 25 9 99zM398 664 q0 -41 -29.5 -70.5t-70.5 -29.5q-42 0 -71.5 29.5t-29.5 70.5q0 42 29.5 71.5t71.5 29.5q41 0 70.5 -29.5t29.5 -71.5zM347 664q0 21 -14.5 35.5t-34.5 14.5q-21 0 -35.5 -14.5t-14.5 -35.5q0 -20 14.5 -34.5t35.5 -14.5q20 0 34.5 14.5t14.5 34.5z" />
<glyph unicode="&#xe6;" horiz-adv-x="927" d="M196 288l128 27q51 10 68 20q0 50 -9 69q-8 18 -34.5 26.5t-52.5 8.5q-32 0 -53.5 -5.5t-35.5 -18.5t-19.5 -22.5t-15.5 -29.5q-18 -38 -57 -38q-27 0 -40 16t-13 37q0 12 2.5 25.5t16 38t36.5 42.5t70.5 32t111.5 14q52 0 91 -11.5t52 -21t28 -24.5q36 28 72 42.5 t92 14.5q71 0 123.5 -25.5t78 -63.5t37 -72t11.5 -61q0 -37 -18 -57q-15 -17 -33.5 -20.5t-69.5 -3.5h-245q2 -71 36.5 -110t93.5 -39q78 0 129 60q21 25 32 32t25 7q19 0 32.5 -13t13.5 -32q0 -7 -5 -21.5t-20 -36.5t-38.5 -40.5t-66.5 -32t-97 -13.5q-63 0 -110 15.5 t-65 30.5t-37 38q-101 -84 -220 -84q-52 0 -90 16t-56 41t-25.5 47.5t-7.5 44.5q0 117 154 151zM518 303h240q-4 62 -33 99t-86 37q-58 0 -89.5 -41.5t-31.5 -94.5zM392 219v36q-38 -12 -123 -30q-94 -20 -94 -78q0 -27 21 -50t66 -23q58 0 98 39q32 32 32 106z" />
<glyph unicode="&#xe7;" d="M320 -12l-2 -10q43 -2 69 -20q33 -23 33 -62q0 -32 -26 -58q-38 -38 -135 -38q-92 0 -92 34q0 10 6.5 16.5t16.5 6.5l28 -2q27 -2 33 -2q84 0 84 42q0 17 -15 26.5t-31 9.5q-4 0 -15 -1t-21 -2l-10 -1q-9 0 -15.5 7t-8 13t-1.5 9q0 23 69 33q-60 3 -105.5 23t-71 48.5 t-41.5 66t-21 68t-5 61.5q0 50 14 96.5t43.5 87.5t83.5 65.5t126 24.5q102 0 166 -52.5t64 -102.5q0 -25 -18 -41t-41 -16q-29 0 -46 25q-28 43 -54.5 64t-71.5 21q-48 0 -79.5 -29t-42.5 -65.5t-11 -76.5q0 -63 26 -108q37 -62 107 -62q38 0 66.5 17.5t42.5 39.5q3 4 7 11 q22 35 33 45.5t32 10.5q26 0 41.5 -19.5t15.5 -38.5q0 -22 -13 -47.5t-38.5 -51.5t-71.5 -44.5t-104 -21.5z" />
<glyph unicode="&#xe8;" d="M441 226h-262q1 -41 14 -71.5t33.5 -46.5t42 -24t44.5 -8q67 0 126 59q21 21 33 28.5t28 7.5q18 0 31 -11t13 -28q0 -18 -13 -41t-38.5 -46.5t-72 -40t-104.5 -16.5q-93 0 -154 36q-50 29 -78.5 81t-34 86.5t-5.5 67.5q0 116 66 193.5t195 77.5q55 0 99 -16.5t70.5 -41.5 t44.5 -56.5t25 -59t7 -51.5q0 -23 -8 -38.5t-17.5 -23.5t-27.5 -12t-28.5 -4.5t-28.5 -0.5zM179 302h243q-4 54 -21 80q-35 56 -100 56q-70 0 -103 -65q-15 -29 -19 -71zM356 632q17 -31 17 -36q0 -12 -19 -12q-10 0 -18.5 1t-15 2t-14.5 5.5t-12 6.5t-14 10t-13.5 11 t-17 14.5t-18.5 16.5q-60 53 -60 63q0 7 24 7h49q32 0 43 -2t23.5 -13t27.5 -40z" />
<glyph unicode="&#xe9;" d="M441 226h-262q1 -41 14 -71.5t33.5 -46.5t42 -24t44.5 -8q67 0 126 59q21 21 33 28.5t28 7.5q18 0 31 -11t13 -28q0 -18 -13 -41t-38.5 -46.5t-72 -40t-104.5 -16.5q-93 0 -154 36q-50 29 -78.5 81t-34 86.5t-5.5 67.5q0 116 66 193.5t195 77.5q55 0 99 -16.5t70.5 -41.5 t44.5 -56.5t25 -59t7 -51.5q0 -23 -8 -38.5t-17.5 -23.5t-27.5 -12t-28.5 -4.5t-28.5 -0.5zM179 302h243q-4 54 -21 80q-35 56 -100 56q-70 0 -103 -65q-15 -29 -19 -71zM243 632l18 34q21 40 36 47.5t58 7.5h49q24 0 24 -7q0 -10 -60 -63q-5 -5 -18.5 -16.5t-17 -14.5 t-13.5 -11t-14 -10t-12 -6.5t-14.5 -5.5t-15 -2t-18.5 -1q-19 0 -19 12q0 5 17 36z" />
<glyph unicode="&#xea;" d="M441 226h-262q1 -41 14 -71.5t33.5 -46.5t42 -24t44.5 -8q67 0 126 59q21 21 33 28.5t28 7.5q18 0 31 -11t13 -28q0 -18 -13 -41t-38.5 -46.5t-72 -40t-104.5 -16.5q-93 0 -154 36q-50 29 -78.5 81t-34 86.5t-5.5 67.5q0 116 66 193.5t195 77.5q55 0 99 -16.5t70.5 -41.5 t44.5 -56.5t25 -59t7 -51.5q0 -23 -8 -38.5t-17.5 -23.5t-27.5 -12t-28.5 -4.5t-28.5 -0.5zM179 302h243q-4 54 -21 80q-35 56 -100 56q-70 0 -103 -65q-15 -29 -19 -71zM298 678l-49 -57q-23 -28 -31 -31q-8 -4 -39 -4h-24q-20 0 -20 7q0 6 15 24l54 65q25 30 36.5 37.5 t42.5 7.5h28q30 0 41 -7t38 -38l56 -66q14 -17 14 -23q0 -7 -21 -7h-20q-39 0 -49 9z" />
<glyph unicode="&#xeb;" d="M441 226h-262q1 -41 14 -71.5t33.5 -46.5t42 -24t44.5 -8q67 0 126 59q21 21 33 28.5t28 7.5q18 0 31 -11t13 -28q0 -18 -13 -41t-38.5 -46.5t-72 -40t-104.5 -16.5q-93 0 -154 36q-50 29 -78.5 81t-34 86.5t-5.5 67.5q0 116 66 193.5t195 77.5q55 0 99 -16.5t70.5 -41.5 t44.5 -56.5t25 -59t7 -51.5q0 -23 -8 -38.5t-17.5 -23.5t-27.5 -12t-28.5 -4.5t-28.5 -0.5zM179 302h243q-4 54 -21 80q-35 56 -100 56q-70 0 -103 -65q-15 -29 -19 -71zM258 650q0 -23 -16 -39t-39 -16t-39 16t-16 39t16 39t39 16t39 -16.5t16 -38.5zM447 650 q0 -23 -16 -39t-39 -16t-39 16t-16 39q0 22 16.5 38.5t38.5 16.5q23 0 39 -16t16 -39z" />
<glyph unicode="&#xec;" horiz-adv-x="271" d="M202 421v-323q0 -29 -0.5 -41.5t-4.5 -26t-13 -21.5q-21 -21 -48 -21q-28 0 -49 21q-12 12 -15 29.5t-3 59.5v322q0 29 0.5 42t4.5 26t13 22q22 20 48 20q20 0 36 -10t22 -23q9 -20 9 -76zM194 632q17 -31 17 -36q0 -12 -19 -12q-10 0 -18.5 1t-15 2t-14.5 5.5t-12 6.5 t-14 10t-13.5 11t-17 14.5t-18.5 16.5q-60 53 -60 63q0 7 24 7h49q32 0 43 -2t23.5 -13t27.5 -40z" />
<glyph unicode="&#xed;" horiz-adv-x="271" d="M202 421v-323q0 -29 -0.5 -41.5t-4.5 -26t-13 -21.5q-21 -21 -48 -21q-28 0 -49 21q-12 12 -15 29.5t-3 59.5v322q0 29 0.5 42t4.5 26t13 22q22 20 48 20q20 0 36 -10t22 -23q9 -20 9 -76zM81 632l18 34q21 40 36 47.5t58 7.5h49q24 0 24 -7q0 -10 -60 -63 q-5 -5 -18.5 -16.5t-17 -14.5t-13.5 -11t-14 -10t-12 -6.5t-14.5 -5.5t-15 -2t-18.5 -1q-19 0 -19 12q0 5 17 36z" />
<glyph unicode="&#xee;" horiz-adv-x="271" d="M202 421v-323q0 -29 -0.5 -41.5t-4.5 -26t-13 -21.5q-21 -21 -48 -21q-28 0 -49 21q-12 12 -15 29.5t-3 59.5v322q0 29 0.5 42t4.5 26t13 22q22 20 48 20q20 0 36 -10t22 -23q9 -20 9 -76zM136 678l-49 -57q-23 -28 -31 -31q-8 -4 -39 -4h-24q-20 0 -20 7q0 6 15 24 l54 65q25 30 36.5 37.5t42.5 7.5h28q30 0 41 -7t38 -38l56 -66q14 -17 14 -23q0 -7 -21 -7h-20q-39 0 -49 9z" />
<glyph unicode="&#xef;" horiz-adv-x="271" d="M202 421v-323q0 -29 -0.5 -41.5t-4.5 -26t-13 -21.5q-21 -21 -48 -21q-28 0 -49 21q-12 12 -15 29.5t-3 59.5v322q0 29 0.5 42t4.5 26t13 22q22 20 48 20q20 0 36 -10t22 -23q9 -20 9 -76zM96 650q0 -23 -16 -39t-39 -16t-39 16t-16 39t16 39t39 16t39 -16.5t16 -38.5z M285 650q0 -23 -16 -39t-39 -16t-39 16t-16 39q0 22 16.5 38.5t38.5 16.5q23 0 39 -16t16 -39z" />
<glyph unicode="&#xf0;" horiz-adv-x="604" d="M286 584l-44 -24q-40 -22 -53 -22q-14 0 -22.5 12t-8.5 23q0 15 11 24t39 25l22 12q-27 24 -27 48q0 17 13.5 31.5t35.5 14.5q19 0 43 -11q3 -1 19.5 -12l19.5 -13l26 14q39 21 53 21t22.5 -11.5t8.5 -23.5q0 -14 -11 -23.5t-44 -27.5q180 -172 180 -381 q0 -122 -73.5 -197t-194.5 -75q-125 0 -195.5 78t-70.5 193q0 65 24 117t62 81.5t80.5 45t85.5 15.5q29 0 66 -13q-28 41 -67 79zM170 254q0 -88 40 -127.5t91 -39.5q21 0 42.5 8t43 25.5t34.5 52t13 81.5q0 79 -36.5 122t-95.5 43t-95.5 -45t-36.5 -120z" />
<glyph unicode="&#xf1;" horiz-adv-x="604" d="M539 317v-219q0 -28 -0.5 -40.5t-4.5 -27t-13 -22.5q-22 -20 -48 -20t-48 19q-19 19 -19 91v192q0 21 -0.5 32.5t-5 34t-13.5 35.5t-27 23.5t-44 10.5q-31 0 -58 -16t-40 -41q-12 -23 -16.5 -48t-4.5 -85v-138q0 -28 -0.5 -40.5t-5 -27t-13.5 -22.5q-22 -20 -47 -20 q-26 0 -48 19q-9 9 -13.5 23t-5 27t-0.5 41v329q0 26 0.5 38t4.5 25.5t13 21.5q18 18 45 18q36 0 52 -28q10 -18 10 -62q70 90 172 90q100 0 150 -75q28 -43 28 -138zM165 578q-28 0 -28 37q0 36 22.5 67t58.5 31q37 0 80 -23q65 -28 79 -28q17 0 24.5 8t13.5 31t25 23 q11 0 19.5 -10t8.5 -24q0 -31 -21 -65.5t-62 -34.5q-36 0 -84 24q-55 26 -77 26q-14 0 -21 -9t-14 -30q-8 -23 -24 -23z" />
<glyph unicode="&#xf2;" horiz-adv-x="604" d="M568 259q0 -117 -71 -194t-192 -77q-72 0 -126.5 24.5t-84 65.5t-44 86.5t-14.5 94.5q0 114 68.5 192.5t197.5 78.5t197.5 -79t68.5 -192zM433 259q0 82 -35.5 127t-95.5 45t-95.5 -45.5t-35.5 -126.5q0 -82 35.5 -127t95.5 -45t95.5 45t35.5 127zM361 632q17 -31 17 -36 q0 -12 -19 -12q-10 0 -18.5 1t-15 2t-14.5 5.5t-12 6.5t-14 10t-13.5 11t-17 14.5t-18.5 16.5q-60 53 -60 63q0 7 24 7h49q32 0 43 -2t23.5 -13t27.5 -40z" />
<glyph unicode="&#xf3;" horiz-adv-x="604" d="M568 259q0 -117 -71 -194t-192 -77q-72 0 -126.5 24.5t-84 65.5t-44 86.5t-14.5 94.5q0 114 68.5 192.5t197.5 78.5t197.5 -79t68.5 -192zM433 259q0 82 -35.5 127t-95.5 45t-95.5 -45.5t-35.5 -126.5q0 -82 35.5 -127t95.5 -45t95.5 45t35.5 127zM248 632l18 34 q21 40 36 47.5t58 7.5h49q24 0 24 -7q0 -10 -60 -63q-5 -5 -18.5 -16.5t-17 -14.5t-13.5 -11t-14 -10t-12 -6.5t-14.5 -5.5t-15 -2t-18.5 -1q-19 0 -19 12q0 5 17 36z" />
<glyph unicode="&#xf4;" horiz-adv-x="604" d="M568 259q0 -117 -71 -194t-192 -77q-72 0 -126.5 24.5t-84 65.5t-44 86.5t-14.5 94.5q0 114 68.5 192.5t197.5 78.5t197.5 -79t68.5 -192zM433 259q0 82 -35.5 127t-95.5 45t-95.5 -45.5t-35.5 -126.5q0 -82 35.5 -127t95.5 -45t95.5 45t35.5 127zM303 678l-49 -57 q-23 -28 -31 -31q-8 -4 -39 -4h-24q-20 0 -20 7q0 6 15 24l54 65q25 30 36.5 37.5t42.5 7.5h28q30 0 41 -7t38 -38l56 -66q14 -17 14 -23q0 -7 -21 -7h-20q-39 0 -49 9z" />
<glyph unicode="&#xf5;" horiz-adv-x="604" d="M568 259q0 -117 -71 -194t-192 -77q-72 0 -126.5 24.5t-84 65.5t-44 86.5t-14.5 94.5q0 114 68.5 192.5t197.5 78.5t197.5 -79t68.5 -192zM433 259q0 82 -35.5 127t-95.5 45t-95.5 -45.5t-35.5 -126.5q0 -82 35.5 -127t95.5 -45t95.5 45t35.5 127zM165 578q-28 0 -28 37 q0 36 22.5 67t58.5 31q37 0 80 -23q65 -28 79 -28q17 0 24.5 8t13.5 31t25 23q11 0 19.5 -10t8.5 -24q0 -31 -21 -65.5t-62 -34.5q-36 0 -84 24q-55 26 -77 26q-14 0 -21 -9t-14 -30q-8 -23 -24 -23z" />
<glyph unicode="&#xf6;" horiz-adv-x="604" d="M568 259q0 -117 -71 -194t-192 -77q-72 0 -126.5 24.5t-84 65.5t-44 86.5t-14.5 94.5q0 114 68.5 192.5t197.5 78.5t197.5 -79t68.5 -192zM433 259q0 82 -35.5 127t-95.5 45t-95.5 -45.5t-35.5 -126.5q0 -82 35.5 -127t95.5 -45t95.5 45t35.5 127zM263 650q0 -23 -16 -39 t-39 -16t-39 16t-16 39t16 39t39 16q22 0 38.5 -16.5t16.5 -38.5zM452 650q0 -23 -16 -39t-39 -16t-39 16t-16 39q0 22 16 38.5t39 16.5t39 -16t16 -39z" />
<glyph unicode="&#xf7;" horiz-adv-x="583" d="M542 289h-501v128h501v-128zM355 478h-128v125h128v-125zM355 103h-128v125h128v-125z" />
<glyph unicode="&#xf8;" horiz-adv-x="604" d="M132 41l-18 -18q-27 -26 -36 -32.5t-20 -6.5q-13 0 -21.5 9.5t-8.5 23.5q0 19 34 54l22 22q-48 68 -48 169q0 112 69 190t195 78q102 0 171 -52l25 25q30 30 48 30q12 0 22 -9t10 -23q0 -18 -31 -49l-26 -25q49 -73 49 -170q0 -113 -69.5 -191t-194.5 -78q-102 0 -172 53 zM424 332l-210 -209q34 -36 88 -36q60 0 95.5 45t35.5 127q0 28 -9 73zM180 188l208 208q-35 35 -86 35q-61 0 -96 -46t-35 -125q0 -45 9 -72z" />
<glyph unicode="&#xf9;" horiz-adv-x="604" d="M65 186v234q0 28 0.5 41t4.5 27.5t13 22.5q21 19 48 19t48 -19q19 -18 19 -94v-183q0 -71 16 -99q24 -42 74 -42q31 0 59 16t41 41q18 34 18 137v133q0 73 19 91q21 19 48 19t48 -19q12 -12 15 -31t3 -60v-329q0 -57 -8 -71q-17 -32 -54 -32q-64 0 -62 92 q-13 -17 -23.5 -28t-32.5 -28.5t-52.5 -26.5t-67.5 -9q-46 0 -88.5 19.5t-60.5 56.5q-25 49 -25 122zM361 632q17 -31 17 -36q0 -12 -19 -12q-10 0 -18.5 1t-15 2t-14.5 5.5t-12 6.5t-14 10t-13.5 11t-17 14.5t-18.5 16.5q-60 53 -60 63q0 7 24 7h49q32 0 43 -2t23.5 -13 t27.5 -40z" />
<glyph unicode="&#xfa;" horiz-adv-x="604" d="M65 186v234q0 28 0.5 41t4.5 27.5t13 22.5q21 19 48 19t48 -19q19 -18 19 -94v-183q0 -71 16 -99q24 -42 74 -42q31 0 59 16t41 41q18 34 18 137v133q0 73 19 91q21 19 48 19t48 -19q12 -12 15 -31t3 -60v-329q0 -57 -8 -71q-17 -32 -54 -32q-64 0 -62 92 q-13 -17 -23.5 -28t-32.5 -28.5t-52.5 -26.5t-67.5 -9q-46 0 -88.5 19.5t-60.5 56.5q-25 49 -25 122zM248 632l18 34q21 40 36 47.5t58 7.5h49q24 0 24 -7q0 -10 -60 -63q-5 -5 -18.5 -16.5t-17 -14.5t-13.5 -11t-14 -10t-12 -6.5t-14.5 -5.5t-15 -2t-18.5 -1q-19 0 -19 12 q0 5 17 36z" />
<glyph unicode="&#xfb;" horiz-adv-x="604" d="M65 186v234q0 28 0.5 41t4.5 27.5t13 22.5q21 19 48 19t48 -19q19 -18 19 -94v-183q0 -71 16 -99q24 -42 74 -42q31 0 59 16t41 41q18 34 18 137v133q0 73 19 91q21 19 48 19t48 -19q12 -12 15 -31t3 -60v-329q0 -57 -8 -71q-17 -32 -54 -32q-64 0 -62 92 q-13 -17 -23.5 -28t-32.5 -28.5t-52.5 -26.5t-67.5 -9q-46 0 -88.5 19.5t-60.5 56.5q-25 49 -25 122zM303 678l-49 -57q-23 -28 -31 -31q-8 -4 -39 -4h-24q-20 0 -20 7q0 6 15 24l54 65q25 30 36.5 37.5t42.5 7.5h28q30 0 41 -7t38 -38l56 -66q14 -17 14 -23q0 -7 -21 -7 h-20q-39 0 -49 9z" />
<glyph unicode="&#xfc;" horiz-adv-x="604" d="M65 186v234q0 28 0.5 41t4.5 27.5t13 22.5q21 19 48 19t48 -19q19 -18 19 -94v-183q0 -71 16 -99q24 -42 74 -42q31 0 59 16t41 41q18 34 18 137v133q0 73 19 91q21 19 48 19t48 -19q12 -12 15 -31t3 -60v-329q0 -57 -8 -71q-17 -32 -54 -32q-64 0 -62 92 q-13 -17 -23.5 -28t-32.5 -28.5t-52.5 -26.5t-67.5 -9q-46 0 -88.5 19.5t-60.5 56.5q-25 49 -25 122zM263 650q0 -23 -16 -39t-39 -16t-39 16t-16 39t16 39t39 16q22 0 38.5 -16.5t16.5 -38.5zM452 650q0 -23 -16 -39t-39 -16t-39 16t-16 39q0 22 16 38.5t39 16.5t39 -16 t16 -39z" />
<glyph unicode="&#xfd;" horiz-adv-x="542" d="M204 1l-163 413q-15 40 -15 55q0 23 18.5 42t45.5 19t42 -18t27 -53l113 -328l107 304q21 60 33.5 77.5t42.5 17.5q29 0 44 -19t15 -37q0 -23 -16 -64l-174 -455q-17 -46 -29.5 -70.5t-34.5 -49.5t-54.5 -35t-79.5 -10q-24 0 -41 2t-36 7.5t-29 18t-10 31.5t13 32.5 t35 13.5q3 0 22.5 -1.5t22.5 -1.5q37 0 54.5 18t34.5 61zM217 632l18 34q21 40 36 47.5t58 7.5h49q24 0 24 -7q0 -10 -60 -63q-5 -5 -18.5 -16.5t-17 -14.5t-13.5 -11t-14 -10t-12 -6.5t-14.5 -5.5t-15 -2t-18.5 -1q-19 0 -19 12q0 5 17 36z" />
<glyph unicode="&#xfe;" horiz-adv-x="625" d="M189 653v-212q21 25 36.5 40t53 32t83.5 17q106 0 164.5 -79t58.5 -198q0 -111 -56 -188t-166 -77q-44 0 -82 16t-54 30t-38 37v-174q0 -22 -0.5 -33t-4 -28t-10 -25t-20 -14.5t-32.5 -6.5q-49 0 -61 44q-5 18 -5 67v724q0 69 17 86q20 17 50 17q66 0 66 -75zM327 428 q-54 0 -92.5 -41t-38.5 -122q0 -80 35.5 -127.5t96.5 -47.5q53 0 87.5 42.5t34.5 123.5q0 91 -43 136q-34 36 -80 36z" />
<glyph unicode="&#xff;" horiz-adv-x="542" d="M204 1l-163 413q-15 40 -15 55q0 23 18.5 42t45.5 19t42 -18t27 -53l113 -328l107 304q21 60 33.5 77.5t42.5 17.5q29 0 44 -19t15 -37q0 -23 -16 -64l-174 -455q-17 -46 -29.5 -70.5t-34.5 -49.5t-54.5 -35t-79.5 -10q-24 0 -41 2t-36 7.5t-29 18t-10 31.5t13 32.5 t35 13.5q3 0 22.5 -1.5t22.5 -1.5q37 0 54.5 18t34.5 61zM232 650q0 -23 -16 -39t-39 -16t-39 16t-16 39t16 39t39 16t39 -16.5t16 -38.5zM421 650q0 -23 -16 -39t-39 -16t-39 16t-16 39q0 22 16.5 38.5t38.5 16.5q23 0 39 -16t16 -39z" />
<glyph unicode="&#x131;" horiz-adv-x="271" d="M202 421v-323q0 -29 -0.5 -41.5t-4.5 -26t-13 -21.5q-21 -21 -48 -21q-28 0 -49 21q-12 12 -15 29.5t-3 59.5v322q0 29 0.5 42t4.5 26t13 22q22 20 48 20q20 0 36 -10t22 -23q9 -20 9 -76z" />
<glyph unicode="&#x141;" horiz-adv-x="604" d="M219 449l57 49q37 32 56 32q18 0 31.5 -15.5t13.5 -30.5t-8 -24.5t-34 -31.5l-116 -98v-218h269q26 0 37.5 -0.5t23.5 -4t19 -11.5q19 -17 19 -39q0 -23 -18 -41q-11 -11 -27 -13.5t-54 -2.5h-291q-53 0 -68.5 3t-31.5 18q-15 15 -18.5 32.5t-3.5 67.5v89 q-14 -12 -31 -12q-19 0 -32.5 15.5t-13.5 31.5q0 13 8.5 23.5t34.5 31.5l34 29v279q0 32 0.5 45.5t5 28t13.5 23.5q23 23 53 23t54 -22q12 -11 15 -28.5t3 -56.5v-13v-159z" />
<glyph unicode="&#x142;" horiz-adv-x="271" d="M236 397l-34 -29v-270q0 -42 -3 -59.5t-15 -29.5q-21 -21 -48 -21q-28 0 -49 21q-12 12 -15 29.5t-3 59.5v159q-23 -18 -36 -18q-11 0 -22 9t-11 23q0 13 7 22t28 26l34 29v270q0 42 3 59.5t15 29.5q19 21 48 21t49 -20q9 -9 13 -22.5t4.5 -26t0.5 -41.5v-158 q22 17 36 17q13 0 23 -9t10 -23q0 -20 -35 -48z" />
<glyph unicode="&#x152;" horiz-adv-x="1031" d="M659 317v-205h258q63 0 78 -16q17 -17 17 -39q0 -15 -7.5 -29t-18.5 -19q-17 -9 -69 -9h-266q-28 0 -41 0.5t-31.5 5t-26.5 13.5t-14 25.5t-6 42.5q-13 -19 -23.5 -30.5t-34.5 -30t-59 -28.5t-80 -10q-80 0 -140 32.5t-92.5 87.5t-48 117.5t-15.5 132.5q0 74 16.5 138.5 t50 117.5t90.5 83.5t133 30.5q43 0 78 -9t60.5 -27t36.5 -28.5t28 -29.5q0 24 6.5 40t15 24.5t27 12.5t31.5 4.5t41 0.5h247q65 0 79 -16q18 -18 18 -39q0 -14 -7.5 -28.5t-18.5 -19.5q-18 -9 -71 -9h-241v-175h216q64 0 78 -16q18 -18 18 -39q0 -22 -17 -41 q-7 -8 -19.5 -11.5t-23.5 -4t-36 -0.5h-216zM520 344v45q0 22 -1 40t-10 55.5t-24.5 62.5t-49 45.5t-80.5 20.5q-35 0 -63 -12.5t-45.5 -29.5t-30 -44t-18 -48t-8.5 -50t-3.5 -40t-0.5 -28q0 -114 34 -177q43 -81 136 -81q65 0 107 43q57 60 57 198z" />
<glyph unicode="&#x153;" horiz-adv-x="958" d="M799 226h-246q4 -76 40.5 -112.5t91.5 -36.5q81 0 129 59q17 21 28 29.5t27 8.5q19 0 31.5 -14t12.5 -32q0 -34 -38 -72q-68 -68 -185 -68q-58 0 -102 14.5t-62 28.5t-40 38q-73 -81 -188 -81q-120 0 -190 78.5t-70 192.5q0 35 7.5 69.5t26 71.5t47 65.5t74.5 46.5 t103 18q109 0 187 -78q20 21 35.5 33.5t57.5 28.5t94 16q57 0 102 -17t72 -42t45 -57t24.5 -59.5t6.5 -51.5q0 -39 -28 -62q-17 -15 -93 -15zM553 303h241q-5 55 -26 88q-31 47 -94 47q-56 0 -89.5 -41t-31.5 -94zM299 87q51 -2 90.5 40.5t39.5 131.5q0 27 -5.5 53.5 t-18.5 55t-40.5 46t-65.5 17.5q-65 0 -98.5 -51t-33.5 -125q0 -68 33 -118t99 -50z" />
<glyph unicode="&#x160;" horiz-adv-x="667" d="M622 215q0 -98 -74.5 -162.5t-208.5 -64.5q-70 0 -124.5 18.5t-84 44t-48 57t-24 53.5t-5.5 38q0 24 18 43.5t48 19.5q19 0 32.5 -10.5t20 -23t20.5 -44.5q37 -90 142 -90q58 0 102 27t44 78q0 23 -10 40.5t-23.5 28.5t-40 21t-44.5 14.5t-53 12.5q-75 18 -110.5 32.5 t-61.5 34.5q-70 56 -70 145q0 91 72 145.5t197 54.5q75 0 129.5 -21.5t79.5 -52.5t36 -56.5t11 -44.5q0 -23 -18 -45t-48 -22q-26 0 -40 14.5t-31 50.5q-7 14 -13 22.5t-20.5 22.5t-38.5 21.5t-56 7.5q-50 0 -87.5 -22t-37.5 -62q0 -18 10 -33t22 -24t37.5 -18.5t39.5 -13 l46 -11.5q85 -20 127 -37t72 -41q66 -52 66 -148zM333 814l49 57q23 28 31 31q8 4 39 4h24q20 0 20 -7q0 -6 -15 -24l-54 -65q-25 -30 -36.5 -37.5t-42.5 -7.5h-28q-30 0 -42 7t-37 38l-56 66q-14 17 -14 23q0 7 21 7h20q39 0 49 -9z" />
<glyph unicode="&#x161;" horiz-adv-x="542" d="M498 162q0 -89 -64 -131.5t-168 -42.5q-53 0 -95 11.5t-65 28t-38.5 37.5t-20.5 37t-5 29q0 22 15.5 37.5t38.5 15.5q15 0 26 -6.5t16 -13t13 -19.5q12 -20 21.5 -31.5t38 -25.5t66.5 -14q40 0 65 18t25 45q0 18 -9 31t-27.5 22t-34 14t-42.5 11q-32 7 -54 13.5 t-53.5 19.5t-50.5 29t-33.5 41.5t-14.5 56.5q0 20 8 42.5t28.5 50t66 45t109.5 17.5q100 0 156 -40.5t56 -81.5q0 -21 -14 -37t-41 -16q-12 0 -19.5 2t-21.5 13t-31 32q-33 42 -91 42q-29 0 -56.5 -12t-27.5 -41q0 -27 29 -41.5t118 -36.5q181 -44 181 -151zM271 635l49 57 q23 28 31 31q8 4 39 4h24q20 0 20 -7q0 -6 -15 -24l-54 -65q-25 -30 -36.5 -37.5t-42.5 -7.5h-28q-30 0 -42 7t-37 38l-56 66q-14 17 -14 23q0 7 21 7h20q39 0 49 -9z" />
<glyph unicode="&#x178;" horiz-adv-x="625" d="M239 303l-175 271q-43 66 -43 92t20 44t48 18q27 0 42.5 -16t47.5 -68l134 -217l135 217q27 44 39 59q22 25 53 25q27 0 45.5 -18t18.5 -43q0 -24 -42 -89l-179 -275v-195q0 -44 -3 -65t-17 -34q-23 -21 -52 -21q-31 0 -52 21q-14 14 -17 34.5t-3 64.5v195zM273 829 q0 -23 -16 -39t-39 -16t-39 16t-16 39t16 39t39 16q22 0 38.5 -16t16.5 -39zM462 829q0 -23 -16 -39t-39 -16t-39 16t-16 39t16 39t39 16t39 -16t16 -39z" />
<glyph unicode="&#x17d;" horiz-adv-x="646" d="M428 604h-292q-49 0 -67 10q-25 14 -25 46q0 24 16 40q10 11 26 13.5t50 2.5h367q17 0 26 -0.5t24.5 -4.5t23.5 -11.5t14.5 -22.5t6.5 -37q0 -30 -12.5 -51t-54.5 -72l-343 -405h353q61 0 76 -16q17 -19 17 -40q0 -24 -16 -40t-77 -16h-405q-69 0 -90 10q-15 7 -27.5 26 t-12.5 41q0 20 8 33t45 57zM323 814l49 57q23 28 31 31q8 4 39 4h24q20 0 20 -7q0 -6 -15 -24l-54 -65q-25 -30 -36.5 -37.5t-42.5 -7.5h-28q-30 0 -42 7t-37 38l-56 66q-14 17 -14 23q0 7 21 7h20q39 0 49 -9z" />
<glyph unicode="&#x17e;" horiz-adv-x="521" d="M186 102h239h24.5t21.5 -2.5t21.5 -7.5t12.5 -15t6 -25q0 -16 -6.5 -26.5t-12.5 -15.5t-22.5 -7.5t-21.5 -2.5h-23h-311q-67 0 -82 15q-21 21 -21 45q0 15 9 29.5t35 42.5q179 195 237 265q10 11 16 22h-197q-18 0 -29 1t-25.5 5.5t-21.5 15t-7 27.5q0 22 14 36t69 14 h251q52 0 67.5 -1.5t26.5 -8.5q27 -17 27 -49q0 -18 -8 -30t-44 -52zM260 635l49 57q23 28 31 31q8 4 39 4h24q20 0 20 -7q0 -6 -15 -24l-54 -65q-25 -30 -36.5 -37.5t-42.5 -7.5h-28q-30 0 -42 7t-37 38l-56 66q-14 17 -14 23q0 7 21 7h20q39 0 49 -9z" />
<glyph unicode="&#x192;" d="M240 380l27 154q7 40 12 60t18 50.5t30.5 45.5t49.5 26.5t76 11.5q125 0 125 -62q0 -17 -11 -30t-37 -13q-5 0 -33.5 4.5t-32.5 4.5q-25 0 -41 -14t-25 -53q-7 -29 -18 -98t-15 -87h19q22 0 33 -1t25.5 -5t20.5 -14t6 -27q0 -18 -8 -28.5t-25 -14.5t-27.5 -5t-30.5 -1 h-30l-54 -306q-6 -36 -10.5 -54t-17.5 -48t-30.5 -45.5t-50.5 -28t-77 -12.5q-26 0 -50.5 3.5t-48.5 18t-24 38.5q0 18 13 31t34 13q5 0 30 -4t29 -4q41 0 55 20t23 70l54 308q-23 0 -35 0.5t-28.5 4t-23.5 13.5t-7 27q0 24 17 36t33.5 13.5t46.5 1.5h14z" />
<glyph unicode="&#x2c6;" horiz-adv-x="333" d="M167 678l-49 -57q-23 -28 -31 -31q-8 -4 -39 -4h-24q-20 0 -20 7q0 6 15 24l54 65q25 30 36.5 37.5t42.5 7.5h28q30 0 41 -7t38 -38l56 -66q14 -17 14 -23q0 -7 -21 -7h-20q-39 0 -49 9z" />
<glyph unicode="&#x2c7;" horiz-adv-x="333" d="M166 635l49 57q23 28 31 31q8 4 39 4h24q20 0 20 -7q0 -6 -15 -24l-54 -65q-25 -30 -36.5 -37.5t-42.5 -7.5h-28q-30 0 -42 7t-37 38l-56 66q-14 17 -14 23q0 7 21 7h20q39 0 49 -9z" />
<glyph unicode="&#x2c9;" horiz-adv-x="333" d="M-11 617v68h355v-68h-355z" />
<glyph unicode="&#x2d8;" horiz-adv-x="333" d="M168 655q27 0 46 8t28.5 22.5t13 23t6.5 21.5q2 11 10 18.5t18 7.5q12 0 20.5 -9.5t8.5 -23.5q0 -45 -40.5 -90t-109.5 -45q-73 0 -114 45.5t-41 89.5q0 12 8.5 22.5t21.5 10.5q10 0 16.5 -6t9 -13t5.5 -20q2 -7 6 -14.5t14 -19.5t29 -20t44 -8z" />
<glyph unicode="&#x2d9;" horiz-adv-x="333" d="M222 650q0 -23 -16 -39t-39 -16t-39 16t-16 39t16 39t39 16t39 -16.5t16 -38.5z" />
<glyph unicode="&#x2da;" horiz-adv-x="333" d="M267 664q0 -41 -29.5 -70.5t-70.5 -29.5q-42 0 -71.5 29.5t-29.5 70.5q0 42 29.5 71.5t71.5 29.5q41 0 70.5 -29.5t29.5 -71.5zM216 664q0 21 -14.5 35.5t-34.5 14.5q-21 0 -35.5 -14.5t-14.5 -35.5q0 -20 14.5 -34.5t35.5 -14.5q20 0 34.5 14.5t14.5 34.5z" />
<glyph unicode="&#x2db;" horiz-adv-x="333" d="M46 -93q0 39 37.5 79.5t65.5 40.5q12 0 23.5 -12.5t11.5 -24.5q0 -11 -4.5 -17.5t-22.5 -26.5q-15 -17 -15 -28q0 -23 34 -23q15 0 41 9q29 8 36 8q16 0 25 -10.5t9 -23.5q0 -29 -45.5 -44t-84.5 -15q-24 0 -47.5 7t-43.5 28t-20 53z" />
<glyph unicode="&#x2dc;" horiz-adv-x="333" d="M29 578q-28 0 -28 37q0 36 22.5 67t58.5 31q37 0 80 -23q65 -28 79 -28q17 0 24.5 8t13.5 31t25 23q11 0 19.5 -10t8.5 -24q0 -31 -21 -65.5t-62 -34.5q-36 0 -84 24q-55 26 -77 26q-14 0 -21 -9t-14 -30q-8 -23 -24 -23z" />
<glyph unicode="&#x2dd;" horiz-adv-x="333" d="M232 632l18 34q21 40 36 47.5t58 7.5h49q24 0 24 -7q0 -10 -60 -63q-5 -5 -18.5 -16.5t-17 -14.5t-13.5 -11t-14 -10t-12 -6.5t-14.5 -5.5t-15 -2t-18.5 -1q-19 0 -19 12q0 5 17 36zM58 632l18 34q21 40 36 47.5t58 7.5h49q24 0 24 -7q0 -10 -60 -63q-5 -5 -18.5 -16.5 t-17 -14.5t-13.5 -11t-14 -10t-12 -6.5t-14.5 -5.5t-15 -2t-18.5 -1q-19 0 -19 12q0 5 17 36z" />
<glyph unicode="&#x3a9;" horiz-adv-x="742" d="M687 0h-265v110q120 113 120 264q0 97 -46 158t-128 61q-81 0 -131 -61t-50 -162q0 -151 122 -260v-110h-266v110h154q-156 111 -156 291q0 135 91.5 223t236.5 88q153 0 236.5 -87t83.5 -222q0 -181 -159 -293h157v-110z" />
<glyph unicode="&#x3bc;" horiz-adv-x="615" d="M206 70v-170q0 -28 -0.5 -40.5t-4.5 -27t-13 -22.5q-22 -20 -47 -20q-27 0 -49 19q-19 19 -19 91v520q0 59 11 81q6 11 21.5 20t34.5 9q27 0 48 -19q12 -12 15 -31t3 -60v-136q0 -63 8 -102q6 -29 30.5 -56.5t62.5 -27.5q52 0 81 52q19 35 19 132v138q0 28 0.5 41 t4.5 27.5t13 22.5q21 19 48 19q17 0 33 -9t23 -21q11 -19 11 -80v-329q0 -55 -11 -75q-6 -10 -20.5 -19t-31.5 -9q-57 0 -62 70q-20 -37 -49 -54q-28 -16 -54 -16q-23 0 -40.5 7t-30.5 22t-19 24.5t-16 28.5z" />
<glyph unicode="&#x3c0;" horiz-adv-x="705" d="M637 99l24 -86q-36 -22 -99 -22q-77 0 -112 44t-35 115v252h-113v-251q0 -96 -20 -151h-138q21 64 21 162v240q-57 -2 -96 -25q-6 13 -19 43.5t-18 42.5q62 37 166 37h456v-98h-102v-233q0 -80 51 -80q16 0 34 10z" />
<glyph unicode="&#x2013;" horiz-adv-x="500" d="M-6 208v90h512v-90h-512z" />
<glyph unicode="&#x2014;" horiz-adv-x="1000" d="M-6 208v90h1012v-90h-1012z" />
<glyph unicode="&#x2018;" horiz-adv-x="313" d="M162 583q32 2 55.5 -20t23.5 -54t-23.5 -53t-53.5 -21q-35 0 -59.5 27.5t-24.5 81.5q0 76 43.5 130t82.5 54q15 0 24 -10t9 -23q0 -19 -20 -32q-35 -22 -46 -40q-10 -18 -11 -40z" />
<glyph unicode="&#x2019;" horiz-adv-x="313" d="M159 580q-32 -2 -55.5 20t-23.5 54t23.5 53t53.5 21q35 0 59.5 -27.5t24.5 -81.5q0 -76 -43.5 -130t-82.5 -54q-15 0 -24 10t-9 23q0 19 20 32q35 22 46 40q10 18 11 40z" />
<glyph unicode="&#x201a;" horiz-adv-x="313" d="M159 -13q-32 -2 -55.5 20t-23.5 54t23.5 53t53.5 21q35 0 59.5 -27.5t24.5 -81.5q0 -76 -43.5 -130t-82.5 -54q-15 0 -24 10t-9 23q0 19 20 32q35 22 46 40q10 18 11 40z" />
<glyph unicode="&#x201c;" horiz-adv-x="458" d="M126 583q32 2 55.5 -20t23.5 -54t-23.5 -53t-53.5 -21q-35 0 -59.5 27.5t-24.5 81.5q0 76 43.5 130t82.5 54q15 0 24 -10t9 -23q0 -19 -20 -32q-35 -22 -46 -40q-10 -18 -11 -40zM341 583q32 2 55.5 -20t23.5 -54t-23.5 -53t-53.5 -21q-35 0 -59.5 27.5t-24.5 81.5 q0 76 43.5 130t82.5 54q15 0 24 -10t9 -23q0 -19 -20 -32q-35 -22 -46 -40q-10 -18 -11 -40z" />
<glyph unicode="&#x201d;" horiz-adv-x="458" d="M330 580q-32 -2 -55.5 20t-23.5 54t23.5 53t53.5 21q35 0 59.5 -27.5t24.5 -81.5q0 -76 -43.5 -130t-82.5 -54q-15 0 -24 10t-9 23q0 19 20 32q35 22 46 40q10 18 11 40zM115 580q-32 -2 -55.5 20t-23.5 54t23.5 53t53.5 21q35 0 59.5 -27.5t24.5 -81.5q0 -76 -43.5 -130 t-82.5 -54q-15 0 -24 10t-9 23q0 19 20 32q35 22 46 40q10 18 11 40z" />
<glyph unicode="&#x201e;" horiz-adv-x="458" d="M330 -13q-32 -2 -55.5 20t-23.5 54t23.5 53t53.5 21q35 0 59.5 -27.5t24.5 -81.5q0 -76 -43.5 -130t-82.5 -54q-15 0 -24 10t-9 23q0 19 20 32q35 22 46 40q10 18 11 40zM115 -13q-32 -2 -55.5 20t-23.5 54t23.5 53t53.5 21q35 0 59.5 -27.5t24.5 -81.5q0 -76 -43.5 -130 t-82.5 -54q-15 0 -24 10t-9 23q0 19 20 32q35 22 46 40q10 18 11 40z" />
<glyph unicode="&#x2020;" d="M237 409h-114q-56 0 -70 13q-16 16 -16 38q0 23 16 39q14 14 70 14h114v108q0 27 0.5 38.5t4 23.5t10.5 20q21 19 45 19q26 0 45 -19q11 -11 13.5 -27.5t2.5 -54.5v-108h113q56 0 70 -14q16 -16 16 -38q0 -21 -16 -39q-14 -13 -70 -13h-113v-500q0 -27 -0.5 -38.5 t-4 -23.5t-11.5 -20q-19 -19 -45 -19q-27 0 -44 19q-11 11 -13.5 27.5t-2.5 54.5v500z" />
<glyph unicode="&#x2021;" d="M237 -6h-113q-57 0 -71 13q-16 18 -16 39q0 22 16 38q10 10 24 12t47 2h113v333h-113q-57 0 -71 13q-16 16 -16 38q0 23 16 39q10 10 24 12t47 2h113v86q0 27 0.5 38.5t4 23.5t11.5 20q19 19 44 19q26 0 45 -19q11 -11 13.5 -27t2.5 -55v-86h112q33 0 47 -2t24 -12 q16 -16 16 -38q0 -21 -16 -39q-14 -13 -71 -13h-112v-333h112q33 0 47 -2t24 -12q16 -16 16 -38t-16 -38q-14 -14 -71 -14h-112v-85q0 -27 -0.5 -38.5t-4 -23.5t-11.5 -20q-19 -19 -44 -19q-26 0 -45 19q-11 11 -13.5 27t-2.5 55v85z" />
<glyph unicode="&#x2022;" horiz-adv-x="354" d="M321 353q0 -60 -42.5 -101.5t-101.5 -41.5q-60 0 -102 42t-42 101q0 60 42 102.5t102 42.5q59 0 101.5 -42t42.5 -103z" />
<glyph unicode="&#x2026;" horiz-adv-x="1000" d="M907 62q0 -31 -21.5 -52.5t-51.5 -21.5q-31 0 -52.5 21.5t-21.5 52.5q0 30 21.5 51.5t52.5 21.5q30 0 51.5 -21.5t21.5 -51.5zM573 62q0 -31 -21.5 -52.5t-51.5 -21.5q-31 0 -52.5 21.5t-21.5 52.5q0 30 21.5 51.5t52.5 21.5q30 0 51.5 -21.5t21.5 -51.5zM240 62 q0 -31 -21.5 -52.5t-51.5 -21.5q-31 0 -52.5 21.5t-21.5 52.5q0 30 21.5 51.5t52.5 21.5q30 0 51.5 -21.5t21.5 -51.5z" />
<glyph unicode="&#x2030;" horiz-adv-x="1208" d="M331 532q0 -79 -29 -122q-43 -63 -124 -63q-45 0 -82 22t-55 62q-18 37 -18 100q0 189 153 189q37 0 65 -10.5t44 -30.5t26.5 -38.5t14 -44t4.5 -37t1 -27.5zM239 537q0 65 -14 93t-48 28q-36 0 -49 -30t-13 -92q0 -65 13 -96t49 -31q37 0 49.5 31.5t12.5 96.5zM1185 179 q0 -81 -29 -122q-44 -63 -125 -63q-45 0 -81.5 21.5t-54.5 61.5q-18 38 -18 101q0 188 153 188q44 0 75.5 -17t46.5 -37.5t23 -51.5t9 -46.5t1 -34.5zM1093 182q0 65 -14 93.5t-48 28.5q-35 0 -48.5 -30t-13.5 -92q0 -64 13 -95t49 -31q37 0 49.5 31t12.5 95zM831 179 q0 -81 -29 -122q-44 -63 -125 -63q-45 0 -81.5 21.5t-54.5 61.5q-18 38 -18 101q0 188 153 188q44 0 75.5 -17t46.5 -37.5t23 -51.5t9 -46.5t1 -34.5zM739 182q0 65 -14 93.5t-48 28.5q-35 0 -48.5 -30t-13.5 -92q0 -64 13 -95t49 -31q37 0 49.5 31t12.5 95zM190 29l410 661 q9 15 13 20.5t12 10.5t18 5q17 0 24 -10t7 -19q0 -13 -17 -41l-407 -656q-17 -27 -35 -27q-13 0 -24 9t-11 20t10 27z" />
<glyph unicode="&#x2039;" horiz-adv-x="365" d="M174 256l93 -148q14 -19 14 -35q0 -18 -13.5 -30t-29.5 -12q-11 0 -18 2.5t-18.5 13t-24.5 30.5l-86 131q-21 33 -21 48q0 18 21 49l90 135q27 40 53 40q17 0 31.5 -11.5t14.5 -31.5q0 -12 -17 -40z" />
<glyph unicode="&#x203a;" horiz-adv-x="365" d="M191 255l-93 148q-14 19 -14 35q0 18 13.5 30t29.5 12q11 0 18 -2.5t18.5 -13t24.5 -30.5l86 -131q21 -33 21 -48q0 -18 -21 -49l-90 -135q-27 -40 -53 -40q-17 0 -31.5 11.5t-14.5 31.5q0 13 17 40z" />
<glyph unicode="&#x2044;" horiz-adv-x="146" d="M-164 29l410 661q9 15 13 20.5t12 10.5t18 5q17 0 24 -10t7 -19q0 -13 -17 -41l-407 -656q-17 -27 -35 -27q-13 0 -24 9t-11 20t10 27z" />
<glyph unicode="&#x20ac;" horiz-adv-x="621" d="M592 83q0 -23 -23.5 -42.5t-56.5 -30.5t-62.5 -16.5t-47.5 -5.5q-129 0 -210.5 68t-109.5 180h-11q-36 0 -54 8.5t-18 36.5q0 47 62 47h8q-1 8 -1 23q0 21 1 31q-34 0 -52 9t-18 36q0 47 62 47h23q30 110 110.5 178t202.5 68q75 0 135 -28.5t60 -65.5q0 -26 -16 -41.5 t-38 -15.5q-11 0 -20.5 3t-22 9t-18.5 8q-33 13 -75 13q-134 0 -181 -128h227q18 0 28.5 -1t25.5 -4.5t22 -14t7 -26.5q0 -13 -5.5 -22.5t-12 -14t-19.5 -6.5t-20.5 -2.5t-21.5 -0.5h-249q-1 -9 -1 -27t1 -27h203q18 0 28.5 -1t25.5 -4.5t22 -14t7 -26.5q0 -13 -5.5 -22.5 t-12 -14t-19.5 -6.5t-20.5 -2.5t-21.5 -0.5h-189q45 -130 177 -130q52 0 104 24q18 9 33 9q26 0 41.5 -16t15.5 -40z" />
<glyph unicode="&#x2113;" horiz-adv-x="517" d="M434 46q-71 -62 -148 -62q-65 0 -105 40q-42 43 -42 133v64q-9 -9 -27.5 -27t-27.5 -27q-7 12 -19.5 32l-17.5 28q13 13 28.5 28t34.5 33t29 28v201q0 101 41.5 156t115.5 55q60 0 89.5 -37.5t29.5 -86.5q0 -120 -120 -255q-4 -5 -17 -19t-17 -19v-138q0 -95 60 -95 q37 0 77 40zM340 587q0 47 -34 47q-45 0 -45 -92v-131q13 16 17 22q62 80 62 154z" />
<glyph unicode="&#x2122;" horiz-adv-x="1000" d="M229 316v330h-123v70h324v-70h-120v-330h-81zM478 316v400h127l73 -276l73 276h127v-400h-77v319l-87 -319h-73l-86 319v-319h-77z" />
<glyph unicode="&#x2126;" horiz-adv-x="742" d="M687 0h-265v110q120 113 120 264q0 97 -46 158t-128 61q-81 0 -131 -61t-50 -162q0 -151 122 -260v-110h-266v110h154q-156 111 -156 291q0 135 91.5 223t236.5 88q153 0 236.5 -87t83.5 -222q0 -181 -159 -293h157v-110z" />
<glyph unicode="&#x212e;" horiz-adv-x="680" d="M620 295h-455v-203q68 -66 162 -66q74 0 126 34t92 100q6 -4 18 -11t18 -11q-49 -74 -107.5 -112t-146.5 -38q-129 0 -208.5 88.5t-79.5 219.5t78.5 219t210.5 88q133 0 211 -87.5t81 -220.5zM491 333v165q-70 68 -164 68q-97 0 -162 -66v-167h326z" />
<glyph unicode="&#x2202;" horiz-adv-x="608" d="M572 460q0 -96 -24 -187q-35 -126 -110.5 -205t-182.5 -79q-93 0 -152 57t-59 147q0 141 79.5 220t180.5 79q46 0 81 -18t50 -44h2q4 34 4 53q0 69 -34.5 108.5t-95.5 39.5q-54 0 -100 -28q-15 50 -28 89q59 39 150 39q112 0 175.5 -72t63.5 -199zM422 332q-23 68 -92 68 q-60 0 -105 -62.5t-45 -151.5q0 -43 21.5 -69t57.5 -26q59 0 102.5 69.5t60.5 171.5z" />
<glyph unicode="&#x2206;" horiz-adv-x="648" d="M659 0h-634v57q97 278 226 643h186l111 -321t111 -322v-57zM497 111q-94 278 -141 418q-2 5 -16 63h-5q-5 -28 -14 -61q-23 -70 -70.5 -210t-71.5 -210h318z" />
<glyph unicode="&#x220f;" horiz-adv-x="760" d="M683 -230h-138v812h-330v-812h-138v930h606v-930z" />
<glyph unicode="&#x2211;" horiz-adv-x="665" d="M611 -230h-589v73q200 264 300 397l-282 381v79h551v-110h-379q63 -85 255 -347l-270 -363h414v-110z" />
<glyph unicode="&#x2212;" horiz-adv-x="583" d="M542 289h-501v128h501v-128z" />
<glyph unicode="&#x2215;" horiz-adv-x="146" d="M-164 29l410 661q9 15 13 20.5t12 10.5t18 5q17 0 24 -10t7 -19q0 -13 -17 -41l-407 -656q-17 -27 -35 -27q-13 0 -24 9t-11 20t10 27z" />
<glyph unicode="&#x2219;" horiz-adv-x="313" d="M230 354q0 -31 -21.5 -52.5t-51.5 -21.5q-31 0 -52.5 21.5t-21.5 52.5q0 30 21.5 51.5t52.5 21.5q30 0 51.5 -21.5t21.5 -51.5z" />
<glyph unicode="&#x221a;" horiz-adv-x="556" d="M558 729q-130 -494 -196 -741h-103q-86 204 -130 306q-38 -24 -57 -37q-7 11 -20.5 33t-19.5 33q26 17 76.5 50t76.5 50q21 -50 62.5 -150t62.5 -150q26 101 78.5 303t79.5 303h90z" />
<glyph unicode="&#x221e;" horiz-adv-x="831" d="M782 294q0 -80 -51 -132t-131 -52q-56 0 -105.5 28.5t-82.5 78.5h-2q-77 -107 -187 -107q-78 0 -131.5 49t-53.5 132t53.5 132.5t129.5 49.5q113 0 189 -108h2q29 44 77 76t109 32q80 0 132 -50.5t52 -128.5zM680 293q0 38 -23.5 63t-67.5 25q-70 0 -128 -89 q54 -92 129 -92q43 0 66.5 27t23.5 66zM360 292q-60 90 -130 90q-41 0 -65.5 -26.5t-24.5 -64.5q0 -39 26 -65t66 -26q71 0 128 92z" />
<glyph unicode="&#x222b;" horiz-adv-x="514" d="M432 638q-23 9 -46 9q-70 0 -70 -86v-593q0 -95 -47 -149.5t-139 -54.5q-58 0 -92 16l24 96q22 -9 46 -9q71 0 71 87v591q0 95 46.5 150t139.5 55q64 0 94 -17q-4 -16 -13 -47.5t-14 -47.5z" />
<glyph unicode="&#x2248;" horiz-adv-x="583" d="M554 425q-34 -51 -70 -74.5t-87 -23.5q-64 0 -112 30q-50 33 -92 33q-7 0 -13.5 -1.5t-12.5 -5t-10.5 -6t-10 -8.5t-8.5 -9.5t-7.5 -10.5t-6 -9.5t-6 -9.5t-4.5 -8l-84 98q34 48 69 73t87 25q58 0 112 -30q55 -33 94 -33q18 0 35 12.5t25 24t19 31.5zM554 180 q-34 -51 -70 -74t-87 -23q-64 0 -112 30q-50 33 -92 33q-9 0 -17 -2.5t-15.5 -7.5t-12.5 -9.5t-11 -13t-9 -12.5t-8 -13t-6 -10l-84 98q34 48 69 73t87 25q58 0 112 -30q55 -33 94 -33q14 0 26.5 6t23 18.5t15.5 20t14 22.5z" />
<glyph unicode="&#x2260;" horiz-adv-x="583" d="M542 183h-244l-41 -95h-142l41 95h-116v128h171l37 85h-208v128h264l51 118h142l-51 -118l96 1v-128l-152 -1l-37 -85h189v-128z" />
<glyph unicode="&#x2264;" horiz-adv-x="583" d="M514 0h-444v128h444v-128zM514 148l-444 168v125l444 167v-131l-290 -99v-2l290 -99v-129z" />
<glyph unicode="&#x2265;" horiz-adv-x="583" d="M513 0h-443v128h443v-128zM514 316l-444 -167v131l290 99v2l-290 99v129l444 -168v-125z" />
<glyph unicode="&#x25ca;" horiz-adv-x="595" d="M528 350q-35 -58 -106 -175t-107 -175h-63q-99 162 -212 349q70 117 212 351h63q36 -58 107 -174.5t106 -175.5zM428 350l-144 240q-24 -40 -72.5 -120t-72.5 -120l144 -240q49 80 145 240z" />
<glyph unicode="&#x25fc;" horiz-adv-x="530" d="M0 530h530v-530h-530v530z" />
</font>
</defs>
</svg>
